<?xml version="1.0" encoding="UTF-8" standalone="no"?>
<!DOCTYPE svg PUBLIC "-//W3C//DTD SVG 1.1//EN" "http://www.w3.org/Graphics/SVG/1.1/DTD/svg11.dtd">
<svg version="1.1" xmlns="http://www.w3.org/2000/svg" xmlns:xlink="http://www.w3.org/1999/xlink" preserveAspectRatio="xMidYMid meet" viewBox="0 0 646 220" width="646" height="220"><defs><path d="" id="f1rqr7rq3L"></path><path d="M541.24 173.26L497.17 173.26L488.05 182.37L551.23 182.37L541.24 173.26Z" id="akLitt0lr"></path><path d="M548.04 182.37L491.23 182.37L491.23 213.72L548.04 213.72L548.04 182.37Z" id="a1gNTbek45"></path><path d="M524.52 192.82L513.5 192.82L513.5 212.96L524.52 212.96L524.52 192.82Z" id="a3nc1Pone"></path><path d="M538.96 193.77L530.79 193.77L530.79 204.98L538.96 204.98L538.96 193.77Z" id="c4eXwnBOuh"></path><path d="M507.04 193.77L498.87 193.77L498.87 204.98L507.04 204.98L507.04 193.77Z" id="a9LoqdDcN"></path><path d="M482.16 113.79L424.97 113.79L424.97 213.72L482.16 213.72L482.16 113.79Z" id="e3my8YXYxy"></path><path d="M25.13 213.72L614.86 213.72" id="exEnScI2k"></path><path d="M477.03 119.8L430.1 119.8L430.1 131.39L477.03 131.39L477.03 119.8Z" id="iW1gXjRuZ"></path><path d="M477.03 138.04L430.1 138.04L430.1 149.63L477.03 149.63L477.03 138.04Z" id="f97xfkfOLY"></path><path d="M477.44 156.66L430.52 156.66L430.52 168.25L477.44 168.25L477.44 156.66Z" id="cawyBnVFT"></path><path d="M477.03 175.72L430.1 175.72L430.1 187.3L477.03 187.3L477.03 175.72Z" id="a5h9LvzFCh"></path><path d="M469.08 195.79L438.11 195.79L438.11 213.72L469.08 213.72L469.08 195.79Z" id="c1J9B9Iwfv"></path><path d="" id="c1aMSzdyYA"></path><path d="M469.08 209.66L482.16 209.66" id="bmZnqAKx"></path><path d="M424.97 209.66L438.11 209.66" id="aB0qI5vqz"></path><path d="M453.56 212.96L453.56 195.79" id="baqO8Xtoq"></path><path d="M477.03 108.78L430.1 108.78L430.1 113.79L477.03 113.79L477.03 108.78Z" id="jqwgqyRq1"></path><path d="M482.16 141.84L491.23 141.84L491.23 156.66L516.01 156.66L516.01 169.39" id="aoa3qcuOY"></path><path d="M391.76 149.63L391.76 141.84L424.97 141.84" id="cjApyE52M"></path><path d="M418.74 149.63L347.87 149.63L391.76 149.63" id="a2bwdI9b7C"></path><path d="M415.83 150.25L350.78 150.25L350.78 212.96L415.83 212.96L415.83 150.25Z" id="faRgf5ZYW"></path><path d="" id="btBGGFkq"></path><path d="M350.78 158.19L360.3 158.19L415.83 158.19" id="cQZS6Jck"></path><path d="M350.78 183.95L360.3 183.95L415.83 183.95" id="ekJ5D7jS"></path><path d="M409.24 166.09L396.48 166.09L396.48 178.86L409.24 178.86L409.24 166.09Z" id="b1s832Fmrg"></path><path d="M390.02 166.09L377.25 166.09L377.25 178.86L390.02 178.86L390.02 166.09Z" id="d2KAHMjJjC"></path><path d="M370.33 166.09L357.57 166.09L357.57 178.86L370.33 178.86L370.33 166.09Z" id="b3U6DC75Ip"></path><path d="M409.24 188.97L396.48 188.97L396.48 201.74L409.24 201.74L409.24 188.97Z" id="ae9LJEWJA"></path><path d="M370.03 188.97L357.26 188.97L357.26 201.74L370.03 201.74L370.03 188.97Z" id="bkZSwBa2v"></path><path d="M389.69 188.97L376.92 188.97L376.92 212.96L389.69 212.96L389.69 188.97Z" id="b143i3tufW"></path><path d="M390.02 209.66L415.47 209.66" id="a2kJPxQnRN"></path><path d="M350.78 209.66L376.41 209.66" id="b2qXHfiov9"></path><path d="M399.21 161.38L415.83 161.38" id="a4EK2mNKVW"></path><path d="M386.9 161.38L394.8 161.38" id="a35PCYfj75"></path><path d="" id="clMy84uHq"></path><path d="M350.02 161.38L357.92 161.38" id="j6asTczdC"></path><path d="M367.9 161.38L381.88 161.38" id="b2H2UiS8VB"></path><path d="M340.13 193.45L276.94 193.45L276.94 198.46L340.13 198.46L340.13 193.45Z" id="heIFkEe0B"></path><path d="M338.53 198.96L278.64 198.96L278.64 213.72L338.53 213.72L338.53 198.96Z" id="dJffDe441"></path><path d="M340.13 173.18L276.94 173.18L276.94 178.19L340.13 178.19L340.13 173.18Z" id="jFwHGeC5g"></path><path d="M338.53 178.69L278.64 178.69L278.64 193.45L338.53 193.45L338.53 178.69Z" id="a3kRxl1ee"></path><path d="M340.13 152.7L276.94 152.7L276.94 157.71L340.13 157.71L340.13 152.7Z" id="a2SLJcSBi"></path><path d="M338.53 158.21L278.64 158.21L278.64 172.97L338.53 172.97L338.53 158.21Z" id="b12ZqYfF2h"></path><path d="M340.13 132.43L276.94 132.43L276.94 137.44L340.13 137.44L340.13 132.43Z" id="a14zY3uUGk"></path><path d="M338.53 137.94L278.64 137.94L278.64 152.7L338.53 152.7L338.53 137.94Z" id="c10LNO4kJt"></path><path d="M340.13 111.38L276.94 111.38L276.94 116.39L340.13 116.39L340.13 111.38Z" id="bfgJw5sFK"></path><path d="M338.53 116.88L278.64 116.88L278.64 131.65L338.53 131.65L338.53 116.88Z" id="a4m0Ipn7jb"></path><path d="M339.37 105.64L278.42 105.64L278.42 110.96L339.37 110.96L339.37 105.64Z" id="fT3LLFtgW"></path><path d="M337.39 101.08L316.11 101.08L316.11 105.03L337.39 105.03L337.39 101.08Z" id="h8tCyB4Ayq"></path><path d="M332.53 105.03L332.53 101.08" id="a1TEokJKxl"></path><path d="M323.56 105.03L323.56 101.08" id="de0VvW1kH"></path><path d="M199.34 123.74L273.21 123.74" id="g7rYJYqZ8O"></path><path d="M269.26 124.2L202.53 124.2L202.53 213.72L269.26 213.72L269.26 124.2Z" id="afMnjSg4A"></path><path d="M202.53 130.43L269.26 130.43" id="b9QHgHVJ2"></path><path d="M202.53 158.4L269.26 158.09" id="cTzNrYo97"></path><path d="M202.99 183.93L269.26 183.93" id="d1Z6l7eKeh"></path><path d="M243.27 189.1L228.07 189.1L228.07 213.72L243.27 213.72L243.27 189.1Z" id="h2Rv2fRGD5"></path><path d="M262.57 188.34L249.8 188.34L249.8 202.02L262.57 202.02L262.57 188.34Z" id="giMKgQcs8"></path><path d="M222.37 188.34L209.6 188.34L209.6 202.02L222.37 202.02L222.37 188.34Z" id="ciXa8Sm5r"></path><path d="M262.57 165.77L249.8 165.77L249.8 179.45L262.57 179.45L262.57 165.77Z" id="c4j4hw8vN"></path><path d="M222.37 165.77L209.6 165.77L209.6 179.45L222.37 179.45L222.37 165.77Z" id="a3ql4hlhw"></path><path d="M242.66 165.77L229.89 165.77L229.89 179.45L242.66 179.45L242.66 165.77Z" id="a1RrnARPrz"></path><path d="M262.15 139.02L249.38 139.02L249.38 152.7L262.15 152.7L262.15 139.02Z" id="f29uXY2ycn"></path><path d="M221.95 139.02L209.18 139.02L209.18 152.7L221.95 152.7L221.95 139.02Z" id="a6yOFV1JJv"></path><path d="M242.24 139.02L229.47 139.02L229.47 152.7L242.24 152.7L242.24 139.02Z" id="d3WrTiqvT"></path><path d="M227.31 134.84L202.53 134.84" id="a21BXPU1u"></path><path d="M245.55 134.84L234.15 134.84" id="c4b1LgXlxF"></path><path d="M268.65 134.38L253.3 134.38" id="a17IlgT0T"></path><path d="M217.73 161.44L243.57 161.13" id="bGdbMBFo7"></path><path d="M210.74 161.44L202.99 161.44" id="a6iiL4FRPw"></path><path d="M243.57 209.32L268.65 209.32" id="l7hJ95fuGF"></path><path d="M202.53 209.32L228.07 209.32" id="dXUEnKXow"></path><path d="M193.33 115.43L146.4 115.43L146.4 213.72L193.33 213.72L193.33 115.43Z" id="g7uNe1xuzN"></path><path d="M196.87 108.9L143.06 108.9L143.06 115.43L196.87 115.43L196.87 108.9Z" id="b1ETjHzRhw"></path><path d="M186.68 120.75L175.59 120.75L175.59 133.98L186.68 133.98L186.68 120.75Z" id="g11QFQr3Mx"></path><path d="M188.96 133.98L173.31 133.98L173.31 137.32L188.96 137.32L188.96 133.98Z" id="f1xKVixW6C"></path><path d="M164.72 120.75L153.62 120.75L153.62 133.98L164.72 133.98L164.72 120.75Z" id="a2BOxYQAml"></path><path d="M167 133.98L151.34 133.98L151.34 137.32L167 137.32L167 133.98Z" id="c7l7JY8bz"></path><path d="M186.68 144.87L175.59 144.87L175.59 158.09L186.68 158.09L186.68 144.87Z" id="b1KoNe60s4"></path><path d="M188.96 158.09L173.31 158.09L173.31 161.44L188.96 161.44L188.96 158.09Z" id="a1ejOwqruQ"></path><path d="M164.72 144.87L153.62 144.87L153.62 158.09L164.72 158.09L164.72 144.87Z" id="c1S581UwGk"></path><path d="M167 158.09L151.34 158.09L151.34 161.44L167 161.44L167 158.09Z" id="b8rfWOWreG"></path><path d="M164.72 168.96L153.62 168.96L153.62 182.18L164.72 182.18L164.72 168.96Z" id="a2WPhp25T"></path><path d="M167 182.18L151.34 182.18L151.34 185.53L167 185.53L167 182.18Z" id="e8ZW2wVEr"></path><path d="M186.68 168.96L175.59 168.96L175.59 182.18L186.68 182.18L186.68 168.96Z" id="l6gL56XF0l"></path><path d="M188.96 182.18L173.31 182.18L173.31 185.53L188.96 185.53L188.96 182.18Z" id="a4tS332Jyx"></path><path d="M186.68 192.75L175.59 192.75L175.59 205.97L186.68 205.97L186.68 192.75Z" id="aeweGyxaI"></path><path d="M188.96 205.97L173.31 205.97L173.31 209.32L188.96 209.32L188.96 205.97Z" id="k2MfkVzW7"></path><path d="M164.8 192.75L154.31 192.75L154.31 213.72L164.8 213.72L164.8 192.75Z" id="b4UhiRPXjd"></path><path d="M128.42 169.68L128.42 158.13L141.95 158.13" id="c1QXj1QwGb"></path><path d="M106.39 169.68L106.39 164.58L128.42 164.58" id="boATjt50Q"></path><path d="M138.72 183.06L81.91 183.06L81.91 213.21L138.72 213.21L138.72 183.06Z" id="e1kAoJMXNq"></path><path d="M81.91 188.3L53.04 188.3L53.04 212.93L81.91 212.93L81.91 188.3Z" id="c1CMu4121s"></path><path d="M77.05 195.07L57.75 195.07L57.75 212.93L77.05 212.93L77.05 195.07Z" id="c5ZNQV5tLw"></path><path d="M53.04 191.57L81.91 191.57" id="a3aSz6nv8i"></path><path d="M141.93 178.2L78.7 178.2L78.7 183.06L141.93 183.06L141.93 178.2Z" id="b2XyjC0kX"></path><path d="M129.09 174.24L91.55 174.24L91.55 178.2L129.09 178.2L129.09 174.24Z" id="a2cyAQ8iPD"></path><path d="M554.98 193.77L554.98 151.76L597.92 151.76L597.92 209.32" id="abeYPOKSg"></path><path d="" id="bEReYrtD"></path><path d="M487.22 141.84L502.96 122.59L514.58 122.59L586.78 38.49L643.01 90.16" id="dF8fP1uR3"></path><path d="M502.96 122.59L523.45 152.74L514.58 122.59" id="a1377dWk7Q"></path><path d="M605.27 145.73L576.45 78.26L611.6 81.3L586.78 38.49" id="a7hgSrDwD"></path><path d="M493.42 9.1L494.67 9.4L495.87 9.81L497.02 10.33L498.11 10.95L499.13 11.66L500.09 12.46L500.97 13.33L501.77 14.29L502.48 15.32L503.09 16.41L503.61 17.56L504.02 18.76L504.19 19.45L505.05 19.27L506.36 19.18L507.67 19.27L508.92 19.53L510.11 19.94L511.23 20.5L512.26 21.2L513.18 22.01L514 22.94L514.69 23.97L515.25 25.08L515.67 26.27L515.92 27.53L516.01 28.84L515.92 30.14L515.67 31.4L515.25 32.59L514.69 33.71L514 34.73L513.18 35.66L512.26 36.48L511.23 37.17L510.11 37.73L508.92 38.14L507.67 38.4L506.36 38.49L505.05 38.4L503.79 38.14L502.6 37.73L501.49 37.17L500.46 36.48L499.54 35.66L498.72 34.73L498.33 34.15L498.11 34.3L497.02 34.92L495.87 35.43L494.67 35.85L493.42 36.15L492.13 36.33L490.8 36.4L489.47 36.33L488.18 36.15L486.94 35.85L485.73 35.43L484.58 34.92L483.49 34.3L482.47 33.59L482.44 33.56L482.32 33.74L481.49 34.71L480.53 35.54L479.44 36.22L478.24 36.72L476.97 37.04L475.62 37.14L474.27 37.04L472.99 36.72L471.8 36.22L470.71 35.54L469.75 34.71L468.91 33.74L468.24 32.65L467.73 31.46L467.42 30.18L467.31 28.84L467.42 27.49L467.73 26.21L468.24 25.02L468.91 23.93L469.75 22.96L470.71 22.13L471.8 21.45L472.99 20.95L474.27 20.64L475.62 20.53L476.97 20.64L477.18 20.69L477.27 20.01L477.58 18.76L477.99 17.56L478.51 16.41L479.12 15.32L479.83 14.29L480.63 13.33L481.51 12.46L482.47 11.66L483.49 10.95L484.58 10.33L485.73 9.81L486.94 9.4L488.18 9.1L489.47 8.91L490.8 8.85L492.13 8.91L493.42 9.1Z" id="a205LMHT0I"></path><path d="M379.42 47.78L380.62 48.19L381.77 48.71L382.86 49.32L383.88 50.04L384.84 50.83L385.72 51.71L386.52 52.67L387.23 53.69L387.84 54.79L388.36 55.93L388.78 57.14L388.94 57.83L389.8 57.65L391.11 57.56L392.42 57.65L393.68 57.91L394.87 58.32L395.98 58.88L397.01 59.57L397.93 60.39L398.75 61.32L399.44 62.34L400 63.46L400.42 64.65L400.67 65.9L400.76 67.21L400.67 68.52L400.42 69.78L400 70.97L399.44 72.08L398.75 73.11L397.93 74.04L397.01 74.85L395.98 75.55L394.87 76.11L393.68 76.52L392.42 76.78L391.11 76.87L389.8 76.78L388.55 76.52L387.36 76.11L386.24 75.55L385.21 74.85L384.29 74.04L383.47 73.11L383.08 72.53L382.86 72.68L381.77 73.29L380.62 73.81L379.42 74.22L378.17 74.53L376.88 74.71L375.55 74.78L374.23 74.71L372.94 74.53L371.69 74.22L370.48 73.81L369.34 73.29L368.25 72.68L367.22 71.97L367.19 71.94L367.08 72.12L366.25 73.09L365.28 73.92L364.19 74.59L363 75.1L361.72 75.41L360.37 75.52L359.02 75.41L357.75 75.1L356.55 74.59L355.47 73.92L354.5 73.09L353.67 72.12L352.99 71.03L352.49 69.84L352.17 68.56L352.06 67.21L352.17 65.87L352.49 64.59L352.99 63.4L353.67 62.31L354.5 61.34L355.47 60.51L356.55 59.83L357.75 59.33L359.02 59.01L360.37 58.9L361.72 59.01L361.93 59.07L362.03 58.39L362.33 57.14L362.74 55.93L363.26 54.79L363.88 53.69L364.59 52.67L365.38 51.71L366.26 50.83L367.22 50.04L368.25 49.32L369.34 48.71L370.48 48.19L371.69 47.78L372.94 47.48L374.23 47.29L375.55 47.23L376.88 47.29L378.17 47.48L378.17 47.48L379.42 47.78Z" id="bUWm868IH"></path><path d="M149.41 26.12L150.61 26.53L151.76 27.05L152.85 27.67L153.88 28.38L154.83 29.17L155.71 30.05L156.51 31.01L157.22 32.04L157.84 33.13L158.35 34.28L158.77 35.48L158.93 36.17L159.79 35.99L161.1 35.9L162.41 35.99L163.67 36.25L164.86 36.66L165.97 37.22L167 37.92L167.93 38.73L168.74 39.66L169.44 40.69L170 41.8L170.41 42.99L170.67 44.25L170.75 45.55L170.67 46.86L170.41 48.12L170 49.31L169.44 50.42L168.74 51.45L167.93 52.38L167 53.19L165.97 53.89L164.86 54.45L163.67 54.86L162.41 55.12L161.1 55.21L159.79 55.12L158.54 54.86L157.35 54.45L156.23 53.89L155.21 53.19L154.28 52.38L153.46 51.45L153.07 50.87L152.85 51.02L151.76 51.64L150.61 52.15L149.41 52.57L148.16 52.87L146.87 53.05L145.54 53.12L144.22 53.05L142.93 52.87L141.68 52.57L140.48 52.15L139.33 51.64L138.24 51.02L137.21 50.31L137.18 50.28L137.07 50.46L136.24 51.43L135.27 52.26L134.18 52.94L132.99 53.44L131.71 53.76L130.36 53.86L129.02 53.76L127.74 53.44L126.55 52.94L125.46 52.26L124.49 51.43L123.66 50.46L122.98 49.37L122.48 48.18L122.16 46.9L122.05 45.55L122.16 44.21L122.48 42.93L122.98 41.74L123.66 40.65L124.49 39.68L125.46 38.85L126.55 38.17L127.74 37.67L129.02 37.35L130.36 37.25L131.71 37.35L131.92 37.41L132.02 36.73L132.32 35.48L132.73 34.28L133.25 33.13L133.87 32.04L134.58 31.01L135.38 30.05L136.26 29.17L137.21 28.38L138.24 27.67L139.33 27.05L140.48 26.53L141.68 26.12L142.93 25.82L144.22 25.63L145.54 25.57L146.87 25.63L148.16 25.82L148.16 25.82L149.41 26.12Z" id="aRkfBPUVr"></path><path d="M316.04 -44.56L317.25 -44.15L318.39 -43.63L319.49 -43.01L320.51 -42.3L321.47 -41.5L322.35 -40.62L323.14 -39.67L323.86 -38.64L324.47 -37.55L324.99 -36.4L325.4 -35.2L325.57 -34.51L326.43 -34.68L327.74 -34.77L329.05 -34.68L330.3 -34.43L331.49 -34.01L332.61 -33.45L333.63 -32.76L334.56 -31.94L335.38 -31.02L336.07 -29.99L336.63 -28.88L337.04 -27.69L337.3 -26.43L337.39 -25.12L337.3 -23.81L337.04 -22.56L336.63 -21.37L336.07 -20.25L335.38 -19.23L334.56 -18.3L333.63 -17.48L332.61 -16.79L331.49 -16.23L330.3 -15.81L329.05 -15.56L327.74 -15.47L326.43 -15.56L325.17 -15.81L323.98 -16.23L322.87 -16.79L321.84 -17.48L320.91 -18.3L320.1 -19.23L319.7 -19.81L319.49 -19.66L318.39 -19.04L317.25 -18.52L316.04 -18.11L314.79 -17.81L313.5 -17.62L312.18 -17.56L310.85 -17.62L309.56 -17.81L308.31 -18.11L307.11 -18.52L305.96 -19.04L304.87 -19.66L303.85 -20.37L303.81 -20.39L303.7 -20.22L302.87 -19.25L301.9 -18.42L300.82 -17.74L299.62 -17.24L298.35 -16.92L297 -16.81L295.65 -16.92L294.37 -17.24L293.18 -17.74L292.09 -18.42L291.12 -19.25L290.29 -20.22L289.62 -21.3L289.11 -22.5L288.8 -23.77L288.69 -25.12L288.8 -26.47L289.11 -27.75L289.62 -28.94L290.29 -30.03L291.12 -31L292.09 -31.83L293.18 -32.5L294.37 -33.01L295.65 -33.32L297 -33.43L298.35 -33.32L298.56 -33.27L298.65 -33.95L298.96 -35.2L299.37 -36.4L299.89 -37.55L300.5 -38.64L301.21 -39.67L302.01 -40.62L302.89 -41.5L303.85 -42.3L304.87 -43.01L305.96 -43.63L307.11 -44.15L308.31 -44.56L309.56 -44.86L310.85 -45.05L312.18 -45.11L313.5 -45.05L314.79 -44.86L314.79 -44.86L316.04 -44.56Z" id="cQT1z2FU9"></path><path d="M129.09 194.09L121.45 194.09L121.45 212.93L129.09 212.93L129.09 194.09Z" id="h5h45yYFbf"></path><path d="M111.72 192.75L98.95 192.75L98.95 206.43L111.72 206.43L111.72 192.75Z" id="b4tDULKK3D"></path><path d="" id="a1HxcHYsP7"></path><path d="" id="f1kD8sFu1G"></path><path d="" id="iGMaoFgtR"></path><path d="" id="a6DwOekED1"></path><path d="M573.17 159.39L560.4 159.39L560.4 172.15L573.17 172.15L573.17 159.39Z" id="b3xzirNh3X"></path><path d="M593.47 159.39L580.7 159.39L580.7 172.15L593.47 172.15L593.47 159.39Z" id="f3OzlViElr"></path><path d="M573.17 176.67L560.4 176.67L560.4 189.43L573.17 189.43L573.17 176.67Z" id="b74sfEQD0"></path><path d="M593.47 176.67L580.7 176.67L580.7 189.43L593.47 189.43L593.47 176.67Z" id="anCv9Dz6G"></path></defs><g><g><g><g><use xlink:href="#f1rqr7rq3L" opacity="1" fill-opacity="0" stroke="#19b5fe" stroke-width="2" stroke-opacity="1"></use></g></g><g><g><use xlink:href="#akLitt0lr" opacity="1" fill-opacity="0" stroke="#19b5fe" stroke-width="2" stroke-opacity="1"></use></g></g><g><use xlink:href="#a1gNTbek45" opacity="1" fill="#fafafa" fill-opacity="0"></use><g><use xlink:href="#a1gNTbek45" opacity="1" fill-opacity="0" stroke="#19b5fe" stroke-width="2" stroke-opacity="1"></use></g></g><g><use xlink:href="#a3nc1Pone" opacity="1" fill="#fbfbfb" fill-opacity="0"></use><g><use xlink:href="#a3nc1Pone" opacity="1" fill-opacity="0" stroke="#19b5fe" stroke-width="2" stroke-opacity="1"></use></g></g><g><use xlink:href="#c4eXwnBOuh" opacity="1" fill="#fbfbfb" fill-opacity="0.04"></use><g><use xlink:href="#c4eXwnBOuh" opacity="1" fill-opacity="0" stroke="#19b5fe" stroke-width="2" stroke-opacity="1"></use></g></g><g><use xlink:href="#a9LoqdDcN" opacity="1" fill="#fbfbfb" fill-opacity="0.04"></use><g><use xlink:href="#a9LoqdDcN" opacity="1" fill-opacity="0" stroke="#19b5fe" stroke-width="2" stroke-opacity="1"></use></g></g><g><use xlink:href="#e3my8YXYxy" opacity="1" fill="#fbfbfb" fill-opacity="0.04"></use><g><use xlink:href="#e3my8YXYxy" opacity="1" fill-opacity="0" stroke="#19b5fe" stroke-width="2" stroke-opacity="1"></use></g></g><g><g><use xlink:href="#exEnScI2k" opacity="1" fill-opacity="0" stroke="#19b5fe" stroke-width="2" stroke-opacity="1"></use></g></g><g><use xlink:href="#iW1gXjRuZ" opacity="1" fill="#fbfbfb" fill-opacity="0.04"></use><g><use xlink:href="#iW1gXjRuZ" opacity="1" fill-opacity="0" stroke="#19b5fe" stroke-width="2" stroke-opacity="1"></use></g></g><g><use xlink:href="#f97xfkfOLY" opacity="1" fill="#fbfbfb" fill-opacity="0.04"></use><g><use xlink:href="#f97xfkfOLY" opacity="1" fill-opacity="0" stroke="#19b5fe" stroke-width="2" stroke-opacity="1"></use></g></g><g><use xlink:href="#cawyBnVFT" opacity="1" fill="#fbfbfb" fill-opacity="0.04"></use><g><use xlink:href="#cawyBnVFT" opacity="1" fill-opacity="0" stroke="#19b5fe" stroke-width="2" stroke-opacity="1"></use></g></g><g><use xlink:href="#a5h9LvzFCh" opacity="1" fill="#fbfbfb" fill-opacity="0.04"></use><g><use xlink:href="#a5h9LvzFCh" opacity="1" fill-opacity="0" stroke="#19b5fe" stroke-width="2" stroke-opacity="1"></use></g></g><g><use xlink:href="#c1J9B9Iwfv" opacity="1" fill="#fbfbfb" fill-opacity="0.04"></use><g><use xlink:href="#c1J9B9Iwfv" opacity="1" fill-opacity="0" stroke="#19b5fe" stroke-width="2" stroke-opacity="1"></use></g></g><g><g><use xlink:href="#c1aMSzdyYA" opacity="1" fill-opacity="0" stroke="#19b5fe" stroke-width="2" stroke-opacity="1"></use></g></g><g><g><use xlink:href="#bmZnqAKx" opacity="1" fill-opacity="0" stroke="#19b5fe" stroke-width="2" stroke-opacity="1"></use></g></g><g><g><use xlink:href="#aB0qI5vqz" opacity="1" fill-opacity="0" stroke="#19b5fe" stroke-width="2" stroke-opacity="1"></use></g></g><g><g><use xlink:href="#baqO8Xtoq" opacity="1" fill-opacity="0" stroke="#19b5fe" stroke-width="2" stroke-opacity="1"></use></g></g><g><use xlink:href="#jqwgqyRq1" opacity="1" fill="#fbfbfb" fill-opacity="0.04"></use><g><use xlink:href="#jqwgqyRq1" opacity="1" fill-opacity="0" stroke="#19b5fe" stroke-width="2" stroke-opacity="1"></use></g></g><g><g><use xlink:href="#aoa3qcuOY" opacity="1" fill-opacity="0" stroke="#19b5fe" stroke-width="2" stroke-opacity="1"></use></g></g><g><g><use xlink:href="#cjApyE52M" opacity="1" fill-opacity="0" stroke="#19b5fe" stroke-width="2" stroke-opacity="1"></use></g></g><g><g><use xlink:href="#a2bwdI9b7C" opacity="1" fill-opacity="0" stroke="#19b5fe" stroke-width="2" stroke-opacity="1"></use></g></g><g><use xlink:href="#faRgf5ZYW" opacity="1" fill="#fbfbfb" fill-opacity="0.04"></use><g><use xlink:href="#faRgf5ZYW" opacity="1" fill-opacity="0" stroke="#19b5fe" stroke-width="2" stroke-opacity="1"></use></g></g><g><g><use xlink:href="#btBGGFkq" opacity="1" fill-opacity="0" stroke="#19b5fe" stroke-width="2" stroke-opacity="1"></use></g></g><g><g><use xlink:href="#cQZS6Jck" opacity="1" fill-opacity="0" stroke="#19b5fe" stroke-width="2" stroke-opacity="1"></use></g></g><g><g><use xlink:href="#ekJ5D7jS" opacity="1" fill-opacity="0" stroke="#19b5fe" stroke-width="2" stroke-opacity="1"></use></g></g><g><use xlink:href="#b1s832Fmrg" opacity="1" fill="#fbfbfb" fill-opacity="0.04"></use><g><use xlink:href="#b1s832Fmrg" opacity="1" fill-opacity="0" stroke="#19b5fe" stroke-width="2" stroke-opacity="1"></use></g></g><g><use xlink:href="#d2KAHMjJjC" opacity="1" fill="#fbfbfb" fill-opacity="0.04"></use><g><use xlink:href="#d2KAHMjJjC" opacity="1" fill-opacity="0" stroke="#19b5fe" stroke-width="2" stroke-opacity="1"></use></g></g><g><use xlink:href="#b3U6DC75Ip" opacity="1" fill="#fbfbfb" fill-opacity="0.04"></use><g><use xlink:href="#b3U6DC75Ip" opacity="1" fill-opacity="0" stroke="#19b5fe" stroke-width="2" stroke-opacity="1"></use></g></g><g><use xlink:href="#ae9LJEWJA" opacity="1" fill="#fbfbfb" fill-opacity="0.04"></use><g><use xlink:href="#ae9LJEWJA" opacity="1" fill-opacity="0" stroke="#19b5fe" stroke-width="2" stroke-opacity="1"></use></g></g><g><use xlink:href="#bkZSwBa2v" opacity="1" fill="#fbfbfb" fill-opacity="0.04"></use><g><use xlink:href="#bkZSwBa2v" opacity="1" fill-opacity="0" stroke="#19b5fe" stroke-width="2" stroke-opacity="1"></use></g></g><g><use xlink:href="#b143i3tufW" opacity="1" fill="#fbfbfb" fill-opacity="0.04"></use><g><use xlink:href="#b143i3tufW" opacity="1" fill-opacity="0" stroke="#19b5fe" stroke-width="2" stroke-opacity="1"></use></g></g><g><g><use xlink:href="#a2kJPxQnRN" opacity="1" fill-opacity="0" stroke="#19b5fe" stroke-width="2" stroke-opacity="1"></use></g></g><g><g><use xlink:href="#b2qXHfiov9" opacity="1" fill-opacity="0" stroke="#19b5fe" stroke-width="2" stroke-opacity="1"></use></g></g><g><g><use xlink:href="#a4EK2mNKVW" opacity="1" fill-opacity="0" stroke="#19b5fe" stroke-width="2" stroke-opacity="1"></use></g></g><g><g><use xlink:href="#a35PCYfj75" opacity="1" fill-opacity="0" stroke="#19b5fe" stroke-width="2" stroke-opacity="1"></use></g></g><g><g><use xlink:href="#clMy84uHq" opacity="1" fill-opacity="0" stroke="#19b5fe" stroke-width="2" stroke-opacity="1"></use></g></g><g><g><use xlink:href="#j6asTczdC" opacity="1" fill-opacity="0" stroke="#19b5fe" stroke-width="2" stroke-opacity="1"></use></g></g><g><g><use xlink:href="#b2H2UiS8VB" opacity="1" fill-opacity="0" stroke="#19b5fe" stroke-width="2" stroke-opacity="1"></use></g></g><g><g><g></g><use xlink:href="#heIFkEe0B" opacity="1" fill="#fbfbfb" fill-opacity="0.04"></use><g><use xlink:href="#heIFkEe0B" opacity="1" fill-opacity="0" stroke="#19b5fe" stroke-width="2" stroke-opacity="1"></use></g></g><g><g></g><use xlink:href="#dJffDe441" opacity="1" fill="#fbfbfb" fill-opacity="0.04"></use><g><use xlink:href="#dJffDe441" opacity="1" fill-opacity="0" stroke="#19b5fe" stroke-width="2" stroke-opacity="1"></use></g></g></g><g><g><g></g><use xlink:href="#jFwHGeC5g" opacity="1" fill="#fbfbfb" fill-opacity="0.04"></use><g><use xlink:href="#jFwHGeC5g" opacity="1" fill-opacity="0" stroke="#19b5fe" stroke-width="2" stroke-opacity="1"></use></g></g><g><g></g><use xlink:href="#a3kRxl1ee" opacity="1" fill="#fbfbfb" fill-opacity="0.04"></use><g><use xlink:href="#a3kRxl1ee" opacity="1" fill-opacity="0" stroke="#19b5fe" stroke-width="2" stroke-opacity="1"></use></g></g></g><g><g><g></g><use xlink:href="#a2SLJcSBi" opacity="1" fill="#fbfbfb" fill-opacity="0.04"></use><g><use xlink:href="#a2SLJcSBi" opacity="1" fill-opacity="0" stroke="#19b5fe" stroke-width="2" stroke-opacity="1"></use></g></g><g><g></g><use xlink:href="#b12ZqYfF2h" opacity="1" fill="#fbfbfb" fill-opacity="0.04"></use><g><use xlink:href="#b12ZqYfF2h" opacity="1" fill-opacity="0" stroke="#19b5fe" stroke-width="2" stroke-opacity="1"></use></g></g></g><g><g><g></g><use xlink:href="#a14zY3uUGk" opacity="1" fill="#fbfbfb" fill-opacity="0.04"></use><g><use xlink:href="#a14zY3uUGk" opacity="1" fill-opacity="0" stroke="#19b5fe" stroke-width="2" stroke-opacity="1"></use></g></g><g><g></g><use xlink:href="#c10LNO4kJt" opacity="1" fill="#fbfbfb" fill-opacity="0.04"></use><g><use xlink:href="#c10LNO4kJt" opacity="1" fill-opacity="0" stroke="#19b5fe" stroke-width="2" stroke-opacity="1"></use></g></g></g><g><g><g></g><use xlink:href="#bfgJw5sFK" opacity="1" fill="#fbfbfb" fill-opacity="0.04"></use><g><use xlink:href="#bfgJw5sFK" opacity="1" fill-opacity="0" stroke="#19b5fe" stroke-width="2" stroke-opacity="1"></use></g></g><g><g></g><use xlink:href="#a4m0Ipn7jb" opacity="1" fill="#fbfbfb" fill-opacity="0.04"></use><g><use xlink:href="#a4m0Ipn7jb" opacity="1" fill-opacity="0" stroke="#19b5fe" stroke-width="2" stroke-opacity="1"></use></g></g></g><g><g></g><use xlink:href="#fT3LLFtgW" opacity="1" fill="#fbfbfb" fill-opacity="0.04"></use><g><use xlink:href="#fT3LLFtgW" opacity="1" fill-opacity="0" stroke="#19b5fe" stroke-width="2" stroke-opacity="1"></use></g></g><g><use xlink:href="#h8tCyB4Ayq" opacity="1" fill="#fbfbfb" fill-opacity="0.04"></use><g><use xlink:href="#h8tCyB4Ayq" opacity="1" fill-opacity="0" stroke="#19b5fe" stroke-width="2" stroke-opacity="1"></use></g></g><g><g><use xlink:href="#a1TEokJKxl" opacity="1" fill-opacity="0" stroke="#19b5fe" stroke-width="2" stroke-opacity="1"></use></g></g><g><g><use xlink:href="#de0VvW1kH" opacity="1" fill-opacity="0" stroke="#19b5fe" stroke-width="2" stroke-opacity="1"></use></g></g><g><g><use xlink:href="#g7rYJYqZ8O" opacity="1" fill-opacity="0" stroke="#19b5fe" stroke-width="2" stroke-opacity="1"></use></g></g><g><use xlink:href="#afMnjSg4A" opacity="1" fill="#fbfbfb" fill-opacity="0.04"></use><g><use xlink:href="#afMnjSg4A" opacity="1" fill-opacity="0" stroke="#19b5fe" stroke-width="2" stroke-opacity="1"></use></g></g><g><g><use xlink:href="#b9QHgHVJ2" opacity="1" fill-opacity="0" stroke="#19b5fe" stroke-width="2" stroke-opacity="1"></use></g></g><g><g><use xlink:href="#cTzNrYo97" opacity="1" fill-opacity="0" stroke="#19b5fe" stroke-width="2" stroke-opacity="1"></use></g></g><g><g><use xlink:href="#d1Z6l7eKeh" opacity="1" fill-opacity="0" stroke="#19b5fe" stroke-width="2" stroke-opacity="1"></use></g></g><g><use xlink:href="#h2Rv2fRGD5" opacity="1" fill="#fbfbfb" fill-opacity="0.04"></use><g><use xlink:href="#h2Rv2fRGD5" opacity="1" fill-opacity="0" stroke="#19b5fe" stroke-width="2" stroke-opacity="1"></use></g></g><g><use xlink:href="#giMKgQcs8" opacity="1" fill="#fbfbfb" fill-opacity="0.04"></use><g><use xlink:href="#giMKgQcs8" opacity="1" fill-opacity="0" stroke="#19b5fe" stroke-width="2" stroke-opacity="1"></use></g></g><g><use xlink:href="#ciXa8Sm5r" opacity="1" fill="#fbfbfb" fill-opacity="0.04"></use><g><use xlink:href="#ciXa8Sm5r" opacity="1" fill-opacity="0" stroke="#19b5fe" stroke-width="2" stroke-opacity="1"></use></g></g><g><g><use xlink:href="#c4j4hw8vN" opacity="1" fill="#fbfbfb" fill-opacity="0.04"></use><g><use xlink:href="#c4j4hw8vN" opacity="1" fill-opacity="0" stroke="#19b5fe" stroke-width="2" stroke-opacity="1"></use></g></g><g><use xlink:href="#a3ql4hlhw" opacity="1" fill="#fbfbfb" fill-opacity="0.04"></use><g><use xlink:href="#a3ql4hlhw" opacity="1" fill-opacity="0" stroke="#19b5fe" stroke-width="2" stroke-opacity="1"></use></g></g><g><use xlink:href="#a1RrnARPrz" opacity="1" fill="#fbfbfb" fill-opacity="0.04"></use><g><use xlink:href="#a1RrnARPrz" opacity="1" fill-opacity="0" stroke="#19b5fe" stroke-width="2" stroke-opacity="1"></use></g></g></g><g><g><use xlink:href="#f29uXY2ycn" opacity="1" fill="#fbfbfb" fill-opacity="0.04"></use><g><use xlink:href="#f29uXY2ycn" opacity="1" fill-opacity="0" stroke="#19b5fe" stroke-width="2" stroke-opacity="1"></use></g></g><g><use xlink:href="#a6yOFV1JJv" opacity="1" fill="#fbfbfb" fill-opacity="0.04"></use><g><use xlink:href="#a6yOFV1JJv" opacity="1" fill-opacity="0" stroke="#19b5fe" stroke-width="2" stroke-opacity="1"></use></g></g><g><use xlink:href="#d3WrTiqvT" opacity="1" fill="#fbfbfb" fill-opacity="0.04"></use><g><use xlink:href="#d3WrTiqvT" opacity="1" fill-opacity="0" stroke="#19b5fe" stroke-width="2" stroke-opacity="1"></use></g></g></g><g><g><use xlink:href="#a21BXPU1u" opacity="1" fill-opacity="0" stroke="#19b5fe" stroke-width="2" stroke-opacity="1"></use></g></g><g><g><use xlink:href="#c4b1LgXlxF" opacity="1" fill-opacity="0" stroke="#19b5fe" stroke-width="2" stroke-opacity="1"></use></g></g><g><g><use xlink:href="#a17IlgT0T" opacity="1" fill-opacity="0" stroke="#19b5fe" stroke-width="2" stroke-opacity="1"></use></g></g><g><g><use xlink:href="#bGdbMBFo7" opacity="1" fill-opacity="0" stroke="#19b5fe" stroke-width="2" stroke-opacity="1"></use></g></g><g><g><use xlink:href="#a6iiL4FRPw" opacity="1" fill-opacity="0" stroke="#19b5fe" stroke-width="2" stroke-opacity="1"></use></g></g><g><g><use xlink:href="#l7hJ95fuGF" opacity="1" fill-opacity="0" stroke="#19b5fe" stroke-width="2" stroke-opacity="1"></use></g></g><g><g><use xlink:href="#dXUEnKXow" opacity="1" fill-opacity="0" stroke="#19b5fe" stroke-width="2" stroke-opacity="1"></use></g></g><g><use xlink:href="#g7uNe1xuzN" opacity="1" fill="#fbfbfb" fill-opacity="0.04"></use><g><use xlink:href="#g7uNe1xuzN" opacity="1" fill-opacity="0" stroke="#19b5fe" stroke-width="2" stroke-opacity="1"></use></g></g><g><use xlink:href="#b1ETjHzRhw" opacity="1" fill="#fbfbfb" fill-opacity="0.04"></use><g><use xlink:href="#b1ETjHzRhw" opacity="1" fill-opacity="0" stroke="#19b5fe" stroke-width="2" stroke-opacity="1"></use></g></g><g><g><use xlink:href="#g11QFQr3Mx" opacity="1" fill="#fbfbfb" fill-opacity="0.04"></use><g><use xlink:href="#g11QFQr3Mx" opacity="1" fill-opacity="0" stroke="#19b5fe" stroke-width="2" stroke-opacity="1"></use></g></g><g><use xlink:href="#f1xKVixW6C" opacity="1" fill="#fbfbfb" fill-opacity="0.04"></use><g><use xlink:href="#f1xKVixW6C" opacity="1" fill-opacity="0" stroke="#19b5fe" stroke-width="2" stroke-opacity="1"></use></g></g></g><g><g><use xlink:href="#a2BOxYQAml" opacity="1" fill="#fbfbfb" fill-opacity="0.04"></use><g><use xlink:href="#a2BOxYQAml" opacity="1" fill-opacity="0" stroke="#19b5fe" stroke-width="2" stroke-opacity="1"></use></g></g><g><use xlink:href="#c7l7JY8bz" opacity="1" fill="#fbfbfb" fill-opacity="0.04"></use><g><use xlink:href="#c7l7JY8bz" opacity="1" fill-opacity="0" stroke="#19b5fe" stroke-width="2" stroke-opacity="1"></use></g></g></g><g><g><use xlink:href="#b1KoNe60s4" opacity="1" fill="#fbfbfb" fill-opacity="0.04"></use><g><use xlink:href="#b1KoNe60s4" opacity="1" fill-opacity="0" stroke="#19b5fe" stroke-width="2" stroke-opacity="1"></use></g></g><g><use xlink:href="#a1ejOwqruQ" opacity="1" fill="#fbfbfb" fill-opacity="0.04"></use><g><use xlink:href="#a1ejOwqruQ" opacity="1" fill-opacity="0" stroke="#19b5fe" stroke-width="2" stroke-opacity="1"></use></g></g></g><g><g><use xlink:href="#c1S581UwGk" opacity="1" fill="#fbfbfb" fill-opacity="0.04"></use><g><use xlink:href="#c1S581UwGk" opacity="1" fill-opacity="0" stroke="#19b5fe" stroke-width="2" stroke-opacity="1"></use></g></g><g><use xlink:href="#b8rfWOWreG" opacity="1" fill="#fbfbfb" fill-opacity="0.04"></use><g><use xlink:href="#b8rfWOWreG" opacity="1" fill-opacity="0" stroke="#19b5fe" stroke-width="2" stroke-opacity="1"></use></g></g></g><g><g><use xlink:href="#a2WPhp25T" opacity="1" fill="#fbfbfb" fill-opacity="0.04"></use><g><use xlink:href="#a2WPhp25T" opacity="1" fill-opacity="0" stroke="#19b5fe" stroke-width="2" stroke-opacity="1"></use></g></g><g><use xlink:href="#e8ZW2wVEr" opacity="1" fill="#fbfbfb" fill-opacity="0.04"></use><g><use xlink:href="#e8ZW2wVEr" opacity="1" fill-opacity="0" stroke="#19b5fe" stroke-width="2" stroke-opacity="1"></use></g></g></g><g><g><use xlink:href="#l6gL56XF0l" opacity="1" fill="#fbfbfb" fill-opacity="0.04"></use><g><use xlink:href="#l6gL56XF0l" opacity="1" fill-opacity="0" stroke="#19b5fe" stroke-width="2" stroke-opacity="1"></use></g></g><g><use xlink:href="#a4tS332Jyx" opacity="1" fill="#fbfbfb" fill-opacity="0.04"></use><g><use xlink:href="#a4tS332Jyx" opacity="1" fill-opacity="0" stroke="#19b5fe" stroke-width="2" stroke-opacity="1"></use></g></g></g><g><g><use xlink:href="#aeweGyxaI" opacity="1" fill="#fbfbfb" fill-opacity="0.04"></use><g><use xlink:href="#aeweGyxaI" opacity="1" fill-opacity="0" stroke="#19b5fe" stroke-width="2" stroke-opacity="1"></use></g></g><g><use xlink:href="#k2MfkVzW7" opacity="1" fill="#fbfbfb" fill-opacity="0.04"></use><g><use xlink:href="#k2MfkVzW7" opacity="1" fill-opacity="0" stroke="#19b5fe" stroke-width="2" stroke-opacity="1"></use></g></g></g><g><use xlink:href="#b4UhiRPXjd" opacity="1" fill="#fbfbfb" fill-opacity="0.04"></use><g><use xlink:href="#b4UhiRPXjd" opacity="1" fill-opacity="0" stroke="#19b5fe" stroke-width="2" stroke-opacity="1"></use></g></g><g><g><use xlink:href="#c1QXj1QwGb" opacity="1" fill-opacity="0" stroke="#19b5fe" stroke-width="2" stroke-opacity="1"></use></g></g><g><g><use xlink:href="#boATjt50Q" opacity="1" fill-opacity="0" stroke="#19b5fe" stroke-width="2" stroke-opacity="1"></use></g></g><g><use xlink:href="#e1kAoJMXNq" opacity="1" fill="#fbfbfb" fill-opacity="0.04"></use><g><use xlink:href="#e1kAoJMXNq" opacity="1" fill-opacity="0" stroke="#19b5fe" stroke-width="2" stroke-opacity="1"></use></g></g><g><use xlink:href="#c1CMu4121s" opacity="1" fill="#fbfbfb" fill-opacity="0.04"></use><g><use xlink:href="#c1CMu4121s" opacity="1" fill-opacity="0" stroke="#19b5fe" stroke-width="2" stroke-opacity="1"></use></g></g><g><use xlink:href="#c5ZNQV5tLw" opacity="1" fill="#fbfbfb" fill-opacity="0.04"></use><g><use xlink:href="#c5ZNQV5tLw" opacity="1" fill-opacity="0" stroke="#19b5fe" stroke-width="2" stroke-opacity="1"></use></g></g><g><g><use xlink:href="#a3aSz6nv8i" opacity="1" fill-opacity="0" stroke="#19b5fe" stroke-width="2" stroke-opacity="1"></use></g></g><g><use xlink:href="#b2XyjC0kX" opacity="1" fill="#fbfbfb" fill-opacity="0.04"></use><g><use xlink:href="#b2XyjC0kX" opacity="1" fill-opacity="0" stroke="#19b5fe" stroke-width="2" stroke-opacity="1"></use></g></g><g><use xlink:href="#a2cyAQ8iPD" opacity="1" fill="#fbfbfb" fill-opacity="0.04"></use><g><use xlink:href="#a2cyAQ8iPD" opacity="1" fill-opacity="0" stroke="#19b5fe" stroke-width="2" stroke-opacity="1"></use></g></g><g><g><use xlink:href="#abeYPOKSg" opacity="1" fill-opacity="0" stroke="#19b5fe" stroke-width="2" stroke-opacity="1"></use></g></g><g><g><use xlink:href="#bEReYrtD" opacity="1" fill-opacity="0" stroke="#19b5fe" stroke-width="2" stroke-opacity="1"></use></g></g><g><g><g><use xlink:href="#dF8fP1uR3" opacity="1" fill-opacity="0" stroke="#19b5fe" stroke-width="2" stroke-opacity="1"></use></g></g><g><g><use xlink:href="#a1377dWk7Q" opacity="1" fill-opacity="0" stroke="#19b5fe" stroke-width="2" stroke-opacity="1"></use></g></g><g><g><use xlink:href="#a7hgSrDwD" opacity="1" fill-opacity="0" stroke="#19b5fe" stroke-width="2" stroke-opacity="1"></use></g></g></g><g><use xlink:href="#a205LMHT0I" opacity="1" fill="#fbfbfb" fill-opacity="0"></use><g><use xlink:href="#a205LMHT0I" opacity="1" fill-opacity="0" stroke="#19b5fe" stroke-width="2" stroke-opacity="1"></use></g></g><g><use xlink:href="#bUWm868IH" opacity="1" fill="#fbfbfb" fill-opacity="0"></use><g><use xlink:href="#bUWm868IH" opacity="1" fill-opacity="0" stroke="#19b5fe" stroke-width="2" stroke-opacity="1"></use></g></g><g><use xlink:href="#aRkfBPUVr" opacity="1" fill="#fbfbfb" fill-opacity="0"></use><g><use xlink:href="#aRkfBPUVr" opacity="1" fill-opacity="0" stroke="#19b5fe" stroke-width="2" stroke-opacity="1"></use></g></g><g><use xlink:href="#cQT1z2FU9" opacity="1" fill="#fbfbfb" fill-opacity="0"></use><g><use xlink:href="#cQT1z2FU9" opacity="1" fill-opacity="0" stroke="#19b5fe" stroke-width="2" stroke-opacity="1"></use></g></g><g><use xlink:href="#h5h45yYFbf" opacity="1" fill="#fbfbfb" fill-opacity="0.06"></use><g><use xlink:href="#h5h45yYFbf" opacity="1" fill-opacity="0" stroke="#19b5fe" stroke-width="2" stroke-opacity="1"></use></g></g><g><use xlink:href="#b4tDULKK3D" opacity="1" fill="#fbfbfb" fill-opacity="0.04"></use><g><use xlink:href="#b4tDULKK3D" opacity="1" fill-opacity="0" stroke="#19b5fe" stroke-width="2" stroke-opacity="1"></use></g></g><g><g><use xlink:href="#a1HxcHYsP7" opacity="1" fill-opacity="0" stroke="#19b5fe" stroke-width="2" stroke-opacity="1"></use></g></g><g><g><use xlink:href="#f1kD8sFu1G" opacity="1" fill-opacity="0" stroke="#19b5fe" stroke-width="2" stroke-opacity="1"></use></g></g><g><g><use xlink:href="#iGMaoFgtR" opacity="1" fill-opacity="0" stroke="#19b5fe" stroke-width="2" stroke-opacity="1"></use></g></g><g><g><use xlink:href="#a6DwOekED1" opacity="1" fill-opacity="0" stroke="#19b5fe" stroke-width="2" stroke-opacity="1"></use></g></g><g><use xlink:href="#b3xzirNh3X" opacity="1" fill="#fbfbfb" fill-opacity="0.04"></use><g><use xlink:href="#b3xzirNh3X" opacity="1" fill-opacity="0" stroke="#19b5fe" stroke-width="2" stroke-opacity="1"></use></g></g><g><use xlink:href="#f3OzlViElr" opacity="1" fill="#fbfbfb" fill-opacity="0.04"></use><g><use xlink:href="#f3OzlViElr" opacity="1" fill-opacity="0" stroke="#19b5fe" stroke-width="2" stroke-opacity="1"></use></g></g><g><use xlink:href="#b74sfEQD0" opacity="1" fill="#fbfbfb" fill-opacity="0.04"></use><g><use xlink:href="#b74sfEQD0" opacity="1" fill-opacity="0" stroke="#19b5fe" stroke-width="2" stroke-opacity="1"></use></g></g><g><use xlink:href="#anCv9Dz6G" opacity="1" fill="#fbfbfb" fill-opacity="0.04"></use><g><use xlink:href="#anCv9Dz6G" opacity="1" fill-opacity="0" stroke="#19b5fe" stroke-width="2" stroke-opacity="1"></use></g></g></g></g></svg>