<?xml version="1.0" encoding="UTF-8" standalone="no"?>
<!DOCTYPE svg PUBLIC "-//W3C//DTD SVG 1.1//EN" "http://www.w3.org/Graphics/SVG/1.1/DTD/svg11.dtd">
<svg version="1.1" xmlns="http://www.w3.org/2000/svg" xmlns:xlink="http://www.w3.org/1999/xlink" preserveAspectRatio="xMidYMid meet" viewBox="0 0 734.13 250" width="734.13" height="250"><defs><path d="" id="cjZl1vMBT"></path><path d="M644.32 182.4L600.24 182.4L591.12 191.52L654.31 191.52L644.32 182.4Z" id="a4flN2BAaQ"></path><path d="M651.12 191.52L594.31 191.52L594.31 222.87L651.12 222.87L651.12 191.52Z" id="aEekMcSQu"></path><path d="M627.6 201.97L616.58 201.97L616.58 222.11L627.6 222.11L627.6 201.97Z" id="hb0qZFt0M"></path><path d="M642.04 202.92L633.87 202.92L633.87 214.13L642.04 214.13L642.04 202.92Z" id="cIEEfVHll"></path><path d="M610.12 202.92L601.95 202.92L601.95 214.13L610.12 214.13L610.12 202.92Z" id="kKjww1rNP"></path><path d="M585.23 122.93L528.05 122.93L528.05 222.87L585.23 222.87L585.23 122.93Z" id="dOXy6BFA"></path><path d="M128.21 222.87L717.94 222.87" id="fj6KZi7v6"></path><path d="M580.11 128.94L533.18 128.94L533.18 140.53L580.11 140.53L580.11 128.94Z" id="d3BTFC1mjT"></path><path d="M580.11 147.18L533.18 147.18L533.18 158.77L580.11 158.77L580.11 147.18Z" id="bAq3ktr9G"></path><path d="M580.52 165.8L533.59 165.8L533.59 177.39L580.52 177.39L580.52 165.8Z" id="a1KLUFqLlC"></path><path d="M580.11 184.86L533.18 184.86L533.18 196.45L580.11 196.45L580.11 184.86Z" id="a2cNFDIpVM"></path><path d="M572.16 204.94L541.19 204.94L541.19 222.87L572.16 222.87L572.16 204.94Z" id="bIV3phjB"></path><path d="" id="eAR49rI71"></path><path d="M572.16 218.81L585.23 218.81" id="c81nCQyX1t"></path><path d="M528.05 218.81L541.19 218.81" id="c22yY33L1r"></path><path d="M556.64 222.11L556.64 204.94" id="i2x8JHIrvt"></path><path d="M580.11 117.92L533.18 117.92L533.18 122.93L580.11 122.93L580.11 117.92Z" id="i2eCuGeHxo"></path><path d="M585.23 150.98L594.31 150.98L594.31 165.8L619.09 165.8L619.09 178.53" id="aft5eWpKv"></path><path d="M494.84 158.77L494.84 150.98L528.05 150.98" id="b1ReiZVob2"></path><path d="M521.82 158.77L450.95 158.77L494.84 158.77" id="c9fH4C6CW8"></path><path d="M518.91 159.39L453.86 159.39L453.86 222.11L518.91 222.11L518.91 159.39Z" id="a4svgO94xw"></path><path d="" id="bmkm4PIMs"></path><path d="M453.86 167.33L463.38 167.33L518.91 167.33" id="dfZKdVUNv"></path><path d="M453.86 193.1L463.38 193.1L518.91 193.1" id="c7ITgcSCmN"></path><path d="M512.32 175.24L499.55 175.24L499.55 188L512.32 188L512.32 175.24Z" id="g2vQz8Oocc"></path><path d="M493.09 175.24L480.33 175.24L480.33 188L493.09 188L493.09 175.24Z" id="d6b782sGAW"></path><path d="M473.41 175.24L460.64 175.24L460.64 188L473.41 188L473.41 175.24Z" id="b17HSVhjth"></path><path d="M512.32 198.11L499.55 198.11L499.55 210.88L512.32 210.88L512.32 198.11Z" id="bpF4sUz6q"></path><path d="M473.11 198.11L460.34 198.11L460.34 210.88L473.11 210.88L473.11 198.11Z" id="aRo32q8l9"></path><path d="M492.77 198.11L480 198.11L480 222.11L492.77 222.11L492.77 198.11Z" id="a2mW57nQ"></path><path d="M493.09 218.81L518.55 218.81" id="a1hUiFjDVG"></path><path d="M453.86 218.81L479.49 218.81" id="a5rW4E3k"></path><path d="M502.29 170.53L518.91 170.53" id="d4Dj695E9c"></path><path d="M489.98 170.53L497.88 170.53" id="dEvzs25ur"></path><path d="" id="hsHlSghD7"></path><path d="M453.1 170.53L461 170.53" id="c1bLKdz4RP"></path><path d="M470.98 170.53L484.96 170.53" id="d6t6HOfJK"></path><path d="M443.2 202.6L380.02 202.6L380.02 207.61L443.2 207.61L443.2 202.6Z" id="b2ukiaN2sD"></path><path d="M441.61 208.1L381.72 208.1L381.72 222.87L441.61 222.87L441.61 208.1Z" id="aoz55yl7r"></path><path d="M443.2 182.32L380.02 182.32L380.02 187.33L443.2 187.33L443.2 182.32Z" id="f3whfjCahc"></path><path d="M441.61 187.83L381.72 187.83L381.72 202.6L441.61 202.6L441.61 187.83Z" id="bl60Xhrc8"></path><path d="M443.2 161.84L380.02 161.84L380.02 166.85L443.2 166.85L443.2 161.84Z" id="f5hEY7pRt"></path><path d="M441.61 167.35L381.72 167.35L381.72 182.12L441.61 182.12L441.61 167.35Z" id="d30C8aSxel"></path><path d="M443.2 141.57L380.02 141.57L380.02 146.58L443.2 146.58L443.2 141.57Z" id="a2LmlV3lR"></path><path d="M441.61 147.08L381.72 147.08L381.72 161.84L441.61 161.84L441.61 147.08Z" id="dT0l05fS"></path><path d="M443.2 120.52L380.02 120.52L380.02 125.53L443.2 125.53L443.2 120.52Z" id="cUM74bsSz"></path><path d="M441.61 126.03L381.72 126.03L381.72 140.79L441.61 140.79L441.61 126.03Z" id="bU2JJNyp"></path><path d="M442.44 114.78L381.5 114.78L381.5 120.1L442.44 120.1L442.44 114.78Z" id="be5ZgkFd"></path><path d="M440.47 110.22L419.19 110.22L419.19 114.17L440.47 114.17L440.47 110.22Z" id="f2FcdfA3mw"></path><path d="M435.6 114.17L435.6 110.22" id="b1BQlohAg7"></path><path d="M426.64 114.17L426.64 110.22" id="a3A4Rv7rGm"></path><path d="M302.42 132.89L376.29 132.89" id="e1tktuR1fG"></path><path d="M372.34 133.34L305.61 133.34L305.61 222.87L372.34 222.87L372.34 133.34Z" id="d4qWhFJ3w"></path><path d="M305.61 139.58L372.34 139.58" id="d226roUxmQ"></path><path d="M305.61 167.54L372.34 167.24" id="c31ZcflEI"></path><path d="M306.07 193.08L372.34 193.08" id="bH0JlRa6v"></path><path d="M346.34 198.24L331.15 198.24L331.15 222.87L346.34 222.87L346.34 198.24Z" id="hlK1tLmg4"></path><path d="M365.65 197.48L352.88 197.48L352.88 211.16L365.65 211.16L365.65 197.48Z" id="bgjYUM71e"></path><path d="M325.45 197.48L312.68 197.48L312.68 211.16L325.45 211.16L325.45 197.48Z" id="krXMaXIFM"></path><path d="M365.65 174.91L352.88 174.91L352.88 188.59L365.65 188.59L365.65 174.91Z" id="dcefATMvK"></path><path d="M325.45 174.91L312.68 174.91L312.68 188.59L325.45 188.59L325.45 174.91Z" id="b3b5DidN6"></path><path d="M345.74 174.91L332.97 174.91L332.97 188.59L345.74 188.59L345.74 174.91Z" id="b1oMLKinlQ"></path><path d="M365.23 148.16L352.46 148.16L352.46 161.84L365.23 161.84L365.23 148.16Z" id="b1b3xIOtMc"></path><path d="M325.03 148.16L312.26 148.16L312.26 161.84L325.03 161.84L325.03 148.16Z" id="ctUo9QHTg"></path><path d="M345.32 148.16L332.55 148.16L332.55 161.84L345.32 161.84L345.32 148.16Z" id="adVPUcnt9"></path><path d="M330.39 143.98L305.61 143.98" id="f5CERA1Dy"></path><path d="M348.62 143.98L337.23 143.98" id="a2aluo3g4Z"></path><path d="M371.73 143.53L356.38 143.53" id="h4l7sQuIhW"></path><path d="M320.81 170.58L346.65 170.28" id="a11MszGDJq"></path><path d="M313.82 170.58L306.07 170.58" id="a2KKGJAvj7"></path><path d="M346.65 218.46L371.73 218.46" id="a2QmzYZgqO"></path><path d="M305.61 218.46L331.15 218.46" id="a9oUyMjPV"></path><path d="M296.41 124.58L249.48 124.58L249.48 222.87L296.41 222.87L296.41 124.58Z" id="h5Kg79WQII"></path><path d="M299.94 118.04L246.14 118.04L246.14 124.58L299.94 124.58L299.94 118.04Z" id="gVTmUpOuK"></path><path d="M289.76 129.9L278.67 129.9L278.67 143.12L289.76 143.12L289.76 129.9Z" id="c4hiZH11YF"></path><path d="M292.04 143.12L276.39 143.12L276.39 146.46L292.04 146.46L292.04 143.12Z" id="b35l4I3ygg"></path><path d="M267.8 129.9L256.7 129.9L256.7 143.12L267.8 143.12L267.8 129.9Z" id="c2GTPunUpG"></path><path d="M270.08 143.12L254.42 143.12L254.42 146.46L270.08 146.46L270.08 143.12Z" id="d2gA1wcwPw"></path><path d="M289.76 154.01L278.67 154.01L278.67 167.24L289.76 167.24L289.76 154.01Z" id="b1ZnWGXXi"></path><path d="M292.04 167.24L276.39 167.24L276.39 170.58L292.04 170.58L292.04 167.24Z" id="akDmpdNj0"></path><path d="M267.8 154.01L256.7 154.01L256.7 167.24L267.8 167.24L267.8 154.01Z" id="d1S2zveH7e"></path><path d="M270.08 167.24L254.42 167.24L254.42 170.58L270.08 170.58L270.08 167.24Z" id="fd4Dievdv"></path><path d="M267.8 178.11L256.7 178.11L256.7 191.33L267.8 191.33L267.8 178.11Z" id="d2HXAmUdKn"></path><path d="M270.08 191.33L254.42 191.33L254.42 194.67L270.08 194.67L270.08 191.33Z" id="imthDakZe"></path><path d="M289.76 178.11L278.67 178.11L278.67 191.33L289.76 191.33L289.76 178.11Z" id="f7yAcGlKj"></path><path d="M292.04 191.33L276.39 191.33L276.39 194.67L292.04 194.67L292.04 191.33Z" id="a9NTqxygR"></path><path d="M289.76 201.89L278.67 201.89L278.67 215.12L289.76 215.12L289.76 201.89Z" id="bbf6ee8ig"></path><path d="M292.04 215.12L276.39 215.12L276.39 218.46L292.04 218.46L292.04 215.12Z" id="b1oC1yNyog"></path><path d="M267.87 201.89L257.39 201.89L257.39 222.87L267.87 222.87L267.87 201.89Z" id="d2JTQbEuwN"></path><path d="M231.5 178.83L231.5 167.28L245.03 167.28" id="avDqoBfqR"></path><path d="M209.46 178.83L209.46 173.72L231.5 173.72" id="a1ZgxGt2fc"></path><path d="M241.8 192.2L184.99 192.2L184.99 222.35L241.8 222.35L241.8 192.2Z" id="a1huGG6RJp"></path><path d="M184.99 197.45L156.12 197.45L156.12 222.07L184.99 222.07L184.99 197.45Z" id="aQ60G1cGF"></path><path d="M180.13 204.21L160.83 204.21L160.83 222.07L180.13 222.07L180.13 204.21Z" id="cwoGogcK"></path><path d="M156.12 200.71L184.99 200.71" id="dJ6DiHHLQ"></path><path d="M245.01 187.34L181.78 187.34L181.78 192.2L245.01 192.2L245.01 187.34Z" id="g32DhTs95"></path><path d="M232.17 183.39L194.63 183.39L194.63 187.34L232.17 187.34L232.17 183.39Z" id="b3OVfM6uFA"></path><path d="M658.06 202.92L658.06 160.91L701 160.91L701 218.46" id="j1LICNJi4b"></path><path d="" id="a2523IIilE"></path><path d="M590.3 150.98L606.04 131.73L617.66 131.73L689.86 47.63L746.09 99.31" id="b1UA497u7W"></path><path d="M606.04 131.73L626.53 161.88L617.66 131.73" id="cfBJh7QcJ"></path><path d="M708.35 154.88L679.53 87.4L714.68 90.44L689.86 47.63" id="a2AM8Y32Cp"></path><path d="M596.5 18.24L597.74 18.54L598.95 18.96L600.1 19.47L601.19 20.09L602.21 20.8L603.17 21.6L604.05 22.48L604.85 23.43L605.56 24.46L606.17 25.55L606.69 26.7L607.1 27.9L607.27 28.59L608.13 28.42L609.44 28.33L610.75 28.42L612 28.67L613.19 29.09L614.31 29.65L615.33 30.34L616.26 31.16L617.08 32.08L617.77 33.11L618.33 34.22L618.75 35.42L619 36.67L619.09 37.98L619 39.29L618.75 40.54L618.33 41.74L617.77 42.85L617.08 43.88L616.26 44.8L615.33 45.62L614.31 46.31L613.19 46.87L612 47.29L610.75 47.54L609.44 47.63L608.13 47.54L606.87 47.29L605.68 46.87L604.57 46.31L603.54 45.62L602.62 44.8L601.8 43.88L601.41 43.29L601.19 43.44L600.1 44.06L598.95 44.58L597.74 44.99L596.5 45.29L595.21 45.48L593.88 45.54L592.55 45.48L591.26 45.29L590.01 44.99L588.81 44.58L587.66 44.06L586.57 43.44L585.55 42.73L585.52 42.71L585.4 42.89L584.57 43.85L583.6 44.69L582.52 45.36L581.32 45.87L580.05 46.18L578.7 46.29L577.35 46.18L576.07 45.87L574.88 45.36L573.79 44.69L572.82 43.85L571.99 42.89L571.32 41.8L570.81 40.61L570.5 39.33L570.39 37.98L570.5 36.63L570.81 35.35L571.32 34.16L571.99 33.07L572.82 32.11L573.79 31.28L574.88 30.6L576.07 30.09L577.35 29.78L578.7 29.67L580.05 29.78L580.26 29.83L580.35 29.15L580.66 27.9L581.07 26.7L581.59 25.55L582.2 24.46L582.91 23.43L583.71 22.48L584.59 21.6L585.55 20.8L586.57 20.09L587.66 19.47L588.81 18.96L590.01 18.54L591.26 18.24L592.55 18.06L593.88 17.99L595.21 18.06L596.5 18.24Z" id="b4uIoV0fML"></path><path d="M482.5 56.92L483.7 57.33L484.85 57.85L485.94 58.47L486.96 59.18L487.92 59.98L488.8 60.86L489.6 61.81L490.31 62.84L490.92 63.93L491.44 65.08L491.85 66.28L492.02 66.97L492.88 66.79L494.19 66.71L495.5 66.79L496.75 67.05L497.95 67.47L499.06 68.03L500.09 68.72L501.01 69.53L501.83 70.46L502.52 71.49L503.08 72.6L503.5 73.79L503.75 75.05L503.84 76.36L503.75 77.67L503.5 78.92L503.08 80.11L502.52 81.23L501.83 82.25L501.01 83.18L500.09 84L499.06 84.69L497.95 85.25L496.75 85.66L495.5 85.92L494.19 86.01L492.88 85.92L491.63 85.66L490.43 85.25L489.32 84.69L488.29 84L487.37 83.18L486.55 82.25L486.16 81.67L485.94 81.82L484.85 82.44L483.7 82.96L482.5 83.37L481.25 83.67L479.96 83.86L478.63 83.92L477.31 83.86L476.01 83.67L474.77 83.37L473.56 82.96L472.41 82.44L471.32 81.82L470.3 81.11L470.27 81.09L470.16 81.26L469.32 82.23L468.36 83.06L467.27 83.74L466.08 84.24L464.8 84.56L463.45 84.67L462.1 84.56L460.82 84.24L459.63 83.74L458.54 83.06L457.58 82.23L456.75 81.26L456.07 80.18L455.56 78.98L455.25 77.71L455.14 76.36L455.25 75.01L455.56 73.73L456.07 72.54L456.75 71.45L457.58 70.48L458.54 69.65L459.63 68.98L460.82 68.47L462.1 68.16L463.45 68.05L464.8 68.16L465.01 68.21L465.11 67.53L465.41 66.28L465.82 65.08L466.34 63.93L466.95 62.84L467.66 61.81L468.46 60.86L469.34 59.98L470.3 59.18L471.32 58.47L472.41 57.85L473.56 57.33L474.77 56.92L476.01 56.62L477.31 56.43L478.63 56.37L479.96 56.43L481.25 56.62L481.25 56.62L482.5 56.92Z" id="e2jwfhB2o"></path><path d="M252.49 35.26L253.69 35.68L254.84 36.19L255.93 36.81L256.96 37.52L257.91 38.32L258.79 39.2L259.59 40.15L260.3 41.18L260.92 42.27L261.43 43.42L261.85 44.62L262.01 45.31L262.87 45.14L264.18 45.05L265.49 45.14L266.75 45.39L267.94 45.81L269.05 46.37L270.08 47.06L271.01 47.88L271.82 48.8L272.51 49.83L273.07 50.94L273.49 52.13L273.75 53.39L273.83 54.7L273.75 56.01L273.49 57.26L273.07 58.45L272.51 59.57L271.82 60.6L271.01 61.52L270.08 62.34L269.05 63.03L267.94 63.59L266.75 64.01L265.49 64.26L264.18 64.35L262.87 64.26L261.62 64.01L260.43 63.59L259.31 63.03L258.29 62.34L257.36 61.52L256.54 60.6L256.15 60.01L255.93 60.16L254.84 60.78L253.69 61.3L252.49 61.71L251.24 62.01L249.95 62.2L248.62 62.26L247.3 62.2L246.01 62.01L244.76 61.71L243.56 61.3L242.41 60.78L241.32 60.16L240.29 59.45L240.26 59.43L240.15 59.61L239.32 60.57L238.35 61.4L237.26 62.08L236.07 62.58L234.79 62.9L233.44 63.01L232.09 62.9L230.82 62.58L229.62 62.08L228.54 61.4L227.57 60.57L226.74 59.61L226.06 58.52L225.56 57.32L225.24 56.05L225.13 54.7L225.24 53.35L225.56 52.07L226.06 50.88L226.74 49.79L227.57 48.82L228.54 47.99L229.62 47.32L230.82 46.81L232.09 46.5L233.44 46.39L234.79 46.5L235 46.55L235.1 45.87L235.4 44.62L235.81 43.42L236.33 42.27L236.95 41.18L237.66 40.15L238.45 39.2L239.33 38.32L240.29 37.52L241.32 36.81L242.41 36.19L243.56 35.68L244.76 35.26L246.01 34.96L247.3 34.78L248.62 34.71L249.95 34.78L251.24 34.96L251.24 34.96L252.49 35.26Z" id="b4q7U1rYG"></path><path d="M419.62 -29.94L420.82 -29.53L421.97 -29.01L423.06 -28.39L424.09 -27.68L425.04 -26.89L425.92 -26.01L426.72 -25.05L427.43 -24.02L428.05 -22.93L428.57 -21.78L428.98 -20.58L429.15 -19.89L430.01 -20.07L431.31 -20.16L432.62 -20.07L433.88 -19.81L435.07 -19.4L436.18 -18.84L437.21 -18.14L438.14 -17.33L438.95 -16.4L439.65 -15.37L440.21 -14.26L440.62 -13.07L440.88 -11.81L440.97 -10.5L440.88 -9.2L440.62 -7.94L440.21 -6.75L439.65 -5.63L438.95 -4.61L438.14 -3.68L437.21 -2.87L436.18 -2.17L435.07 -1.61L433.88 -1.2L432.62 -0.94L431.31 -0.85L430.01 -0.94L428.75 -1.2L427.56 -1.61L426.44 -2.17L425.42 -2.87L424.49 -3.68L423.68 -4.61L423.28 -5.19L423.06 -5.04L421.97 -4.42L420.82 -3.91L419.62 -3.49L418.37 -3.19L417.08 -3.01L415.76 -2.94L414.43 -3.01L413.14 -3.19L411.89 -3.49L410.69 -3.91L409.54 -4.42L408.45 -5.04L407.42 -5.75L407.39 -5.78L407.28 -5.6L406.45 -4.63L405.48 -3.8L404.39 -3.12L403.2 -2.62L401.92 -2.3L400.57 -2.2L399.23 -2.3L397.95 -2.62L396.76 -3.12L395.67 -3.8L394.7 -4.63L393.87 -5.6L393.19 -6.69L392.69 -7.88L392.37 -9.16L392.27 -10.5L392.37 -11.85L392.69 -13.13L393.19 -14.32L393.87 -15.41L394.7 -16.38L395.67 -17.21L396.76 -17.89L397.95 -18.39L399.23 -18.7L400.57 -18.81L401.92 -18.7L402.13 -18.65L402.23 -19.33L402.53 -20.58L402.94 -21.78L403.46 -22.93L404.08 -24.02L404.79 -25.05L405.59 -26.01L406.47 -26.89L407.42 -27.68L408.45 -28.39L409.54 -29.01L410.69 -29.53L411.89 -29.94L413.14 -30.24L414.43 -30.43L415.76 -30.49L417.08 -30.43L418.37 -30.24L418.37 -30.24L419.62 -29.94Z" id="b2eUbVemtm"></path><path d="M232.17 203.23L224.53 203.23L224.53 222.07L232.17 222.07L232.17 203.23Z" id="a3iQqAXpOm"></path><path d="M214.8 201.89L202.03 201.89L202.03 215.57L214.8 215.57L214.8 201.89Z" id="bNqrvWq7q"></path><path d="" id="a1HxcHYsP7"></path><path d="" id="f1kD8sFu1G"></path><path d="" id="iGMaoFgtR"></path><path d="" id="a6DwOekED1"></path><path d="M676.25 168.53L663.48 168.53L663.48 181.3L676.25 181.3L676.25 168.53Z" id="bYxZZIWo"></path><path d="M696.55 168.53L683.78 168.53L683.78 181.3L696.55 181.3L696.55 168.53Z" id="b1As7Buh9X"></path><path d="M676.25 185.81L663.48 185.81L663.48 198.58L676.25 198.58L676.25 185.81Z" id="a2UDpTrFwB"></path><path d="M696.55 185.81L683.78 185.81L683.78 198.58L696.55 198.58L696.55 185.81Z" id="bJBNjhkY5"></path></defs><g><g><g><g><use xlink:href="#cjZl1vMBT" opacity="1" fill-opacity="0" stroke="#19b5fe" stroke-width="2" stroke-opacity="1"></use></g></g><g><g><use xlink:href="#a4flN2BAaQ" opacity="1" fill-opacity="0" stroke="#19b5fe" stroke-width="2" stroke-opacity="1"></use></g></g><g><use xlink:href="#aEekMcSQu" opacity="1" fill="#fafafa" fill-opacity="0"></use><g><use xlink:href="#aEekMcSQu" opacity="1" fill-opacity="0" stroke="#19b5fe" stroke-width="2" stroke-opacity="1"></use></g></g><g><use xlink:href="#hb0qZFt0M" opacity="1" fill="#fbfbfb" fill-opacity="0"></use><g><use xlink:href="#hb0qZFt0M" opacity="1" fill-opacity="0" stroke="#19b5fe" stroke-width="2" stroke-opacity="1"></use></g></g><g><use xlink:href="#cIEEfVHll" opacity="1" fill="#fbfbfb" fill-opacity="0.04"></use><g><use xlink:href="#cIEEfVHll" opacity="1" fill-opacity="0" stroke="#19b5fe" stroke-width="2" stroke-opacity="1"></use></g></g><g><use xlink:href="#kKjww1rNP" opacity="1" fill="#fbfbfb" fill-opacity="0.04"></use><g><use xlink:href="#kKjww1rNP" opacity="1" fill-opacity="0" stroke="#19b5fe" stroke-width="2" stroke-opacity="1"></use></g></g><g><use xlink:href="#dOXy6BFA" opacity="1" fill="#fbfbfb" fill-opacity="0.04"></use><g><use xlink:href="#dOXy6BFA" opacity="1" fill-opacity="0" stroke="#19b5fe" stroke-width="2" stroke-opacity="1"></use></g></g><g><g><use xlink:href="#fj6KZi7v6" opacity="1" fill-opacity="0" stroke="#19b5fe" stroke-width="2" stroke-opacity="1"></use></g></g><g><use xlink:href="#d3BTFC1mjT" opacity="1" fill="#fbfbfb" fill-opacity="0.04"></use><g><use xlink:href="#d3BTFC1mjT" opacity="1" fill-opacity="0" stroke="#19b5fe" stroke-width="2" stroke-opacity="1"></use></g></g><g><use xlink:href="#bAq3ktr9G" opacity="1" fill="#fbfbfb" fill-opacity="0.04"></use><g><use xlink:href="#bAq3ktr9G" opacity="1" fill-opacity="0" stroke="#19b5fe" stroke-width="2" stroke-opacity="1"></use></g></g><g><use xlink:href="#a1KLUFqLlC" opacity="1" fill="#fbfbfb" fill-opacity="0.04"></use><g><use xlink:href="#a1KLUFqLlC" opacity="1" fill-opacity="0" stroke="#19b5fe" stroke-width="2" stroke-opacity="1"></use></g></g><g><use xlink:href="#a2cNFDIpVM" opacity="1" fill="#fbfbfb" fill-opacity="0.04"></use><g><use xlink:href="#a2cNFDIpVM" opacity="1" fill-opacity="0" stroke="#19b5fe" stroke-width="2" stroke-opacity="1"></use></g></g><g><use xlink:href="#bIV3phjB" opacity="1" fill="#fbfbfb" fill-opacity="0.04"></use><g><use xlink:href="#bIV3phjB" opacity="1" fill-opacity="0" stroke="#19b5fe" stroke-width="2" stroke-opacity="1"></use></g></g><g><g><use xlink:href="#eAR49rI71" opacity="1" fill-opacity="0" stroke="#19b5fe" stroke-width="2" stroke-opacity="1"></use></g></g><g><g><use xlink:href="#c81nCQyX1t" opacity="1" fill-opacity="0" stroke="#19b5fe" stroke-width="2" stroke-opacity="1"></use></g></g><g><g><use xlink:href="#c22yY33L1r" opacity="1" fill-opacity="0" stroke="#19b5fe" stroke-width="2" stroke-opacity="1"></use></g></g><g><g><use xlink:href="#i2x8JHIrvt" opacity="1" fill-opacity="0" stroke="#19b5fe" stroke-width="2" stroke-opacity="1"></use></g></g><g><use xlink:href="#i2eCuGeHxo" opacity="1" fill="#fbfbfb" fill-opacity="0.04"></use><g><use xlink:href="#i2eCuGeHxo" opacity="1" fill-opacity="0" stroke="#19b5fe" stroke-width="2" stroke-opacity="1"></use></g></g><g><g><use xlink:href="#aft5eWpKv" opacity="1" fill-opacity="0" stroke="#19b5fe" stroke-width="2" stroke-opacity="1"></use></g></g><g><g><use xlink:href="#b1ReiZVob2" opacity="1" fill-opacity="0" stroke="#19b5fe" stroke-width="2" stroke-opacity="1"></use></g></g><g><g><use xlink:href="#c9fH4C6CW8" opacity="1" fill-opacity="0" stroke="#19b5fe" stroke-width="2" stroke-opacity="1"></use></g></g><g><use xlink:href="#a4svgO94xw" opacity="1" fill="#fbfbfb" fill-opacity="0.04"></use><g><use xlink:href="#a4svgO94xw" opacity="1" fill-opacity="0" stroke="#19b5fe" stroke-width="2" stroke-opacity="1"></use></g></g><g><g><use xlink:href="#bmkm4PIMs" opacity="1" fill-opacity="0" stroke="#19b5fe" stroke-width="2" stroke-opacity="1"></use></g></g><g><g><use xlink:href="#dfZKdVUNv" opacity="1" fill-opacity="0" stroke="#19b5fe" stroke-width="2" stroke-opacity="1"></use></g></g><g><g><use xlink:href="#c7ITgcSCmN" opacity="1" fill-opacity="0" stroke="#19b5fe" stroke-width="2" stroke-opacity="1"></use></g></g><g><use xlink:href="#g2vQz8Oocc" opacity="1" fill="#fbfbfb" fill-opacity="0.04"></use><g><use xlink:href="#g2vQz8Oocc" opacity="1" fill-opacity="0" stroke="#19b5fe" stroke-width="2" stroke-opacity="1"></use></g></g><g><use xlink:href="#d6b782sGAW" opacity="1" fill="#fbfbfb" fill-opacity="0.04"></use><g><use xlink:href="#d6b782sGAW" opacity="1" fill-opacity="0" stroke="#19b5fe" stroke-width="2" stroke-opacity="1"></use></g></g><g><use xlink:href="#b17HSVhjth" opacity="1" fill="#fbfbfb" fill-opacity="0.04"></use><g><use xlink:href="#b17HSVhjth" opacity="1" fill-opacity="0" stroke="#19b5fe" stroke-width="2" stroke-opacity="1"></use></g></g><g><use xlink:href="#bpF4sUz6q" opacity="1" fill="#fbfbfb" fill-opacity="0.04"></use><g><use xlink:href="#bpF4sUz6q" opacity="1" fill-opacity="0" stroke="#19b5fe" stroke-width="2" stroke-opacity="1"></use></g></g><g><use xlink:href="#aRo32q8l9" opacity="1" fill="#fbfbfb" fill-opacity="0.04"></use><g><use xlink:href="#aRo32q8l9" opacity="1" fill-opacity="0" stroke="#19b5fe" stroke-width="2" stroke-opacity="1"></use></g></g><g><use xlink:href="#a2mW57nQ" opacity="1" fill="#fbfbfb" fill-opacity="0.04"></use><g><use xlink:href="#a2mW57nQ" opacity="1" fill-opacity="0" stroke="#19b5fe" stroke-width="2" stroke-opacity="1"></use></g></g><g><g><use xlink:href="#a1hUiFjDVG" opacity="1" fill-opacity="0" stroke="#19b5fe" stroke-width="2" stroke-opacity="1"></use></g></g><g><g><use xlink:href="#a5rW4E3k" opacity="1" fill-opacity="0" stroke="#19b5fe" stroke-width="2" stroke-opacity="1"></use></g></g><g><g><use xlink:href="#d4Dj695E9c" opacity="1" fill-opacity="0" stroke="#19b5fe" stroke-width="2" stroke-opacity="1"></use></g></g><g><g><use xlink:href="#dEvzs25ur" opacity="1" fill-opacity="0" stroke="#19b5fe" stroke-width="2" stroke-opacity="1"></use></g></g><g><g><use xlink:href="#hsHlSghD7" opacity="1" fill-opacity="0" stroke="#19b5fe" stroke-width="2" stroke-opacity="1"></use></g></g><g><g><use xlink:href="#c1bLKdz4RP" opacity="1" fill-opacity="0" stroke="#19b5fe" stroke-width="2" stroke-opacity="1"></use></g></g><g><g><use xlink:href="#d6t6HOfJK" opacity="1" fill-opacity="0" stroke="#19b5fe" stroke-width="2" stroke-opacity="1"></use></g></g><g><g><g></g><use xlink:href="#b2ukiaN2sD" opacity="1" fill="#fbfbfb" fill-opacity="0.04"></use><g><use xlink:href="#b2ukiaN2sD" opacity="1" fill-opacity="0" stroke="#19b5fe" stroke-width="2" stroke-opacity="1"></use></g></g><g><g></g><use xlink:href="#aoz55yl7r" opacity="1" fill="#fbfbfb" fill-opacity="0.04"></use><g><use xlink:href="#aoz55yl7r" opacity="1" fill-opacity="0" stroke="#19b5fe" stroke-width="2" stroke-opacity="1"></use></g></g></g><g><g><g></g><use xlink:href="#f3whfjCahc" opacity="1" fill="#fbfbfb" fill-opacity="0.04"></use><g><use xlink:href="#f3whfjCahc" opacity="1" fill-opacity="0" stroke="#19b5fe" stroke-width="2" stroke-opacity="1"></use></g></g><g><g></g><use xlink:href="#bl60Xhrc8" opacity="1" fill="#fbfbfb" fill-opacity="0.04"></use><g><use xlink:href="#bl60Xhrc8" opacity="1" fill-opacity="0" stroke="#19b5fe" stroke-width="2" stroke-opacity="1"></use></g></g></g><g><g><g></g><use xlink:href="#f5hEY7pRt" opacity="1" fill="#fbfbfb" fill-opacity="0.04"></use><g><use xlink:href="#f5hEY7pRt" opacity="1" fill-opacity="0" stroke="#19b5fe" stroke-width="2" stroke-opacity="1"></use></g></g><g><g></g><use xlink:href="#d30C8aSxel" opacity="1" fill="#fbfbfb" fill-opacity="0.04"></use><g><use xlink:href="#d30C8aSxel" opacity="1" fill-opacity="0" stroke="#19b5fe" stroke-width="2" stroke-opacity="1"></use></g></g></g><g><g><g></g><use xlink:href="#a2LmlV3lR" opacity="1" fill="#fbfbfb" fill-opacity="0.04"></use><g><use xlink:href="#a2LmlV3lR" opacity="1" fill-opacity="0" stroke="#19b5fe" stroke-width="2" stroke-opacity="1"></use></g></g><g><g></g><use xlink:href="#dT0l05fS" opacity="1" fill="#fbfbfb" fill-opacity="0.04"></use><g><use xlink:href="#dT0l05fS" opacity="1" fill-opacity="0" stroke="#19b5fe" stroke-width="2" stroke-opacity="1"></use></g></g></g><g><g><g></g><use xlink:href="#cUM74bsSz" opacity="1" fill="#fbfbfb" fill-opacity="0.04"></use><g><use xlink:href="#cUM74bsSz" opacity="1" fill-opacity="0" stroke="#19b5fe" stroke-width="2" stroke-opacity="1"></use></g></g><g><g></g><use xlink:href="#bU2JJNyp" opacity="1" fill="#fbfbfb" fill-opacity="0.04"></use><g><use xlink:href="#bU2JJNyp" opacity="1" fill-opacity="0" stroke="#19b5fe" stroke-width="2" stroke-opacity="1"></use></g></g></g><g><g></g><use xlink:href="#be5ZgkFd" opacity="1" fill="#fbfbfb" fill-opacity="0.04"></use><g><use xlink:href="#be5ZgkFd" opacity="1" fill-opacity="0" stroke="#19b5fe" stroke-width="2" stroke-opacity="1"></use></g></g><g><use xlink:href="#f2FcdfA3mw" opacity="1" fill="#fbfbfb" fill-opacity="0.04"></use><g><use xlink:href="#f2FcdfA3mw" opacity="1" fill-opacity="0" stroke="#19b5fe" stroke-width="2" stroke-opacity="1"></use></g></g><g><g><use xlink:href="#b1BQlohAg7" opacity="1" fill-opacity="0" stroke="#19b5fe" stroke-width="2" stroke-opacity="1"></use></g></g><g><g><use xlink:href="#a3A4Rv7rGm" opacity="1" fill-opacity="0" stroke="#19b5fe" stroke-width="2" stroke-opacity="1"></use></g></g><g><g><use xlink:href="#e1tktuR1fG" opacity="1" fill-opacity="0" stroke="#19b5fe" stroke-width="2" stroke-opacity="1"></use></g></g><g><use xlink:href="#d4qWhFJ3w" opacity="1" fill="#fbfbfb" fill-opacity="0.04"></use><g><use xlink:href="#d4qWhFJ3w" opacity="1" fill-opacity="0" stroke="#19b5fe" stroke-width="2" stroke-opacity="1"></use></g></g><g><g><use xlink:href="#d226roUxmQ" opacity="1" fill-opacity="0" stroke="#19b5fe" stroke-width="2" stroke-opacity="1"></use></g></g><g><g><use xlink:href="#c31ZcflEI" opacity="1" fill-opacity="0" stroke="#19b5fe" stroke-width="2" stroke-opacity="1"></use></g></g><g><g><use xlink:href="#bH0JlRa6v" opacity="1" fill-opacity="0" stroke="#19b5fe" stroke-width="2" stroke-opacity="1"></use></g></g><g><use xlink:href="#hlK1tLmg4" opacity="1" fill="#fbfbfb" fill-opacity="0.04"></use><g><use xlink:href="#hlK1tLmg4" opacity="1" fill-opacity="0" stroke="#19b5fe" stroke-width="2" stroke-opacity="1"></use></g></g><g><use xlink:href="#bgjYUM71e" opacity="1" fill="#fbfbfb" fill-opacity="0.04"></use><g><use xlink:href="#bgjYUM71e" opacity="1" fill-opacity="0" stroke="#19b5fe" stroke-width="2" stroke-opacity="1"></use></g></g><g><use xlink:href="#krXMaXIFM" opacity="1" fill="#fbfbfb" fill-opacity="0.04"></use><g><use xlink:href="#krXMaXIFM" opacity="1" fill-opacity="0" stroke="#19b5fe" stroke-width="2" stroke-opacity="1"></use></g></g><g><g><use xlink:href="#dcefATMvK" opacity="1" fill="#fbfbfb" fill-opacity="0.04"></use><g><use xlink:href="#dcefATMvK" opacity="1" fill-opacity="0" stroke="#19b5fe" stroke-width="2" stroke-opacity="1"></use></g></g><g><use xlink:href="#b3b5DidN6" opacity="1" fill="#fbfbfb" fill-opacity="0.04"></use><g><use xlink:href="#b3b5DidN6" opacity="1" fill-opacity="0" stroke="#19b5fe" stroke-width="2" stroke-opacity="1"></use></g></g><g><use xlink:href="#b1oMLKinlQ" opacity="1" fill="#fbfbfb" fill-opacity="0.04"></use><g><use xlink:href="#b1oMLKinlQ" opacity="1" fill-opacity="0" stroke="#19b5fe" stroke-width="2" stroke-opacity="1"></use></g></g></g><g><g><use xlink:href="#b1b3xIOtMc" opacity="1" fill="#fbfbfb" fill-opacity="0.04"></use><g><use xlink:href="#b1b3xIOtMc" opacity="1" fill-opacity="0" stroke="#19b5fe" stroke-width="2" stroke-opacity="1"></use></g></g><g><use xlink:href="#ctUo9QHTg" opacity="1" fill="#fbfbfb" fill-opacity="0.04"></use><g><use xlink:href="#ctUo9QHTg" opacity="1" fill-opacity="0" stroke="#19b5fe" stroke-width="2" stroke-opacity="1"></use></g></g><g><use xlink:href="#adVPUcnt9" opacity="1" fill="#fbfbfb" fill-opacity="0.04"></use><g><use xlink:href="#adVPUcnt9" opacity="1" fill-opacity="0" stroke="#19b5fe" stroke-width="2" stroke-opacity="1"></use></g></g></g><g><g><use xlink:href="#f5CERA1Dy" opacity="1" fill-opacity="0" stroke="#19b5fe" stroke-width="2" stroke-opacity="1"></use></g></g><g><g><use xlink:href="#a2aluo3g4Z" opacity="1" fill-opacity="0" stroke="#19b5fe" stroke-width="2" stroke-opacity="1"></use></g></g><g><g><use xlink:href="#h4l7sQuIhW" opacity="1" fill-opacity="0" stroke="#19b5fe" stroke-width="2" stroke-opacity="1"></use></g></g><g><g><use xlink:href="#a11MszGDJq" opacity="1" fill-opacity="0" stroke="#19b5fe" stroke-width="2" stroke-opacity="1"></use></g></g><g><g><use xlink:href="#a2KKGJAvj7" opacity="1" fill-opacity="0" stroke="#19b5fe" stroke-width="2" stroke-opacity="1"></use></g></g><g><g><use xlink:href="#a2QmzYZgqO" opacity="1" fill-opacity="0" stroke="#19b5fe" stroke-width="2" stroke-opacity="1"></use></g></g><g><g><use xlink:href="#a9oUyMjPV" opacity="1" fill-opacity="0" stroke="#19b5fe" stroke-width="2" stroke-opacity="1"></use></g></g><g><use xlink:href="#h5Kg79WQII" opacity="1" fill="#fbfbfb" fill-opacity="0.04"></use><g><use xlink:href="#h5Kg79WQII" opacity="1" fill-opacity="0" stroke="#19b5fe" stroke-width="2" stroke-opacity="1"></use></g></g><g><use xlink:href="#gVTmUpOuK" opacity="1" fill="#fbfbfb" fill-opacity="0.04"></use><g><use xlink:href="#gVTmUpOuK" opacity="1" fill-opacity="0" stroke="#19b5fe" stroke-width="2" stroke-opacity="1"></use></g></g><g><g><use xlink:href="#c4hiZH11YF" opacity="1" fill="#fbfbfb" fill-opacity="0.04"></use><g><use xlink:href="#c4hiZH11YF" opacity="1" fill-opacity="0" stroke="#19b5fe" stroke-width="2" stroke-opacity="1"></use></g></g><g><use xlink:href="#b35l4I3ygg" opacity="1" fill="#fbfbfb" fill-opacity="0.04"></use><g><use xlink:href="#b35l4I3ygg" opacity="1" fill-opacity="0" stroke="#19b5fe" stroke-width="2" stroke-opacity="1"></use></g></g></g><g><g><use xlink:href="#c2GTPunUpG" opacity="1" fill="#fbfbfb" fill-opacity="0.04"></use><g><use xlink:href="#c2GTPunUpG" opacity="1" fill-opacity="0" stroke="#19b5fe" stroke-width="2" stroke-opacity="1"></use></g></g><g><use xlink:href="#d2gA1wcwPw" opacity="1" fill="#fbfbfb" fill-opacity="0.04"></use><g><use xlink:href="#d2gA1wcwPw" opacity="1" fill-opacity="0" stroke="#19b5fe" stroke-width="2" stroke-opacity="1"></use></g></g></g><g><g><use xlink:href="#b1ZnWGXXi" opacity="1" fill="#fbfbfb" fill-opacity="0.04"></use><g><use xlink:href="#b1ZnWGXXi" opacity="1" fill-opacity="0" stroke="#19b5fe" stroke-width="2" stroke-opacity="1"></use></g></g><g><use xlink:href="#akDmpdNj0" opacity="1" fill="#fbfbfb" fill-opacity="0.04"></use><g><use xlink:href="#akDmpdNj0" opacity="1" fill-opacity="0" stroke="#19b5fe" stroke-width="2" stroke-opacity="1"></use></g></g></g><g><g><use xlink:href="#d1S2zveH7e" opacity="1" fill="#fbfbfb" fill-opacity="0.04"></use><g><use xlink:href="#d1S2zveH7e" opacity="1" fill-opacity="0" stroke="#19b5fe" stroke-width="2" stroke-opacity="1"></use></g></g><g><use xlink:href="#fd4Dievdv" opacity="1" fill="#fbfbfb" fill-opacity="0.04"></use><g><use xlink:href="#fd4Dievdv" opacity="1" fill-opacity="0" stroke="#19b5fe" stroke-width="2" stroke-opacity="1"></use></g></g></g><g><g><use xlink:href="#d2HXAmUdKn" opacity="1" fill="#fbfbfb" fill-opacity="0.04"></use><g><use xlink:href="#d2HXAmUdKn" opacity="1" fill-opacity="0" stroke="#19b5fe" stroke-width="2" stroke-opacity="1"></use></g></g><g><use xlink:href="#imthDakZe" opacity="1" fill="#fbfbfb" fill-opacity="0.04"></use><g><use xlink:href="#imthDakZe" opacity="1" fill-opacity="0" stroke="#19b5fe" stroke-width="2" stroke-opacity="1"></use></g></g></g><g><g><use xlink:href="#f7yAcGlKj" opacity="1" fill="#fbfbfb" fill-opacity="0.04"></use><g><use xlink:href="#f7yAcGlKj" opacity="1" fill-opacity="0" stroke="#19b5fe" stroke-width="2" stroke-opacity="1"></use></g></g><g><use xlink:href="#a9NTqxygR" opacity="1" fill="#fbfbfb" fill-opacity="0.04"></use><g><use xlink:href="#a9NTqxygR" opacity="1" fill-opacity="0" stroke="#19b5fe" stroke-width="2" stroke-opacity="1"></use></g></g></g><g><g><use xlink:href="#bbf6ee8ig" opacity="1" fill="#fbfbfb" fill-opacity="0.04"></use><g><use xlink:href="#bbf6ee8ig" opacity="1" fill-opacity="0" stroke="#19b5fe" stroke-width="2" stroke-opacity="1"></use></g></g><g><use xlink:href="#b1oC1yNyog" opacity="1" fill="#fbfbfb" fill-opacity="0.04"></use><g><use xlink:href="#b1oC1yNyog" opacity="1" fill-opacity="0" stroke="#19b5fe" stroke-width="2" stroke-opacity="1"></use></g></g></g><g><use xlink:href="#d2JTQbEuwN" opacity="1" fill="#fbfbfb" fill-opacity="0.04"></use><g><use xlink:href="#d2JTQbEuwN" opacity="1" fill-opacity="0" stroke="#19b5fe" stroke-width="2" stroke-opacity="1"></use></g></g><g><g><use xlink:href="#avDqoBfqR" opacity="1" fill-opacity="0" stroke="#19b5fe" stroke-width="2" stroke-opacity="1"></use></g></g><g><g><use xlink:href="#a1ZgxGt2fc" opacity="1" fill-opacity="0" stroke="#19b5fe" stroke-width="2" stroke-opacity="1"></use></g></g><g><use xlink:href="#a1huGG6RJp" opacity="1" fill="#fbfbfb" fill-opacity="0.04"></use><g><use xlink:href="#a1huGG6RJp" opacity="1" fill-opacity="0" stroke="#19b5fe" stroke-width="2" stroke-opacity="1"></use></g></g><g><use xlink:href="#aQ60G1cGF" opacity="1" fill="#fbfbfb" fill-opacity="0.04"></use><g><use xlink:href="#aQ60G1cGF" opacity="1" fill-opacity="0" stroke="#19b5fe" stroke-width="2" stroke-opacity="1"></use></g></g><g><use xlink:href="#cwoGogcK" opacity="1" fill="#fbfbfb" fill-opacity="0.04"></use><g><use xlink:href="#cwoGogcK" opacity="1" fill-opacity="0" stroke="#19b5fe" stroke-width="2" stroke-opacity="1"></use></g></g><g><g><use xlink:href="#dJ6DiHHLQ" opacity="1" fill-opacity="0" stroke="#19b5fe" stroke-width="2" stroke-opacity="1"></use></g></g><g><use xlink:href="#g32DhTs95" opacity="1" fill="#fbfbfb" fill-opacity="0.04"></use><g><use xlink:href="#g32DhTs95" opacity="1" fill-opacity="0" stroke="#19b5fe" stroke-width="2" stroke-opacity="1"></use></g></g><g><use xlink:href="#b3OVfM6uFA" opacity="1" fill="#fbfbfb" fill-opacity="0.04"></use><g><use xlink:href="#b3OVfM6uFA" opacity="1" fill-opacity="0" stroke="#19b5fe" stroke-width="2" stroke-opacity="1"></use></g></g><g><g><use xlink:href="#j1LICNJi4b" opacity="1" fill-opacity="0" stroke="#19b5fe" stroke-width="2" stroke-opacity="1"></use></g></g><g><g><use xlink:href="#a2523IIilE" opacity="1" fill-opacity="0" stroke="#19b5fe" stroke-width="2" stroke-opacity="1"></use></g></g><g><g><g><use xlink:href="#b1UA497u7W" opacity="1" fill-opacity="0" stroke="#19b5fe" stroke-width="2" stroke-opacity="1"></use></g></g><g><g><use xlink:href="#cfBJh7QcJ" opacity="1" fill-opacity="0" stroke="#19b5fe" stroke-width="2" stroke-opacity="1"></use></g></g><g><g><use xlink:href="#a2AM8Y32Cp" opacity="1" fill-opacity="0" stroke="#19b5fe" stroke-width="2" stroke-opacity="1"></use></g></g></g><g><use xlink:href="#b4uIoV0fML" opacity="1" fill="#fbfbfb" fill-opacity="0"></use><g><use xlink:href="#b4uIoV0fML" opacity="1" fill-opacity="0" stroke="#19b5fe" stroke-width="2" stroke-opacity="1"></use></g></g><g><use xlink:href="#e2jwfhB2o" opacity="1" fill="#fbfbfb" fill-opacity="0"></use><g><use xlink:href="#e2jwfhB2o" opacity="1" fill-opacity="0" stroke="#19b5fe" stroke-width="2" stroke-opacity="1"></use></g></g><g><use xlink:href="#b4q7U1rYG" opacity="1" fill="#fbfbfb" fill-opacity="0"></use><g><use xlink:href="#b4q7U1rYG" opacity="1" fill-opacity="0" stroke="#19b5fe" stroke-width="2" stroke-opacity="1"></use></g></g><g><use xlink:href="#b2eUbVemtm" opacity="1" fill="#fbfbfb" fill-opacity="0"></use><g><use xlink:href="#b2eUbVemtm" opacity="1" fill-opacity="0" stroke="#19b5fe" stroke-width="2" stroke-opacity="1"></use></g></g><g><use xlink:href="#a3iQqAXpOm" opacity="1" fill="#fbfbfb" fill-opacity="0.06"></use><g><use xlink:href="#a3iQqAXpOm" opacity="1" fill-opacity="0" stroke="#19b5fe" stroke-width="2" stroke-opacity="1"></use></g></g><g><use xlink:href="#bNqrvWq7q" opacity="1" fill="#fbfbfb" fill-opacity="0.04"></use><g><use xlink:href="#bNqrvWq7q" opacity="1" fill-opacity="0" stroke="#19b5fe" stroke-width="2" stroke-opacity="1"></use></g></g><g><g><use xlink:href="#a1HxcHYsP7" opacity="1" fill-opacity="0" stroke="#19b5fe" stroke-width="2" stroke-opacity="1"></use></g></g><g><g><use xlink:href="#f1kD8sFu1G" opacity="1" fill-opacity="0" stroke="#19b5fe" stroke-width="2" stroke-opacity="1"></use></g></g><g><g><use xlink:href="#iGMaoFgtR" opacity="1" fill-opacity="0" stroke="#19b5fe" stroke-width="2" stroke-opacity="1"></use></g></g><g><g><use xlink:href="#a6DwOekED1" opacity="1" fill-opacity="0" stroke="#19b5fe" stroke-width="2" stroke-opacity="1"></use></g></g><g><use xlink:href="#bYxZZIWo" opacity="1" fill="#fbfbfb" fill-opacity="0.04"></use><g><use xlink:href="#bYxZZIWo" opacity="1" fill-opacity="0" stroke="#19b5fe" stroke-width="2" stroke-opacity="1"></use></g></g><g><use xlink:href="#b1As7Buh9X" opacity="1" fill="#fbfbfb" fill-opacity="0.04"></use><g><use xlink:href="#b1As7Buh9X" opacity="1" fill-opacity="0" stroke="#19b5fe" stroke-width="2" stroke-opacity="1"></use></g></g><g><use xlink:href="#a2UDpTrFwB" opacity="1" fill="#fbfbfb" fill-opacity="0.04"></use><g><use xlink:href="#a2UDpTrFwB" opacity="1" fill-opacity="0" stroke="#19b5fe" stroke-width="2" stroke-opacity="1"></use></g></g><g><use xlink:href="#bJBNjhkY5" opacity="1" fill="#fbfbfb" fill-opacity="0.04"></use><g><use xlink:href="#bJBNjhkY5" opacity="1" fill-opacity="0" stroke="#19b5fe" stroke-width="2" stroke-opacity="1"></use></g></g></g></g></svg>