<?xml version="1.0" encoding="UTF-8" standalone="no"?>
<!DOCTYPE svg PUBLIC "-//W3C//DTD SVG 1.1//EN" "http://www.w3.org/Graphics/SVG/1.1/DTD/svg11.dtd">
<svg version="1.1" xmlns="http://www.w3.org/2000/svg" xmlns:xlink="http://www.w3.org/1999/xlink" preserveAspectRatio="xMidYMid meet" viewBox="0 0 734.13 250" width="734.13" height="250"><defs><path d="" id="b7y7QnTvM1"></path><path d="M552.69 167.78L508.61 167.78L499.49 176.9L562.67 176.9L552.69 167.78Z" id="a65qyfW8Fl"></path><path d="M559.48 176.9L502.68 176.9L502.68 208.25L559.48 208.25L559.48 176.9Z" id="e3ZizC9rLQ"></path><path d="M535.97 187.35L524.95 187.35L524.95 207.49L535.97 207.49L535.97 187.35Z" id="a1l5Tp0qk3"></path><path d="M550.41 188.3L542.24 188.3L542.24 199.51L550.41 199.51L550.41 188.3Z" id="a3kszVFWFY"></path><path d="M518.49 188.3L510.32 188.3L510.32 199.51L518.49 199.51L518.49 188.3Z" id="dDMzMVHPB"></path><path d="M493.6 108.32L436.41 108.32L436.41 208.25L493.6 208.25L493.6 108.32Z" id="bF7To5s4C"></path><path d="M36.58 208.25L626.31 208.25" id="b2hgP5lUm"></path><path d="M488.47 114.33L441.54 114.33L441.54 125.91L488.47 125.91L488.47 114.33Z" id="g2QrqESXDu"></path><path d="M488.47 132.56L441.54 132.56L441.54 144.15L488.47 144.15L488.47 132.56Z" id="aOyPXPRrG"></path><path d="M488.89 151.18L441.96 151.18L441.96 162.77L488.89 162.77L488.89 151.18Z" id="d1q1xKkKyf"></path><path d="M488.47 170.24L441.54 170.24L441.54 181.83L488.47 181.83L488.47 170.24Z" id="cRj26PZXC"></path><path d="M480.53 190.32L449.56 190.32L449.56 208.25L480.53 208.25L480.53 190.32Z" id="bvXB1AQvr"></path><path d="" id="cUBBIQ0W"></path><path d="M480.53 204.19L493.6 204.19" id="aN4hmGF6K"></path><path d="M436.41 204.19L449.56 204.19" id="a11t6BC5J6"></path><path d="M465.01 207.49L465.01 190.32" id="b1T12egWX"></path><path d="M488.47 103.31L441.54 103.31L441.54 108.32L488.47 108.32L488.47 103.31Z" id="elSkOM8ky"></path><path d="M493.6 136.36L502.68 136.36L502.68 151.18L527.45 151.18L527.45 163.91" id="c2KlmFBnpt"></path><path d="M403.2 144.15L403.2 136.36L436.41 136.36" id="f5oWS52RZV"></path><path d="M430.18 144.15L359.31 144.15L403.2 144.15" id="jYHAI9Dl3"></path><path d="M427.27 144.77L362.22 144.77L362.22 207.49L427.27 207.49L427.27 144.77Z" id="cbeJmWGnI"></path><path d="" id="b31uQqONbR"></path><path d="M362.22 152.72L371.74 152.72L427.27 152.72" id="b1c72r4shs"></path><path d="M362.22 178.48L371.74 178.48L427.27 178.48" id="dnGcSlfTU"></path><path d="M420.69 160.62L407.92 160.62L407.92 173.39L420.69 173.39L420.69 160.62Z" id="b1yCgAR50F"></path><path d="M401.46 160.62L388.69 160.62L388.69 173.39L401.46 173.39L401.46 160.62Z" id="b5LnOAOTT"></path><path d="M381.78 160.62L369.01 160.62L369.01 173.39L381.78 173.39L381.78 160.62Z" id="c1vhdzDHS0"></path><path d="M420.69 183.5L407.92 183.5L407.92 196.26L420.69 196.26L420.69 183.5Z" id="a2H5yqnDEl"></path><path d="M381.47 183.5L368.7 183.5L368.7 196.26L381.47 196.26L381.47 183.5Z" id="e57WYCReRa"></path><path d="M401.13 183.5L388.36 183.5L388.36 207.49L401.13 207.49L401.13 183.5Z" id="dhgWehG3Z"></path><path d="M401.46 204.19L426.92 204.19" id="a1zVFBDoI"></path><path d="M362.22 204.19L387.85 204.19" id="dHlf4W0k4"></path><path d="M410.65 155.91L427.27 155.91" id="aD9yLFrOH"></path><path d="M398.34 155.91L406.25 155.91" id="bed9yvucn"></path><path d="" id="dk8reKZcM"></path><path d="M361.46 155.91L369.36 155.91" id="b21EsXLSdx"></path><path d="M379.34 155.91L393.33 155.91" id="bqGl0ieeq"></path><path d="M351.57 187.98L288.39 187.98L288.39 192.99L351.57 192.99L351.57 187.98Z" id="ayWDiFwGp"></path><path d="M349.97 193.49L290.09 193.49L290.09 208.25L349.97 208.25L349.97 193.49Z" id="bauecrqN7"></path><path d="M351.57 167.71L288.39 167.71L288.39 172.72L351.57 172.72L351.57 167.71Z" id="cQumWho6U"></path><path d="M349.97 173.21L290.09 173.21L290.09 187.98L349.97 187.98L349.97 173.21Z" id="aXKkoj7RN"></path><path d="M351.57 147.23L288.39 147.23L288.39 152.24L351.57 152.24L351.57 147.23Z" id="bhdWvODBu"></path><path d="M349.97 152.73L290.09 152.73L290.09 167.5L349.97 167.5L349.97 152.73Z" id="e5P2qTPkoM"></path><path d="M351.57 126.96L288.39 126.96L288.39 131.97L351.57 131.97L351.57 126.96Z" id="bVwnlUYG6"></path><path d="M349.97 132.46L290.09 132.46L290.09 147.23L349.97 147.23L349.97 132.46Z" id="d6vWwQwXx3"></path><path d="M351.57 105.9L288.39 105.9L288.39 110.91L351.57 110.91L351.57 105.9Z" id="c1tIomiL7"></path><path d="M349.97 111.41L290.09 111.41L290.09 126.17L349.97 126.17L349.97 111.41Z" id="a2OCE9zq5"></path><path d="M350.81 100.16L289.86 100.16L289.86 105.48L350.81 105.48L350.81 100.16Z" id="a1eTHOgPrn"></path><path d="M348.83 95.6L327.55 95.6L327.55 99.56L348.83 99.56L348.83 95.6Z" id="b3oGuRYUu"></path><path d="M343.97 99.56L343.97 95.6" id="c144DzG0g6"></path><path d="M335 99.56L335 95.6" id="c1DblOJ0cV"></path><path d="M210.78 118.27L284.65 118.27" id="a2qHT6389v"></path><path d="M280.7 118.73L213.97 118.73L213.97 208.25L280.7 208.25L280.7 118.73Z" id="b1ijnroN3i"></path><path d="M213.97 124.96L280.7 124.96" id="f1lTQz1my4"></path><path d="M213.97 152.92L280.7 152.62" id="d6cbB679v"></path><path d="M214.43 178.46L280.7 178.46" id="a2Iiyrgy37"></path><path d="M254.71 183.63L239.51 183.63L239.51 208.25L254.71 208.25L254.71 183.63Z" id="b1eMrRpQQK"></path><path d="M274.01 182.87L261.24 182.87L261.24 196.55L274.01 196.55L274.01 182.87Z" id="aqBRvRaOd"></path><path d="M233.81 182.87L221.04 182.87L221.04 196.55L233.81 196.55L233.81 182.87Z" id="a420gHksaE"></path><path d="M274.01 160.3L261.24 160.3L261.24 173.98L274.01 173.98L274.01 160.3Z" id="h1797Fz12i"></path><path d="M233.81 160.3L221.04 160.3L221.04 173.98L233.81 173.98L233.81 160.3Z" id="d2uOKFDPnh"></path><path d="M254.1 160.3L241.33 160.3L241.33 173.98L254.1 173.98L254.1 160.3Z" id="a1bMze4d0N"></path><path d="M273.59 133.55L260.83 133.55L260.83 147.23L273.59 147.23L273.59 133.55Z" id="jB7u9SDfH"></path><path d="M233.39 133.55L220.62 133.55L220.62 147.23L233.39 147.23L233.39 133.55Z" id="c5VbsxeFW"></path><path d="M253.68 133.55L240.92 133.55L240.92 147.23L253.68 147.23L253.68 133.55Z" id="e1uLyS8ihw"></path><path d="M238.75 129.37L213.97 129.37" id="hIEA9wCJL"></path><path d="M256.99 129.37L245.59 129.37" id="b1YkHewndz"></path><path d="M280.09 128.91L264.74 128.91" id="c68gQq55q"></path><path d="M229.17 155.96L255.01 155.66" id="b3rsJOUaj"></path><path d="M222.18 155.96L214.43 155.96" id="eKc2KoRMF"></path><path d="M255.01 203.84L280.09 203.84" id="b92PpSf3g0"></path><path d="M213.97 203.84L239.51 203.84" id="ce9rw7a43"></path><path d="M204.77 109.96L157.85 109.96L157.85 208.25L204.77 208.25L204.77 109.96Z" id="a1g4PwesfN"></path><path d="M208.31 103.43L154.5 103.43L154.5 109.96L208.31 109.96L208.31 103.43Z" id="b4bfbP2drO"></path><path d="M198.12 115.28L187.03 115.28L187.03 128.5L198.12 128.5L198.12 115.28Z" id="acUFg0XYw"></path><path d="M200.4 128.5L184.75 128.5L184.75 131.85L200.4 131.85L200.4 128.5Z" id="a1pnLbbLqB"></path><path d="M176.16 115.28L165.07 115.28L165.07 128.5L176.16 128.5L176.16 115.28Z" id="a2S54GxPW"></path><path d="M178.44 128.5L162.79 128.5L162.79 131.85L178.44 131.85L178.44 128.5Z" id="f7eYqh56p"></path><path d="M198.12 139.4L187.03 139.4L187.03 152.62L198.12 152.62L198.12 139.4Z" id="c5BxMyu3l"></path><path d="M200.4 152.62L184.75 152.62L184.75 155.96L200.4 155.96L200.4 152.62Z" id="e1MApC9rng"></path><path d="M176.16 139.4L165.07 139.4L165.07 152.62L176.16 152.62L176.16 139.4Z" id="c6PD5yezsu"></path><path d="M178.44 152.62L162.79 152.62L162.79 155.96L178.44 155.96L178.44 152.62Z" id="a7vUR8mkxS"></path><path d="M176.16 163.49L165.07 163.49L165.07 176.71L176.16 176.71L176.16 163.49Z" id="bUELLNE8Y"></path><path d="M178.44 176.71L162.79 176.71L162.79 180.06L178.44 180.06L178.44 176.71Z" id="a1Fhw7EvDw"></path><path d="M198.12 163.49L187.03 163.49L187.03 176.71L198.12 176.71L198.12 163.49Z" id="a5nfsjcWpP"></path><path d="M200.4 176.71L184.75 176.71L184.75 180.06L200.4 180.06L200.4 176.71Z" id="f2qyC5dNz"></path><path d="M198.12 187.28L187.03 187.28L187.03 200.5L198.12 200.5L198.12 187.28Z" id="e1IM4N6wnP"></path><path d="M200.4 200.5L184.75 200.5L184.75 203.84L200.4 203.84L200.4 200.5Z" id="cmQdnjQC1"></path><path d="M176.24 187.28L165.75 187.28L165.75 208.25L176.24 208.25L176.24 187.28Z" id="e2mCVTn3vP"></path><path d="M139.87 164.21L139.87 152.66L153.39 152.66" id="a8qyiLN4V"></path><path d="M117.83 164.21L117.83 159.11L139.87 159.11" id="azjYVyy7Z"></path><path d="M150.16 177.59L93.36 177.59L93.36 207.73L150.16 207.73L150.16 177.59Z" id="anjjt5oai"></path><path d="M93.36 182.83L64.48 182.83L64.48 207.45L93.36 207.45L93.36 182.83Z" id="a5nCNjDms"></path><path d="M88.49 189.59L69.19 189.59L69.19 207.45L88.49 207.45L88.49 189.59Z" id="b1mKbbi9O"></path><path d="M64.48 186.1L93.36 186.1" id="a1QKwgnA03"></path><path d="M153.38 172.72L90.15 172.72L90.15 177.59L153.38 177.59L153.38 172.72Z" id="a3ZmwOxZf"></path><path d="M140.53 168.77L102.99 168.77L102.99 172.72L140.53 172.72L140.53 168.77Z" id="aLeWOUgx2"></path><path d="M566.42 188.3L566.42 146.29L609.36 146.29L609.36 203.84" id="b4d1rwlpIy"></path><path d="" id="bEReYrtD"></path><path d="M498.66 136.36L514.4 117.12L526.02 117.12L598.22 33.01L654.46 84.69" id="bLW7aIKWU"></path><path d="M514.4 117.12L534.89 147.26L526.02 117.12" id="aK1YpNPcr"></path><path d="M616.71 140.26L587.89 72.79L623.05 75.83L598.22 33.01" id="g1Oyyd2CMw"></path><path d="M504.86 3.62L506.11 3.93L507.31 4.34L508.46 4.86L509.55 5.47L510.58 6.18L511.53 6.98L512.41 7.86L513.21 8.82L513.92 9.84L514.54 10.93L515.05 12.08L515.47 13.29L515.63 13.98L516.49 13.8L517.8 13.71L519.11 13.8L520.37 14.06L521.56 14.47L522.67 15.03L523.7 15.72L524.63 16.54L525.44 17.47L526.14 18.49L526.69 19.61L527.11 20.8L527.37 22.05L527.45 23.36L527.37 24.67L527.11 25.93L526.69 27.12L526.14 28.23L525.44 29.26L524.63 30.19L523.7 31L522.67 31.7L521.56 32.26L520.37 32.67L519.11 32.93L517.8 33.01L516.49 32.93L515.24 32.67L514.05 32.26L512.93 31.7L511.91 31L510.98 30.19L510.16 29.26L509.77 28.68L509.55 28.83L508.46 29.44L507.31 29.96L506.11 30.37L504.86 30.68L503.57 30.86L502.24 30.92L500.92 30.86L499.63 30.68L498.38 30.37L497.18 29.96L496.03 29.44L494.94 28.83L493.91 28.12L493.88 28.09L493.77 28.27L492.94 29.24L491.97 30.07L490.88 30.74L489.69 31.25L488.41 31.56L487.06 31.67L485.72 31.56L484.44 31.25L483.25 30.74L482.16 30.07L481.19 29.24L480.36 28.27L479.68 27.18L479.18 25.99L478.86 24.71L478.75 23.36L478.86 22.02L479.18 20.74L479.68 19.55L480.36 18.46L481.19 17.49L482.16 16.66L483.25 15.98L484.44 15.48L485.72 15.16L487.06 15.05L488.41 15.16L488.62 15.22L488.72 14.53L489.02 13.29L489.43 12.08L489.95 10.93L490.57 9.84L491.28 8.82L492.08 7.86L492.95 6.98L493.91 6.18L494.94 5.47L496.03 4.86L497.18 4.34L498.38 3.93L499.63 3.62L500.92 3.44L502.24 3.38L503.57 3.44L504.86 3.62Z" id="g2kqCHCLbE"></path><path d="M390.86 42.3L392.06 42.72L393.21 43.24L394.3 43.85L395.33 44.56L396.28 45.36L397.16 46.24L397.96 47.2L398.67 48.22L399.29 49.31L399.81 50.46L400.22 51.66L400.39 52.35L401.24 52.18L402.55 52.09L403.86 52.18L405.12 52.43L406.31 52.85L407.42 53.41L408.45 54.1L409.38 54.92L410.19 55.85L410.89 56.87L411.45 57.99L411.86 59.18L412.12 60.43L412.21 61.74L412.12 63.05L411.86 64.31L411.45 65.5L410.89 66.61L410.19 67.64L409.38 68.56L408.45 69.38L407.42 70.07L406.31 70.63L405.12 71.05L403.86 71.3L402.55 71.39L401.24 71.3L399.99 71.05L398.8 70.63L397.68 70.07L396.66 69.38L395.73 68.56L394.91 67.64L394.52 67.05L394.3 67.2L393.21 67.82L392.06 68.34L390.86 68.75L389.61 69.05L388.32 69.24L386.99 69.3L385.67 69.24L384.38 69.05L383.13 68.75L381.93 68.34L380.78 67.82L379.69 67.2L378.66 66.49L378.63 66.47L378.52 66.65L377.69 67.62L376.72 68.45L375.63 69.12L374.44 69.63L373.16 69.94L371.81 70.05L370.47 69.94L369.19 69.63L368 69.12L366.91 68.45L365.94 67.62L365.11 66.65L364.43 65.56L363.93 64.37L363.61 63.09L363.5 61.74L363.61 60.39L363.93 59.12L364.43 57.92L365.11 56.84L365.94 55.87L366.91 55.04L368 54.36L369.19 53.86L370.47 53.54L371.81 53.43L373.16 53.54L373.37 53.59L373.47 52.91L373.77 51.66L374.18 50.46L374.7 49.31L375.32 48.22L376.03 47.2L376.83 46.24L377.71 45.36L378.66 44.56L379.69 43.85L380.78 43.24L381.93 42.72L383.13 42.3L384.38 42L385.67 41.82L386.99 41.75L388.32 41.82L389.61 42L389.61 42L390.86 42.3Z" id="a8oxToKbZ"></path><path d="M160.85 20.65L162.05 21.06L163.2 21.58L164.29 22.19L165.32 22.9L166.27 23.7L167.15 24.58L167.95 25.54L168.66 26.56L169.28 27.65L169.8 28.8L170.21 30L170.38 30.7L171.24 30.52L172.55 30.43L173.85 30.52L175.11 30.78L176.3 31.19L177.42 31.75L178.44 32.44L179.37 33.26L180.18 34.19L180.88 35.21L181.44 36.33L181.85 37.52L182.11 38.77L182.2 40.08L182.11 41.39L181.85 42.65L181.44 43.84L180.88 44.95L180.18 45.98L179.37 46.91L178.44 47.72L177.42 48.42L176.3 48.97L175.11 49.39L173.85 49.65L172.55 49.73L171.24 49.65L169.98 49.39L168.79 48.97L167.68 48.42L166.65 47.72L165.72 46.91L164.91 45.98L164.51 45.4L164.29 45.55L163.2 46.16L162.05 46.68L160.85 47.09L159.6 47.4L158.31 47.58L156.99 47.64L155.66 47.58L154.37 47.4L153.12 47.09L151.92 46.68L150.77 46.16L149.68 45.55L148.65 44.84L148.62 44.81L148.51 44.99L147.68 45.96L146.71 46.79L145.62 47.46L144.43 47.97L143.15 48.28L141.81 48.39L140.46 48.28L139.18 47.97L137.99 47.46L136.9 46.79L135.93 45.96L135.1 44.99L134.42 43.9L133.92 42.71L133.61 41.43L133.5 40.08L133.61 38.74L133.92 37.46L134.42 36.27L135.1 35.18L135.93 34.21L136.9 33.38L137.99 32.7L139.18 32.2L140.46 31.88L141.81 31.77L143.15 31.88L143.36 31.93L143.46 31.25L143.76 30L144.18 28.8L144.69 27.65L145.31 26.56L146.02 25.54L146.82 24.58L147.7 23.7L148.65 22.9L149.68 22.19L150.77 21.58L151.92 21.06L153.12 20.65L154.37 20.34L155.66 20.16L156.99 20.1L158.31 20.16L159.6 20.34L159.6 20.34L160.85 20.65Z" id="b3lBgrRrdo"></path><path d="M327.98 -44.56L329.19 -44.15L330.34 -43.63L331.43 -43.01L332.45 -42.3L333.41 -41.5L334.29 -40.62L335.09 -39.67L335.8 -38.64L336.41 -37.55L336.93 -36.4L337.34 -35.2L337.51 -34.51L338.37 -34.68L339.68 -34.77L340.99 -34.68L342.24 -34.43L343.43 -34.01L344.55 -33.45L345.57 -32.76L346.5 -31.94L347.32 -31.02L348.01 -29.99L348.57 -28.88L348.98 -27.69L349.24 -26.43L349.33 -25.12L349.24 -23.81L348.98 -22.56L348.57 -21.37L348.01 -20.25L347.32 -19.23L346.5 -18.3L345.57 -17.48L344.55 -16.79L343.43 -16.23L342.24 -15.81L340.99 -15.56L339.68 -15.47L338.37 -15.56L337.11 -15.81L335.92 -16.23L334.81 -16.79L333.78 -17.48L332.85 -18.3L332.04 -19.23L331.64 -19.81L331.43 -19.66L330.34 -19.04L329.19 -18.52L327.98 -18.11L326.74 -17.81L325.44 -17.62L324.12 -17.56L322.79 -17.62L321.5 -17.81L320.25 -18.11L319.05 -18.52L317.9 -19.04L316.81 -19.66L315.79 -20.37L315.76 -20.39L315.64 -20.22L314.81 -19.25L313.84 -18.42L312.76 -17.74L311.56 -17.24L310.29 -16.92L308.94 -16.81L307.59 -16.92L306.31 -17.24L305.12 -17.74L304.03 -18.42L303.06 -19.25L302.23 -20.22L301.56 -21.3L301.05 -22.5L300.74 -23.77L300.63 -25.12L300.74 -26.47L301.05 -27.75L301.56 -28.94L302.23 -30.03L303.06 -31L304.03 -31.83L305.12 -32.5L306.31 -33.01L307.59 -33.32L308.94 -33.43L310.29 -33.32L310.5 -33.27L310.59 -33.95L310.9 -35.2L311.31 -36.4L311.83 -37.55L312.44 -38.64L313.15 -39.67L313.95 -40.62L314.83 -41.5L315.79 -42.3L316.81 -43.01L317.9 -43.63L319.05 -44.15L320.25 -44.56L321.5 -44.86L322.79 -45.05L324.12 -45.11L325.44 -45.05L326.74 -44.86L326.74 -44.86L327.98 -44.56Z" id="ftEqK8bkG"></path><path d="M140.53 188.61L132.89 188.61L132.89 207.45L140.53 207.45L140.53 188.61Z" id="de2PeAq41"></path><path d="M123.16 187.28L110.39 187.28L110.39 200.95L123.16 200.95L123.16 187.28Z" id="gPGvF5a2Y"></path><path d="" id="a1HxcHYsP7"></path><path d="" id="f1kD8sFu1G"></path><path d="" id="iGMaoFgtR"></path><path d="" id="a6DwOekED1"></path><path d="M584.61 153.91L571.84 153.91L571.84 166.68L584.61 166.68L584.61 153.91Z" id="h3h5JD4uVU"></path><path d="M604.91 153.91L592.14 153.91L592.14 166.68L604.91 166.68L604.91 153.91Z" id="e5GRNSVci"></path><path d="M584.61 171.19L571.84 171.19L571.84 183.96L584.61 183.96L584.61 171.19Z" id="b40yPlkKi"></path><path d="M604.91 171.19L592.14 171.19L592.14 183.96L604.91 183.96L604.91 171.19Z" id="hFoCBsJA8"></path></defs><g><g><g><g><use xlink:href="#b7y7QnTvM1" opacity="1" fill-opacity="0" stroke="#19b5fe" stroke-width="2" stroke-opacity="1"></use></g></g><g><g><use xlink:href="#a65qyfW8Fl" opacity="1" fill-opacity="0" stroke="#19b5fe" stroke-width="2" stroke-opacity="1"></use></g></g><g><use xlink:href="#e3ZizC9rLQ" opacity="1" fill="#fafafa" fill-opacity="0"></use><g><use xlink:href="#e3ZizC9rLQ" opacity="1" fill-opacity="0" stroke="#19b5fe" stroke-width="2" stroke-opacity="1"></use></g></g><g><use xlink:href="#a1l5Tp0qk3" opacity="1" fill="#fbfbfb" fill-opacity="0"></use><g><use xlink:href="#a1l5Tp0qk3" opacity="1" fill-opacity="0" stroke="#19b5fe" stroke-width="2" stroke-opacity="1"></use></g></g><g><use xlink:href="#a3kszVFWFY" opacity="1" fill="#fbfbfb" fill-opacity="0.04"></use><g><use xlink:href="#a3kszVFWFY" opacity="1" fill-opacity="0" stroke="#19b5fe" stroke-width="2" stroke-opacity="1"></use></g></g><g><use xlink:href="#dDMzMVHPB" opacity="1" fill="#fbfbfb" fill-opacity="0.04"></use><g><use xlink:href="#dDMzMVHPB" opacity="1" fill-opacity="0" stroke="#19b5fe" stroke-width="2" stroke-opacity="1"></use></g></g><g><use xlink:href="#bF7To5s4C" opacity="1" fill="#fbfbfb" fill-opacity="0.04"></use><g><use xlink:href="#bF7To5s4C" opacity="1" fill-opacity="0" stroke="#19b5fe" stroke-width="2" stroke-opacity="1"></use></g></g><g><g><use xlink:href="#b2hgP5lUm" opacity="1" fill-opacity="0" stroke="#19b5fe" stroke-width="2" stroke-opacity="1"></use></g></g><g><use xlink:href="#g2QrqESXDu" opacity="1" fill="#fbfbfb" fill-opacity="0.04"></use><g><use xlink:href="#g2QrqESXDu" opacity="1" fill-opacity="0" stroke="#19b5fe" stroke-width="2" stroke-opacity="1"></use></g></g><g><use xlink:href="#aOyPXPRrG" opacity="1" fill="#fbfbfb" fill-opacity="0.04"></use><g><use xlink:href="#aOyPXPRrG" opacity="1" fill-opacity="0" stroke="#19b5fe" stroke-width="2" stroke-opacity="1"></use></g></g><g><use xlink:href="#d1q1xKkKyf" opacity="1" fill="#fbfbfb" fill-opacity="0.04"></use><g><use xlink:href="#d1q1xKkKyf" opacity="1" fill-opacity="0" stroke="#19b5fe" stroke-width="2" stroke-opacity="1"></use></g></g><g><use xlink:href="#cRj26PZXC" opacity="1" fill="#fbfbfb" fill-opacity="0.04"></use><g><use xlink:href="#cRj26PZXC" opacity="1" fill-opacity="0" stroke="#19b5fe" stroke-width="2" stroke-opacity="1"></use></g></g><g><use xlink:href="#bvXB1AQvr" opacity="1" fill="#fbfbfb" fill-opacity="0.04"></use><g><use xlink:href="#bvXB1AQvr" opacity="1" fill-opacity="0" stroke="#19b5fe" stroke-width="2" stroke-opacity="1"></use></g></g><g><g><use xlink:href="#cUBBIQ0W" opacity="1" fill-opacity="0" stroke="#19b5fe" stroke-width="2" stroke-opacity="1"></use></g></g><g><g><use xlink:href="#aN4hmGF6K" opacity="1" fill-opacity="0" stroke="#19b5fe" stroke-width="2" stroke-opacity="1"></use></g></g><g><g><use xlink:href="#a11t6BC5J6" opacity="1" fill-opacity="0" stroke="#19b5fe" stroke-width="2" stroke-opacity="1"></use></g></g><g><g><use xlink:href="#b1T12egWX" opacity="1" fill-opacity="0" stroke="#19b5fe" stroke-width="2" stroke-opacity="1"></use></g></g><g><use xlink:href="#elSkOM8ky" opacity="1" fill="#fbfbfb" fill-opacity="0.04"></use><g><use xlink:href="#elSkOM8ky" opacity="1" fill-opacity="0" stroke="#19b5fe" stroke-width="2" stroke-opacity="1"></use></g></g><g><g><use xlink:href="#c2KlmFBnpt" opacity="1" fill-opacity="0" stroke="#19b5fe" stroke-width="2" stroke-opacity="1"></use></g></g><g><g><use xlink:href="#f5oWS52RZV" opacity="1" fill-opacity="0" stroke="#19b5fe" stroke-width="2" stroke-opacity="1"></use></g></g><g><g><use xlink:href="#jYHAI9Dl3" opacity="1" fill-opacity="0" stroke="#19b5fe" stroke-width="2" stroke-opacity="1"></use></g></g><g><use xlink:href="#cbeJmWGnI" opacity="1" fill="#fbfbfb" fill-opacity="0.04"></use><g><use xlink:href="#cbeJmWGnI" opacity="1" fill-opacity="0" stroke="#19b5fe" stroke-width="2" stroke-opacity="1"></use></g></g><g><g><use xlink:href="#b31uQqONbR" opacity="1" fill-opacity="0" stroke="#19b5fe" stroke-width="2" stroke-opacity="1"></use></g></g><g><g><use xlink:href="#b1c72r4shs" opacity="1" fill-opacity="0" stroke="#19b5fe" stroke-width="2" stroke-opacity="1"></use></g></g><g><g><use xlink:href="#dnGcSlfTU" opacity="1" fill-opacity="0" stroke="#19b5fe" stroke-width="2" stroke-opacity="1"></use></g></g><g><use xlink:href="#b1yCgAR50F" opacity="1" fill="#fbfbfb" fill-opacity="0.04"></use><g><use xlink:href="#b1yCgAR50F" opacity="1" fill-opacity="0" stroke="#19b5fe" stroke-width="2" stroke-opacity="1"></use></g></g><g><use xlink:href="#b5LnOAOTT" opacity="1" fill="#fbfbfb" fill-opacity="0.04"></use><g><use xlink:href="#b5LnOAOTT" opacity="1" fill-opacity="0" stroke="#19b5fe" stroke-width="2" stroke-opacity="1"></use></g></g><g><use xlink:href="#c1vhdzDHS0" opacity="1" fill="#fbfbfb" fill-opacity="0.04"></use><g><use xlink:href="#c1vhdzDHS0" opacity="1" fill-opacity="0" stroke="#19b5fe" stroke-width="2" stroke-opacity="1"></use></g></g><g><use xlink:href="#a2H5yqnDEl" opacity="1" fill="#fbfbfb" fill-opacity="0.04"></use><g><use xlink:href="#a2H5yqnDEl" opacity="1" fill-opacity="0" stroke="#19b5fe" stroke-width="2" stroke-opacity="1"></use></g></g><g><use xlink:href="#e57WYCReRa" opacity="1" fill="#fbfbfb" fill-opacity="0.04"></use><g><use xlink:href="#e57WYCReRa" opacity="1" fill-opacity="0" stroke="#19b5fe" stroke-width="2" stroke-opacity="1"></use></g></g><g><use xlink:href="#dhgWehG3Z" opacity="1" fill="#fbfbfb" fill-opacity="0.04"></use><g><use xlink:href="#dhgWehG3Z" opacity="1" fill-opacity="0" stroke="#19b5fe" stroke-width="2" stroke-opacity="1"></use></g></g><g><g><use xlink:href="#a1zVFBDoI" opacity="1" fill-opacity="0" stroke="#19b5fe" stroke-width="2" stroke-opacity="1"></use></g></g><g><g><use xlink:href="#dHlf4W0k4" opacity="1" fill-opacity="0" stroke="#19b5fe" stroke-width="2" stroke-opacity="1"></use></g></g><g><g><use xlink:href="#aD9yLFrOH" opacity="1" fill-opacity="0" stroke="#19b5fe" stroke-width="2" stroke-opacity="1"></use></g></g><g><g><use xlink:href="#bed9yvucn" opacity="1" fill-opacity="0" stroke="#19b5fe" stroke-width="2" stroke-opacity="1"></use></g></g><g><g><use xlink:href="#dk8reKZcM" opacity="1" fill-opacity="0" stroke="#19b5fe" stroke-width="2" stroke-opacity="1"></use></g></g><g><g><use xlink:href="#b21EsXLSdx" opacity="1" fill-opacity="0" stroke="#19b5fe" stroke-width="2" stroke-opacity="1"></use></g></g><g><g><use xlink:href="#bqGl0ieeq" opacity="1" fill-opacity="0" stroke="#19b5fe" stroke-width="2" stroke-opacity="1"></use></g></g><g><g><g></g><use xlink:href="#ayWDiFwGp" opacity="1" fill="#fbfbfb" fill-opacity="0.04"></use><g><use xlink:href="#ayWDiFwGp" opacity="1" fill-opacity="0" stroke="#19b5fe" stroke-width="2" stroke-opacity="1"></use></g></g><g><g></g><use xlink:href="#bauecrqN7" opacity="1" fill="#fbfbfb" fill-opacity="0.04"></use><g><use xlink:href="#bauecrqN7" opacity="1" fill-opacity="0" stroke="#19b5fe" stroke-width="2" stroke-opacity="1"></use></g></g></g><g><g><g></g><use xlink:href="#cQumWho6U" opacity="1" fill="#fbfbfb" fill-opacity="0.04"></use><g><use xlink:href="#cQumWho6U" opacity="1" fill-opacity="0" stroke="#19b5fe" stroke-width="2" stroke-opacity="1"></use></g></g><g><g></g><use xlink:href="#aXKkoj7RN" opacity="1" fill="#fbfbfb" fill-opacity="0.04"></use><g><use xlink:href="#aXKkoj7RN" opacity="1" fill-opacity="0" stroke="#19b5fe" stroke-width="2" stroke-opacity="1"></use></g></g></g><g><g><g></g><use xlink:href="#bhdWvODBu" opacity="1" fill="#fbfbfb" fill-opacity="0.04"></use><g><use xlink:href="#bhdWvODBu" opacity="1" fill-opacity="0" stroke="#19b5fe" stroke-width="2" stroke-opacity="1"></use></g></g><g><g></g><use xlink:href="#e5P2qTPkoM" opacity="1" fill="#fbfbfb" fill-opacity="0.04"></use><g><use xlink:href="#e5P2qTPkoM" opacity="1" fill-opacity="0" stroke="#19b5fe" stroke-width="2" stroke-opacity="1"></use></g></g></g><g><g><g></g><use xlink:href="#bVwnlUYG6" opacity="1" fill="#fbfbfb" fill-opacity="0.04"></use><g><use xlink:href="#bVwnlUYG6" opacity="1" fill-opacity="0" stroke="#19b5fe" stroke-width="2" stroke-opacity="1"></use></g></g><g><g></g><use xlink:href="#d6vWwQwXx3" opacity="1" fill="#fbfbfb" fill-opacity="0.04"></use><g><use xlink:href="#d6vWwQwXx3" opacity="1" fill-opacity="0" stroke="#19b5fe" stroke-width="2" stroke-opacity="1"></use></g></g></g><g><g><g></g><use xlink:href="#c1tIomiL7" opacity="1" fill="#fbfbfb" fill-opacity="0.04"></use><g><use xlink:href="#c1tIomiL7" opacity="1" fill-opacity="0" stroke="#19b5fe" stroke-width="2" stroke-opacity="1"></use></g></g><g><g></g><use xlink:href="#a2OCE9zq5" opacity="1" fill="#fbfbfb" fill-opacity="0.04"></use><g><use xlink:href="#a2OCE9zq5" opacity="1" fill-opacity="0" stroke="#19b5fe" stroke-width="2" stroke-opacity="1"></use></g></g></g><g><g></g><use xlink:href="#a1eTHOgPrn" opacity="1" fill="#fbfbfb" fill-opacity="0.04"></use><g><use xlink:href="#a1eTHOgPrn" opacity="1" fill-opacity="0" stroke="#19b5fe" stroke-width="2" stroke-opacity="1"></use></g></g><g><use xlink:href="#b3oGuRYUu" opacity="1" fill="#fbfbfb" fill-opacity="0.04"></use><g><use xlink:href="#b3oGuRYUu" opacity="1" fill-opacity="0" stroke="#19b5fe" stroke-width="2" stroke-opacity="1"></use></g></g><g><g><use xlink:href="#c144DzG0g6" opacity="1" fill-opacity="0" stroke="#19b5fe" stroke-width="2" stroke-opacity="1"></use></g></g><g><g><use xlink:href="#c1DblOJ0cV" opacity="1" fill-opacity="0" stroke="#19b5fe" stroke-width="2" stroke-opacity="1"></use></g></g><g><g><use xlink:href="#a2qHT6389v" opacity="1" fill-opacity="0" stroke="#19b5fe" stroke-width="2" stroke-opacity="1"></use></g></g><g><use xlink:href="#b1ijnroN3i" opacity="1" fill="#fbfbfb" fill-opacity="0.04"></use><g><use xlink:href="#b1ijnroN3i" opacity="1" fill-opacity="0" stroke="#19b5fe" stroke-width="2" stroke-opacity="1"></use></g></g><g><g><use xlink:href="#f1lTQz1my4" opacity="1" fill-opacity="0" stroke="#19b5fe" stroke-width="2" stroke-opacity="1"></use></g></g><g><g><use xlink:href="#d6cbB679v" opacity="1" fill-opacity="0" stroke="#19b5fe" stroke-width="2" stroke-opacity="1"></use></g></g><g><g><use xlink:href="#a2Iiyrgy37" opacity="1" fill-opacity="0" stroke="#19b5fe" stroke-width="2" stroke-opacity="1"></use></g></g><g><use xlink:href="#b1eMrRpQQK" opacity="1" fill="#fbfbfb" fill-opacity="0.04"></use><g><use xlink:href="#b1eMrRpQQK" opacity="1" fill-opacity="0" stroke="#19b5fe" stroke-width="2" stroke-opacity="1"></use></g></g><g><use xlink:href="#aqBRvRaOd" opacity="1" fill="#fbfbfb" fill-opacity="0.04"></use><g><use xlink:href="#aqBRvRaOd" opacity="1" fill-opacity="0" stroke="#19b5fe" stroke-width="2" stroke-opacity="1"></use></g></g><g><use xlink:href="#a420gHksaE" opacity="1" fill="#fbfbfb" fill-opacity="0.04"></use><g><use xlink:href="#a420gHksaE" opacity="1" fill-opacity="0" stroke="#19b5fe" stroke-width="2" stroke-opacity="1"></use></g></g><g><g><use xlink:href="#h1797Fz12i" opacity="1" fill="#fbfbfb" fill-opacity="0.04"></use><g><use xlink:href="#h1797Fz12i" opacity="1" fill-opacity="0" stroke="#19b5fe" stroke-width="2" stroke-opacity="1"></use></g></g><g><use xlink:href="#d2uOKFDPnh" opacity="1" fill="#fbfbfb" fill-opacity="0.04"></use><g><use xlink:href="#d2uOKFDPnh" opacity="1" fill-opacity="0" stroke="#19b5fe" stroke-width="2" stroke-opacity="1"></use></g></g><g><use xlink:href="#a1bMze4d0N" opacity="1" fill="#fbfbfb" fill-opacity="0.04"></use><g><use xlink:href="#a1bMze4d0N" opacity="1" fill-opacity="0" stroke="#19b5fe" stroke-width="2" stroke-opacity="1"></use></g></g></g><g><g><use xlink:href="#jB7u9SDfH" opacity="1" fill="#fbfbfb" fill-opacity="0.04"></use><g><use xlink:href="#jB7u9SDfH" opacity="1" fill-opacity="0" stroke="#19b5fe" stroke-width="2" stroke-opacity="1"></use></g></g><g><use xlink:href="#c5VbsxeFW" opacity="1" fill="#fbfbfb" fill-opacity="0.04"></use><g><use xlink:href="#c5VbsxeFW" opacity="1" fill-opacity="0" stroke="#19b5fe" stroke-width="2" stroke-opacity="1"></use></g></g><g><use xlink:href="#e1uLyS8ihw" opacity="1" fill="#fbfbfb" fill-opacity="0.04"></use><g><use xlink:href="#e1uLyS8ihw" opacity="1" fill-opacity="0" stroke="#19b5fe" stroke-width="2" stroke-opacity="1"></use></g></g></g><g><g><use xlink:href="#hIEA9wCJL" opacity="1" fill-opacity="0" stroke="#19b5fe" stroke-width="2" stroke-opacity="1"></use></g></g><g><g><use xlink:href="#b1YkHewndz" opacity="1" fill-opacity="0" stroke="#19b5fe" stroke-width="2" stroke-opacity="1"></use></g></g><g><g><use xlink:href="#c68gQq55q" opacity="1" fill-opacity="0" stroke="#19b5fe" stroke-width="2" stroke-opacity="1"></use></g></g><g><g><use xlink:href="#b3rsJOUaj" opacity="1" fill-opacity="0" stroke="#19b5fe" stroke-width="2" stroke-opacity="1"></use></g></g><g><g><use xlink:href="#eKc2KoRMF" opacity="1" fill-opacity="0" stroke="#19b5fe" stroke-width="2" stroke-opacity="1"></use></g></g><g><g><use xlink:href="#b92PpSf3g0" opacity="1" fill-opacity="0" stroke="#19b5fe" stroke-width="2" stroke-opacity="1"></use></g></g><g><g><use xlink:href="#ce9rw7a43" opacity="1" fill-opacity="0" stroke="#19b5fe" stroke-width="2" stroke-opacity="1"></use></g></g><g><use xlink:href="#a1g4PwesfN" opacity="1" fill="#fbfbfb" fill-opacity="0.04"></use><g><use xlink:href="#a1g4PwesfN" opacity="1" fill-opacity="0" stroke="#19b5fe" stroke-width="2" stroke-opacity="1"></use></g></g><g><use xlink:href="#b4bfbP2drO" opacity="1" fill="#fbfbfb" fill-opacity="0.04"></use><g><use xlink:href="#b4bfbP2drO" opacity="1" fill-opacity="0" stroke="#19b5fe" stroke-width="2" stroke-opacity="1"></use></g></g><g><g><use xlink:href="#acUFg0XYw" opacity="1" fill="#fbfbfb" fill-opacity="0.04"></use><g><use xlink:href="#acUFg0XYw" opacity="1" fill-opacity="0" stroke="#19b5fe" stroke-width="2" stroke-opacity="1"></use></g></g><g><use xlink:href="#a1pnLbbLqB" opacity="1" fill="#fbfbfb" fill-opacity="0.04"></use><g><use xlink:href="#a1pnLbbLqB" opacity="1" fill-opacity="0" stroke="#19b5fe" stroke-width="2" stroke-opacity="1"></use></g></g></g><g><g><use xlink:href="#a2S54GxPW" opacity="1" fill="#fbfbfb" fill-opacity="0.04"></use><g><use xlink:href="#a2S54GxPW" opacity="1" fill-opacity="0" stroke="#19b5fe" stroke-width="2" stroke-opacity="1"></use></g></g><g><use xlink:href="#f7eYqh56p" opacity="1" fill="#fbfbfb" fill-opacity="0.04"></use><g><use xlink:href="#f7eYqh56p" opacity="1" fill-opacity="0" stroke="#19b5fe" stroke-width="2" stroke-opacity="1"></use></g></g></g><g><g><use xlink:href="#c5BxMyu3l" opacity="1" fill="#fbfbfb" fill-opacity="0.04"></use><g><use xlink:href="#c5BxMyu3l" opacity="1" fill-opacity="0" stroke="#19b5fe" stroke-width="2" stroke-opacity="1"></use></g></g><g><use xlink:href="#e1MApC9rng" opacity="1" fill="#fbfbfb" fill-opacity="0.04"></use><g><use xlink:href="#e1MApC9rng" opacity="1" fill-opacity="0" stroke="#19b5fe" stroke-width="2" stroke-opacity="1"></use></g></g></g><g><g><use xlink:href="#c6PD5yezsu" opacity="1" fill="#fbfbfb" fill-opacity="0.04"></use><g><use xlink:href="#c6PD5yezsu" opacity="1" fill-opacity="0" stroke="#19b5fe" stroke-width="2" stroke-opacity="1"></use></g></g><g><use xlink:href="#a7vUR8mkxS" opacity="1" fill="#fbfbfb" fill-opacity="0.04"></use><g><use xlink:href="#a7vUR8mkxS" opacity="1" fill-opacity="0" stroke="#19b5fe" stroke-width="2" stroke-opacity="1"></use></g></g></g><g><g><use xlink:href="#bUELLNE8Y" opacity="1" fill="#fbfbfb" fill-opacity="0.04"></use><g><use xlink:href="#bUELLNE8Y" opacity="1" fill-opacity="0" stroke="#19b5fe" stroke-width="2" stroke-opacity="1"></use></g></g><g><use xlink:href="#a1Fhw7EvDw" opacity="1" fill="#fbfbfb" fill-opacity="0.04"></use><g><use xlink:href="#a1Fhw7EvDw" opacity="1" fill-opacity="0" stroke="#19b5fe" stroke-width="2" stroke-opacity="1"></use></g></g></g><g><g><use xlink:href="#a5nfsjcWpP" opacity="1" fill="#fbfbfb" fill-opacity="0.04"></use><g><use xlink:href="#a5nfsjcWpP" opacity="1" fill-opacity="0" stroke="#19b5fe" stroke-width="2" stroke-opacity="1"></use></g></g><g><use xlink:href="#f2qyC5dNz" opacity="1" fill="#fbfbfb" fill-opacity="0.04"></use><g><use xlink:href="#f2qyC5dNz" opacity="1" fill-opacity="0" stroke="#19b5fe" stroke-width="2" stroke-opacity="1"></use></g></g></g><g><g><use xlink:href="#e1IM4N6wnP" opacity="1" fill="#fbfbfb" fill-opacity="0.04"></use><g><use xlink:href="#e1IM4N6wnP" opacity="1" fill-opacity="0" stroke="#19b5fe" stroke-width="2" stroke-opacity="1"></use></g></g><g><use xlink:href="#cmQdnjQC1" opacity="1" fill="#fbfbfb" fill-opacity="0.04"></use><g><use xlink:href="#cmQdnjQC1" opacity="1" fill-opacity="0" stroke="#19b5fe" stroke-width="2" stroke-opacity="1"></use></g></g></g><g><use xlink:href="#e2mCVTn3vP" opacity="1" fill="#fbfbfb" fill-opacity="0.04"></use><g><use xlink:href="#e2mCVTn3vP" opacity="1" fill-opacity="0" stroke="#19b5fe" stroke-width="2" stroke-opacity="1"></use></g></g><g><g><use xlink:href="#a8qyiLN4V" opacity="1" fill-opacity="0" stroke="#19b5fe" stroke-width="2" stroke-opacity="1"></use></g></g><g><g><use xlink:href="#azjYVyy7Z" opacity="1" fill-opacity="0" stroke="#19b5fe" stroke-width="2" stroke-opacity="1"></use></g></g><g><use xlink:href="#anjjt5oai" opacity="1" fill="#fbfbfb" fill-opacity="0.04"></use><g><use xlink:href="#anjjt5oai" opacity="1" fill-opacity="0" stroke="#19b5fe" stroke-width="2" stroke-opacity="1"></use></g></g><g><use xlink:href="#a5nCNjDms" opacity="1" fill="#fbfbfb" fill-opacity="0.04"></use><g><use xlink:href="#a5nCNjDms" opacity="1" fill-opacity="0" stroke="#19b5fe" stroke-width="2" stroke-opacity="1"></use></g></g><g><use xlink:href="#b1mKbbi9O" opacity="1" fill="#fbfbfb" fill-opacity="0.04"></use><g><use xlink:href="#b1mKbbi9O" opacity="1" fill-opacity="0" stroke="#19b5fe" stroke-width="2" stroke-opacity="1"></use></g></g><g><g><use xlink:href="#a1QKwgnA03" opacity="1" fill-opacity="0" stroke="#19b5fe" stroke-width="2" stroke-opacity="1"></use></g></g><g><use xlink:href="#a3ZmwOxZf" opacity="1" fill="#fbfbfb" fill-opacity="0.04"></use><g><use xlink:href="#a3ZmwOxZf" opacity="1" fill-opacity="0" stroke="#19b5fe" stroke-width="2" stroke-opacity="1"></use></g></g><g><use xlink:href="#aLeWOUgx2" opacity="1" fill="#fbfbfb" fill-opacity="0.04"></use><g><use xlink:href="#aLeWOUgx2" opacity="1" fill-opacity="0" stroke="#19b5fe" stroke-width="2" stroke-opacity="1"></use></g></g><g><g><use xlink:href="#b4d1rwlpIy" opacity="1" fill-opacity="0" stroke="#19b5fe" stroke-width="2" stroke-opacity="1"></use></g></g><g><g><use xlink:href="#bEReYrtD" opacity="1" fill-opacity="0" stroke="#19b5fe" stroke-width="2" stroke-opacity="1"></use></g></g><g><g><g><use xlink:href="#bLW7aIKWU" opacity="1" fill-opacity="0" stroke="#19b5fe" stroke-width="2" stroke-opacity="1"></use></g></g><g><g><use xlink:href="#aK1YpNPcr" opacity="1" fill-opacity="0" stroke="#19b5fe" stroke-width="2" stroke-opacity="1"></use></g></g><g><g><use xlink:href="#g1Oyyd2CMw" opacity="1" fill-opacity="0" stroke="#19b5fe" stroke-width="2" stroke-opacity="1"></use></g></g></g><g><use xlink:href="#g2kqCHCLbE" opacity="1" fill="#fbfbfb" fill-opacity="0"></use><g><use xlink:href="#g2kqCHCLbE" opacity="1" fill-opacity="0" stroke="#19b5fe" stroke-width="2" stroke-opacity="1"></use></g></g><g><use xlink:href="#a8oxToKbZ" opacity="1" fill="#fbfbfb" fill-opacity="0"></use><g><use xlink:href="#a8oxToKbZ" opacity="1" fill-opacity="0" stroke="#19b5fe" stroke-width="2" stroke-opacity="1"></use></g></g><g><use xlink:href="#b3lBgrRrdo" opacity="1" fill="#fbfbfb" fill-opacity="0"></use><g><use xlink:href="#b3lBgrRrdo" opacity="1" fill-opacity="0" stroke="#19b5fe" stroke-width="2" stroke-opacity="1"></use></g></g><g><use xlink:href="#ftEqK8bkG" opacity="1" fill="#fbfbfb" fill-opacity="0"></use><g><use xlink:href="#ftEqK8bkG" opacity="1" fill-opacity="0" stroke="#19b5fe" stroke-width="2" stroke-opacity="1"></use></g></g><g><use xlink:href="#de2PeAq41" opacity="1" fill="#fbfbfb" fill-opacity="0.06"></use><g><use xlink:href="#de2PeAq41" opacity="1" fill-opacity="0" stroke="#19b5fe" stroke-width="2" stroke-opacity="1"></use></g></g><g><use xlink:href="#gPGvF5a2Y" opacity="1" fill="#fbfbfb" fill-opacity="0.04"></use><g><use xlink:href="#gPGvF5a2Y" opacity="1" fill-opacity="0" stroke="#19b5fe" stroke-width="2" stroke-opacity="1"></use></g></g><g><g><use xlink:href="#a1HxcHYsP7" opacity="1" fill-opacity="0" stroke="#19b5fe" stroke-width="2" stroke-opacity="1"></use></g></g><g><g><use xlink:href="#f1kD8sFu1G" opacity="1" fill-opacity="0" stroke="#19b5fe" stroke-width="2" stroke-opacity="1"></use></g></g><g><g><use xlink:href="#iGMaoFgtR" opacity="1" fill-opacity="0" stroke="#19b5fe" stroke-width="2" stroke-opacity="1"></use></g></g><g><g><use xlink:href="#a6DwOekED1" opacity="1" fill-opacity="0" stroke="#19b5fe" stroke-width="2" stroke-opacity="1"></use></g></g><g><use xlink:href="#h3h5JD4uVU" opacity="1" fill="#fbfbfb" fill-opacity="0.04"></use><g><use xlink:href="#h3h5JD4uVU" opacity="1" fill-opacity="0" stroke="#19b5fe" stroke-width="2" stroke-opacity="1"></use></g></g><g><use xlink:href="#e5GRNSVci" opacity="1" fill="#fbfbfb" fill-opacity="0.04"></use><g><use xlink:href="#e5GRNSVci" opacity="1" fill-opacity="0" stroke="#19b5fe" stroke-width="2" stroke-opacity="1"></use></g></g><g><use xlink:href="#b40yPlkKi" opacity="1" fill="#fbfbfb" fill-opacity="0.04"></use><g><use xlink:href="#b40yPlkKi" opacity="1" fill-opacity="0" stroke="#19b5fe" stroke-width="2" stroke-opacity="1"></use></g></g><g><use xlink:href="#hFoCBsJA8" opacity="1" fill="#fbfbfb" fill-opacity="0.04"></use><g><use xlink:href="#hFoCBsJA8" opacity="1" fill-opacity="0" stroke="#19b5fe" stroke-width="2" stroke-opacity="1"></use></g></g></g></g></svg>