<?xml version="1.0" encoding="UTF-8" standalone="no"?>
<!DOCTYPE svg PUBLIC "-//W3C//DTD SVG 1.1//EN" "http://www.w3.org/Graphics/SVG/1.1/DTD/svg11.dtd">
<svg version="1.1" xmlns="http://www.w3.org/2000/svg" xmlns:xlink="http://www.w3.org/1999/xlink" preserveAspectRatio="xMidYMid meet" viewBox="71.22298530543401 89.3754624432689 814.0413087481496 361.554366377531" width="813.04" height="357.55"><defs><path d="" id="a2ykAdWk4c"></path><path d="M751.35 377.71L693.35 377.71L681.35 389.71L764.49 389.71L751.35 377.71Z" id="akx8zsgrk"></path><path d="M760.29 389.71L685.54 389.71L685.54 430.96L760.29 430.96L760.29 389.71Z" id="b5djJbN7Rh"></path><path d="M729.35 403.46L714.85 403.46L714.85 429.96L729.35 429.96L729.35 403.46Z" id="cb45rvZWc"></path><path d="M748.35 404.71L737.6 404.71L737.6 419.46L748.35 419.46L748.35 404.71Z" id="cnegLPJRF"></path><path d="M706.35 404.71L695.6 404.71L695.6 419.46L706.35 419.46L706.35 404.71Z" id="cGwuGrl12"></path><path d="M673.6 299.46L598.35 299.46L598.35 430.96L673.6 430.96L673.6 299.46Z" id="c2cwH1bqqg"></path><path d="M72.22 430.96L848.22 430.96" id="c5VP8jR1rY"></path><path d="M666.85 307.37L605.1 307.37L605.1 322.62L666.85 322.62L666.85 307.37Z" id="c2PJFphR5U"></path><path d="M666.85 331.37L605.1 331.37L605.1 346.62L666.85 346.62L666.85 331.37Z" id="i6o3ByJvx"></path><path d="M667.4 355.87L605.65 355.87L605.65 371.12L667.4 371.12L667.4 355.87Z" id="aliPvkxq"></path><path d="M666.85 380.95L605.1 380.95L605.1 396.2L666.85 396.2L666.85 380.95Z" id="b75dxxCPYf"></path><path d="M656.4 407.37L615.65 407.37L615.65 430.96L656.4 430.96L656.4 407.37Z" id="csxvgPusy"></path><path d="" id="apmTZDQfi"></path><path d="M656.4 425.62L673.6 425.62" id="dwNymQNTR"></path><path d="M598.35 425.62L615.65 425.62" id="h1nLNfUxbM"></path><path d="M635.97 429.96L635.97 407.37" id="d3OStmOENG"></path><path d="M666.85 292.87L605.1 292.87L605.1 299.46L666.85 299.46L666.85 292.87Z" id="b8cTjhk6gG"></path><path d="M673.6 336.37L685.54 336.37L685.54 355.87L718.15 355.87L718.15 372.62" id="c1wXq3gLCm"></path><path d="M554.65 346.62L554.65 336.37L598.35 336.37" id="ccvPdxVTF"></path><path d="M590.15 346.62L496.9 346.62L554.65 346.62" id="a3YdPUdLBo"></path><path d="M586.32 347.44L500.72 347.44L500.72 429.96L586.32 429.96L586.32 347.44Z" id="f4awzuEok"></path><path d="" id="aacIXilFl"></path><path d="M500.72 357.89L513.25 357.89L586.32 357.89" id="bL8Ao0rC9"></path><path d="M500.72 391.79L513.25 391.79L586.32 391.79" id="coceuYp1S"></path><path d="M577.65 368.29L560.85 368.29L560.85 385.09L577.65 385.09L577.65 368.29Z" id="e16zIupvLl"></path><path d="M552.35 368.29L535.55 368.29L535.55 385.09L552.35 385.09L552.35 368.29Z" id="c5PwvqUgk6"></path><path d="M526.45 368.29L509.65 368.29L509.65 385.09L526.45 385.09L526.45 368.29Z" id="b1oESTweb5"></path><path d="M577.65 398.39L560.85 398.39L560.85 415.19L577.65 415.19L577.65 398.39Z" id="b6mfyZJrZ"></path><path d="M526.05 398.39L509.25 398.39L509.25 415.19L526.05 415.19L526.05 398.39Z" id="h2lgqGAhTy"></path><path d="M551.92 398.39L535.12 398.39L535.12 429.96L551.92 429.96L551.92 398.39Z" id="dgEgrjxpD"></path><path d="M552.35 425.62L585.85 425.62" id="hndLtuVeN"></path><path d="M500.72 425.62L534.45 425.62" id="b3SO7of0oH"></path><path d="M564.45 362.09L586.32 362.09" id="et03T8xbD"></path><path d="M548.25 362.09L558.65 362.09" id="bfvm9ywN"></path><path d="" id="eiHOZEVPu"></path><path d="M499.72 362.09L510.12 362.09" id="g4b7cUAo88"></path><path d="M523.25 362.09L541.65 362.09" id="chYdLuTk6"></path><path d="M486.71 404.29L403.57 404.29L403.57 410.88L486.71 410.88L486.71 404.29Z" id="g1vtYKCAhh"></path><path d="M484.61 411.53L405.81 411.53L405.81 430.96L484.61 430.96L484.61 411.53Z" id="a1DixBLOMM"></path><path d="M486.71 377.61L403.57 377.61L403.57 384.2L486.71 384.2L486.71 377.61Z" id="a6owmz9vQR"></path><path d="M484.61 384.86L405.81 384.86L405.81 404.29L484.61 404.29L484.61 384.86Z" id="b1Ia4MFhUw"></path><path d="M486.71 350.66L403.57 350.66L403.57 357.25L486.71 357.25L486.71 350.66Z" id="a5RrCIQBUz"></path><path d="M484.61 357.91L405.81 357.91L405.81 377.34L484.61 377.34L484.61 357.91Z" id="l7DrIizTs"></path><path d="M486.71 323.99L403.57 323.99L403.57 330.58L486.71 330.58L486.71 323.99Z" id="ckbFM17fB"></path><path d="M484.61 331.24L405.81 331.24L405.81 350.66L484.61 350.66L484.61 331.24Z" id="f23Ulu5fi"></path><path d="M486.71 296.29L403.57 296.29L403.57 302.88L486.71 302.88L486.71 296.29Z" id="a2Avt6fL3D"></path><path d="M484.61 303.53L405.81 303.53L405.81 322.96L484.61 322.96L484.61 303.53Z" id="c3i6OKYlqC"></path><path d="M485.71 288.73L405.51 288.73L405.51 295.73L485.71 295.73L485.71 288.73Z" id="ar5JGwKrz"></path><path d="M483.11 282.73L455.11 282.73L455.11 287.93L483.11 287.93L483.11 282.73Z" id="dlPeUPOYr"></path><path d="M476.71 287.93L476.71 282.73" id="i2mwKlQXL"></path><path d="M464.91 287.93L464.91 282.73" id="b3lydVNaGs"></path><path d="M301.45 312.56L398.65 312.56" id="i9FqWvn49"></path><path d="M393.45 313.16L305.65 313.16L305.65 430.96L393.45 430.96L393.45 313.16Z" id="d2e3yA0yHh"></path><path d="M305.65 321.36L393.45 321.36" id="c3pDxdqYLZ"></path><path d="M305.65 358.16L393.45 357.76" id="h1iyvIzfM4"></path><path d="M306.25 391.76L393.45 391.76" id="a17O3wFJqc"></path><path d="M359.25 398.56L339.25 398.56L339.25 430.96L359.25 430.96L359.25 398.56Z" id="b1i1JZTLkv"></path><path d="M384.65 397.56L367.85 397.56L367.85 415.56L384.65 415.56L384.65 397.56Z" id="hMX3enQZ5"></path><path d="M331.75 397.56L314.95 397.56L314.95 415.56L331.75 415.56L331.75 397.56Z" id="a3N87Kze2"></path><path d="M384.65 367.86L367.85 367.86L367.85 385.86L384.65 385.86L384.65 367.86Z" id="kGZTv9gtC"></path><path d="M331.75 367.86L314.95 367.86L314.95 385.86L331.75 385.86L331.75 367.86Z" id="b1nWWWfcdA"></path><path d="M358.45 367.86L341.65 367.86L341.65 385.86L358.45 385.86L358.45 367.86Z" id="gpnoChx5E"></path><path d="M384.1 332.66L367.3 332.66L367.3 350.66L384.1 350.66L384.1 332.66Z" id="bwaZKVjhg"></path><path d="M331.2 332.66L314.4 332.66L314.4 350.66L331.2 350.66L331.2 332.66Z" id="g4lk84nQqu"></path><path d="M357.9 332.66L341.1 332.66L341.1 350.66L357.9 350.66L357.9 332.66Z" id="ceeeMpcu4"></path><path d="M338.25 327.16L305.65 327.16" id="b1WVZERi9T"></path><path d="M362.25 327.16L347.25 327.16" id="d1IfVLQXVM"></path><path d="M392.65 326.56L372.45 326.56" id="b3WXdQzKZg"></path><path d="M325.65 362.16L359.65 361.76" id="bqOeVpCiP"></path><path d="M316.45 362.16L306.25 362.16" id="a10gyPU82O"></path><path d="M359.65 425.16L392.65 425.16" id="h3eOMP7Kun"></path><path d="M305.65 425.16L339.25 425.16" id="a1IaQ0eVQl"></path><path d="M293.55 301.63L231.8 301.63L231.8 430.96L293.55 430.96L293.55 301.63Z" id="ajodAya4g"></path><path d="M298.2 293.03L227.4 293.03L227.4 301.63L298.2 301.63L298.2 293.03Z" id="aaGTWzt9b"></path><path d="M284.8 308.63L270.2 308.63L270.2 326.03L284.8 326.03L284.8 308.63Z" id="eMYLZp1TI"></path><path d="M287.8 326.03L267.2 326.03L267.2 330.43L287.8 330.43L287.8 326.03Z" id="bhXQljUNu"></path><path d="M255.9 308.63L241.3 308.63L241.3 326.03L255.9 326.03L255.9 308.63Z" id="e2SdnQYvof"></path><path d="M258.9 326.03L238.3 326.03L238.3 330.43L258.9 330.43L258.9 326.03Z" id="a3pmCEsi0Z"></path><path d="M284.8 340.36L270.2 340.36L270.2 357.76L284.8 357.76L284.8 340.36Z" id="f2SMrGVwSp"></path><path d="M287.8 357.76L267.2 357.76L267.2 362.16L287.8 362.16L287.8 357.76Z" id="aoVOaiNJE"></path><path d="M255.9 340.36L241.3 340.36L241.3 357.76L255.9 357.76L255.9 340.36Z" id="c2k6RC26Nj"></path><path d="M258.9 357.76L238.3 357.76L238.3 362.16L258.9 362.16L258.9 357.76Z" id="auongTFLb"></path><path d="M255.9 372.06L241.3 372.06L241.3 389.46L255.9 389.46L255.9 372.06Z" id="ajmH1MHvZ"></path><path d="M258.9 389.46L238.3 389.46L238.3 393.86L258.9 393.86L258.9 389.46Z" id="bGJYwcwVI"></path><path d="M284.8 372.06L270.2 372.06L270.2 389.46L284.8 389.46L284.8 372.06Z" id="a4t2aMMLp"></path><path d="M287.8 389.46L267.2 389.46L267.2 393.86L287.8 393.86L287.8 389.46Z" id="eG7lhvlrL"></path><path d="M284.8 403.36L270.2 403.36L270.2 420.76L284.8 420.76L284.8 403.36Z" id="f2JOu0ObPW"></path><path d="M287.8 420.76L267.2 420.76L267.2 425.16L287.8 425.16L287.8 420.76Z" id="e1k7F8TfCX"></path><path d="M256 403.36L242.2 403.36L242.2 430.96L256 430.96L256 403.36Z" id="cTYw8ecoK"></path><path d="M208.14 373.01L208.14 357.81L225.94 357.81" id="f124J0sKy3"></path><path d="M179.14 373.01L179.14 366.29L208.14 366.29" id="b18w2nuakg"></path><path d="M221.69 390.61L146.94 390.61L146.94 430.28L221.69 430.28L221.69 390.61Z" id="b2BGnynJLo"></path><path d="M146.94 397.51L108.94 397.51L108.94 429.91L146.94 429.91L146.94 397.51Z" id="hq2ctm2tK"></path><path d="M140.54 406.41L115.14 406.41L115.14 429.91L140.54 429.91L140.54 406.41Z" id="b3yp6YrWA"></path><path d="M108.94 401.81L146.94 401.81" id="d17KbJHa2M"></path><path d="M225.91 384.21L142.71 384.21L142.71 390.61L225.91 390.61L225.91 384.21Z" id="h3GODWFhsR"></path><path d="M209.01 379.01L159.61 379.01L159.61 384.21L209.01 384.21L209.01 379.01Z" id="fHcOlfiSt"></path><path d="M769.42 404.71L769.42 349.43L825.92 349.43L825.92 425.16" id="h7yuAhD9s"></path><path d="" id="c1hZMLEC6I"></path><path d="M687.65 161.57L688.94 161.81L690.21 162.14L691.43 162.56L692.61 163.06L693.75 163.64L694.84 164.3L695.88 165.03L696.86 165.82L697.79 166.69L698.65 167.61L699.45 168.6L700.18 169.63L700.83 170.72L701.41 171.86L701.91 173.04L702.33 174.27L702.6 175.3L702.72 175.27L704.06 175.05L705.45 174.98L706.83 175.05L708.17 175.27L709.46 175.62L710.69 176.11L711.85 176.71L712.94 177.43L713.95 178.25L714.87 179.17L715.69 180.18L716.41 181.27L717.02 182.43L717.5 183.66L717.85 184.95L718.07 186.29L718.15 187.68L718.07 189.06L717.85 190.4L717.5 191.69L717.02 192.92L716.41 194.08L715.69 195.17L714.87 196.18L713.95 197.1L712.94 197.92L711.85 198.64L710.69 199.24L709.46 199.73L708.17 200.08L706.83 200.3L705.45 200.38L704.06 200.3L702.72 200.08L701.43 199.73L700.2 199.24L699.04 198.64L697.95 197.92L696.94 197.1L696.02 196.18L695.2 195.17L694.87 194.68L694.84 194.7L693.75 195.36L692.61 195.94L691.43 196.44L690.21 196.86L688.94 197.19L687.65 197.43L686.32 197.58L684.97 197.63L683.62 197.58L682.3 197.43L681 197.19L679.74 196.86L678.52 196.44L677.33 195.94L676.2 195.36L675.11 194.7L674.07 193.98L673.98 193.9L673.97 193.92L673.17 194.94L672.26 195.85L671.24 196.65L670.14 197.33L668.95 197.87L667.69 198.27L666.37 198.52L665 198.61L663.63 198.52L662.31 198.27L661.05 197.87L659.86 197.33L658.75 196.65L657.74 195.85L656.82 194.94L656.02 193.92L655.35 192.81L654.8 191.63L654.4 190.37L654.15 189.05L654.06 187.68L654.15 186.3L654.4 184.98L654.8 183.73L655.35 182.54L656.02 181.43L656.82 180.42L657.74 179.5L658.75 178.7L659.86 178.02L661.05 177.48L662.31 177.08L663.63 176.83L665 176.74L666.37 176.83L667.03 176.95L667.04 176.82L667.29 175.53L667.62 174.27L668.03 173.04L668.53 171.86L669.11 170.72L669.77 169.63L670.5 168.6L671.3 167.61L672.16 166.69L673.08 165.82L674.07 165.03L675.11 164.3L676.2 163.64L677.33 163.06L678.52 162.56L679.74 162.14L681 161.81L682.3 161.57L683.62 161.43L684.97 161.38L686.32 161.43L687.65 161.57Z" id="d1tx06MPf8"></path><path d="M680.26 336.37L700.97 311.04L716.26 311.04L811.26 200.38L885.26 268.38" id="a1fAPthn0L"></path><path d="M835.6 341.49L797.67 252.71L843.93 256.71L811.26 200.38" id="a11ex0k6nR"></path><path d="M700.97 311.04L727.93 350.71L716.26 311.04" id="a8guv224n"></path><path d="M537.29 212.31L538.55 212.64L539.78 213.06L540.96 213.56L542.1 214.14L543.19 214.8L544.23 215.53L545.21 216.32L546.14 217.19L547 218.11L547.8 219.1L548.53 220.13L549.18 221.22L549.76 222.36L550.26 223.54L550.68 224.77L550.95 225.8L551.07 225.77L552.41 225.55L553.8 225.48L555.18 225.55L556.52 225.77L557.81 226.12L559.04 226.61L560.2 227.21L561.29 227.93L562.3 228.75L563.22 229.67L564.04 230.68L564.76 231.77L565.36 232.93L565.85 234.16L566.2 235.45L566.42 236.79L566.5 238.18L566.42 239.56L566.2 240.9L565.85 242.19L565.36 243.42L564.76 244.58L564.04 245.67L563.22 246.68L562.3 247.6L561.29 248.42L560.2 249.14L559.04 249.74L557.81 250.23L556.52 250.58L555.18 250.8L553.8 250.88L552.41 250.8L551.07 250.58L549.78 250.23L548.55 249.74L547.39 249.14L546.3 248.42L545.29 247.6L544.37 246.68L543.55 245.67L543.22 245.18L543.19 245.2L542.1 245.86L540.96 246.44L539.78 246.94L538.55 247.36L537.29 247.69L536 247.93L534.67 248.08L533.32 248.13L531.97 248.08L530.65 247.93L529.35 247.69L528.09 247.36L526.87 246.94L525.68 246.44L524.55 245.86L523.46 245.2L522.42 244.48L522.33 244.4L522.32 244.42L521.52 245.44L520.61 246.35L519.59 247.15L518.48 247.83L517.3 248.37L516.04 248.77L514.72 249.02L513.35 249.11L511.98 249.02L510.66 248.77L509.4 248.37L508.21 247.83L507.1 247.15L506.09 246.35L505.17 245.44L504.37 244.42L503.69 243.31L503.15 242.13L502.75 240.87L502.5 239.55L502.41 238.18L502.5 236.8L502.75 235.48L503.15 234.23L503.69 233.04L504.37 231.93L505.17 230.92L506.09 230L507.1 229.2L508.21 228.52L509.4 227.98L510.66 227.58L511.98 227.33L513.35 227.24L514.72 227.33L515.38 227.45L515.39 227.32L515.63 226.03L515.97 224.77L516.38 223.54L516.88 222.36L517.46 221.22L518.12 220.13L518.85 219.1L519.65 218.11L520.51 217.19L521.43 216.32L522.42 215.53L523.46 214.8L524.55 214.14L525.68 213.56L526.87 213.06L528.09 212.64L529.35 212.31L530.65 212.07L531.97 211.93L533.32 211.88L534.67 211.93L536 212.07L536 212.07L537.29 212.31Z" id="e33WqcjBy4"></path><path d="M234.64 183.81L235.9 184.14L237.12 184.56L238.3 185.06L239.44 185.64L240.53 186.3L241.57 187.03L242.55 187.82L243.48 188.69L244.34 189.61L245.14 190.6L245.87 191.63L246.52 192.72L247.1 193.86L247.6 195.04L248.02 196.27L248.29 197.3L248.42 197.27L249.76 197.05L251.14 196.98L252.52 197.05L253.86 197.27L255.15 197.62L256.38 198.11L257.55 198.71L258.64 199.43L259.65 200.25L260.56 201.17L261.39 202.18L262.1 203.27L262.71 204.43L263.19 205.66L263.55 206.95L263.76 208.29L263.84 209.68L263.76 211.06L263.55 212.4L263.19 213.69L262.71 214.92L262.1 216.08L261.39 217.17L260.56 218.18L259.65 219.1L258.64 219.92L257.55 220.64L256.38 221.24L255.15 221.73L253.86 222.08L252.52 222.3L251.14 222.38L249.76 222.3L248.42 222.08L247.13 221.73L245.9 221.24L244.73 220.64L243.64 219.92L242.63 219.1L241.71 218.18L240.89 217.17L240.57 216.68L240.53 216.7L239.44 217.36L238.3 217.94L237.12 218.44L235.9 218.86L234.64 219.19L233.34 219.43L232.02 219.58L230.66 219.63L229.31 219.58L227.99 219.43L226.69 219.19L225.43 218.86L224.21 218.44L223.03 217.94L221.89 217.36L220.8 216.7L219.76 215.98L219.67 215.9L219.66 215.92L218.86 216.94L217.95 217.85L216.93 218.65L215.83 219.33L214.64 219.87L213.38 220.27L212.06 220.52L210.69 220.61L209.32 220.52L208 220.27L206.74 219.87L205.55 219.33L204.44 218.65L203.43 217.85L202.52 216.94L201.72 215.92L201.04 214.81L200.49 213.63L200.09 212.37L199.84 211.05L199.76 209.68L199.84 208.3L200.09 206.98L200.49 205.73L201.04 204.54L201.72 203.43L202.52 202.42L203.43 201.5L204.44 200.7L205.55 200.02L206.74 199.48L208 199.08L209.32 198.83L210.69 198.74L212.06 198.83L212.72 198.95L212.74 198.82L212.98 197.53L213.31 196.27L213.72 195.04L214.23 193.86L214.81 192.72L215.46 191.63L216.19 190.6L216.99 189.61L217.85 188.69L218.78 187.82L219.76 187.03L220.8 186.3L221.89 185.64L223.03 185.06L224.21 184.56L225.43 184.14L226.69 183.81L227.99 183.57L229.31 183.43L230.66 183.38L232.02 183.43L233.34 183.57L233.34 183.57L234.64 183.81Z" id="akxy4wcQq"></path><path d="M453.9 90.81L455.17 91.14L456.39 91.56L457.57 92.06L458.71 92.64L459.8 93.3L460.84 94.03L461.82 94.82L462.75 95.69L463.61 96.61L464.41 97.6L465.14 98.63L465.79 99.72L466.37 100.86L466.87 102.04L467.29 103.27L467.56 104.3L467.68 104.27L469.02 104.05L470.41 103.98L471.79 104.05L473.13 104.27L474.42 104.62L475.65 105.11L476.81 105.71L477.9 106.43L478.91 107.25L479.83 108.17L480.65 109.18L481.37 110.27L481.98 111.43L482.46 112.66L482.81 113.95L483.03 115.29L483.11 116.68L483.03 118.06L482.81 119.4L482.46 120.69L481.98 121.92L481.37 123.08L480.65 124.17L479.83 125.18L478.91 126.1L477.9 126.92L476.81 127.64L475.65 128.24L474.42 128.73L473.13 129.08L471.79 129.3L470.41 129.38L469.02 129.3L467.68 129.08L466.39 128.73L465.16 128.24L464 127.64L462.91 126.92L461.9 126.1L460.98 125.18L460.16 124.17L459.83 123.68L459.8 123.7L458.71 124.36L457.57 124.94L456.39 125.44L455.17 125.86L453.9 126.19L452.61 126.43L451.28 126.58L449.93 126.63L448.58 126.58L447.26 126.43L445.96 126.19L444.7 125.86L443.48 125.44L442.29 124.94L441.16 124.36L440.07 123.7L439.03 122.98L438.94 122.9L438.93 122.92L438.13 123.94L437.22 124.85L436.2 125.65L435.1 126.33L433.91 126.87L432.65 127.27L431.33 127.52L429.96 127.61L428.59 127.52L427.27 127.27L426.01 126.87L424.82 126.33L423.71 125.65L422.7 124.85L421.78 123.94L420.98 122.92L420.31 121.81L419.76 120.63L419.36 119.37L419.11 118.05L419.02 116.68L419.11 115.3L419.36 113.98L419.76 112.73L420.31 111.54L420.98 110.43L421.78 109.42L422.7 108.5L423.71 107.7L424.82 107.02L426.01 106.48L427.27 106.08L428.59 105.83L429.96 105.74L431.33 105.83L431.99 105.95L432 105.82L432.25 104.53L432.58 103.27L432.99 102.04L433.49 100.86L434.07 99.72L434.73 98.63L435.46 97.6L436.26 96.61L437.12 95.69L438.04 94.82L439.03 94.03L440.07 93.3L441.16 92.64L442.29 92.06L443.48 91.56L444.7 91.14L445.96 90.81L447.26 90.57L448.58 90.43L449.93 90.38L451.28 90.43L452.61 90.57L452.61 90.57L453.9 90.81Z" id="a1pnhaK0We"></path><path d="M209.01 405.12L198.96 405.12L198.96 429.91L209.01 429.91L209.01 405.12Z" id="b2H7odRzUZ"></path><path d="M186.15 403.36L169.35 403.36L169.35 421.36L186.15 421.36L186.15 403.36Z" id="a48ZFlFzkv"></path><path d="M793.35 359.46L776.55 359.46L776.55 376.26L793.35 376.26L793.35 359.46Z" id="b2eBBRHqTw"></path><path d="M820.07 359.46L803.27 359.46L803.27 376.26L820.07 376.26L820.07 359.46Z" id="brbAQSYz"></path><path d="M793.35 382.2L776.55 382.2L776.55 399L793.35 399L793.35 382.2Z" id="bCMPyXhjp"></path><path d="M820.07 382.2L803.27 382.2L803.27 399L820.07 399L820.07 382.2Z" id="b18m5knkjl"></path></defs><g><g><g><use xlink:href="#a2ykAdWk4c" opacity="1" fill-opacity="0" stroke="#19b5fe" stroke-width="2" stroke-opacity="1"></use></g></g><g><g><use xlink:href="#akx8zsgrk" opacity="1" fill-opacity="0" stroke="#19b5fe" stroke-width="2" stroke-opacity="1"></use></g></g><g><use xlink:href="#b5djJbN7Rh" opacity="1" fill="#fafafa" fill-opacity="0"></use><g><use xlink:href="#b5djJbN7Rh" opacity="1" fill-opacity="0" stroke="#19b5fe" stroke-width="2" stroke-opacity="1"></use></g></g><g><use xlink:href="#cb45rvZWc" opacity="1" fill="#fbfbfb" fill-opacity="0"></use><g><use xlink:href="#cb45rvZWc" opacity="1" fill-opacity="0" stroke="#19b5fe" stroke-width="2" stroke-opacity="1"></use></g></g><g><use xlink:href="#cnegLPJRF" opacity="1" fill="#fbfbfb" fill-opacity="0.04"></use><g><use xlink:href="#cnegLPJRF" opacity="1" fill-opacity="0" stroke="#19b5fe" stroke-width="2" stroke-opacity="1"></use></g></g><g><use xlink:href="#cGwuGrl12" opacity="1" fill="#fbfbfb" fill-opacity="0.04"></use><g><use xlink:href="#cGwuGrl12" opacity="1" fill-opacity="0" stroke="#19b5fe" stroke-width="2" stroke-opacity="1"></use></g></g><g><use xlink:href="#c2cwH1bqqg" opacity="1" fill="#fbfbfb" fill-opacity="0.04"></use><g><use xlink:href="#c2cwH1bqqg" opacity="1" fill-opacity="0" stroke="#19b5fe" stroke-width="2" stroke-opacity="1"></use></g></g><g><g><use xlink:href="#c5VP8jR1rY" opacity="1" fill-opacity="0" stroke="#19b5fe" stroke-width="2" stroke-opacity="1"></use></g></g><g><use xlink:href="#c2PJFphR5U" opacity="1" fill="#fbfbfb" fill-opacity="0.04"></use><g><use xlink:href="#c2PJFphR5U" opacity="1" fill-opacity="0" stroke="#19b5fe" stroke-width="2" stroke-opacity="1"></use></g></g><g><use xlink:href="#i6o3ByJvx" opacity="1" fill="#fbfbfb" fill-opacity="0.04"></use><g><use xlink:href="#i6o3ByJvx" opacity="1" fill-opacity="0" stroke="#19b5fe" stroke-width="2" stroke-opacity="1"></use></g></g><g><use xlink:href="#aliPvkxq" opacity="1" fill="#fbfbfb" fill-opacity="0.04"></use><g><use xlink:href="#aliPvkxq" opacity="1" fill-opacity="0" stroke="#19b5fe" stroke-width="2" stroke-opacity="1"></use></g></g><g><use xlink:href="#b75dxxCPYf" opacity="1" fill="#fbfbfb" fill-opacity="0.04"></use><g><use xlink:href="#b75dxxCPYf" opacity="1" fill-opacity="0" stroke="#19b5fe" stroke-width="2" stroke-opacity="1"></use></g></g><g><use xlink:href="#csxvgPusy" opacity="1" fill="#fbfbfb" fill-opacity="0.04"></use><g><use xlink:href="#csxvgPusy" opacity="1" fill-opacity="0" stroke="#19b5fe" stroke-width="2" stroke-opacity="1"></use></g></g><g><g><use xlink:href="#apmTZDQfi" opacity="1" fill-opacity="0" stroke="#19b5fe" stroke-width="2" stroke-opacity="1"></use></g></g><g><g><use xlink:href="#dwNymQNTR" opacity="1" fill-opacity="0" stroke="#19b5fe" stroke-width="2" stroke-opacity="1"></use></g></g><g><g><use xlink:href="#h1nLNfUxbM" opacity="1" fill-opacity="0" stroke="#19b5fe" stroke-width="2" stroke-opacity="1"></use></g></g><g><g><use xlink:href="#d3OStmOENG" opacity="1" fill-opacity="0" stroke="#19b5fe" stroke-width="2" stroke-opacity="1"></use></g></g><g><use xlink:href="#b8cTjhk6gG" opacity="1" fill="#fbfbfb" fill-opacity="0.04"></use><g><use xlink:href="#b8cTjhk6gG" opacity="1" fill-opacity="0" stroke="#19b5fe" stroke-width="2" stroke-opacity="1"></use></g></g><g><g><use xlink:href="#c1wXq3gLCm" opacity="1" fill-opacity="0" stroke="#19b5fe" stroke-width="2" stroke-opacity="1"></use></g></g><g><g><use xlink:href="#ccvPdxVTF" opacity="1" fill-opacity="0" stroke="#19b5fe" stroke-width="2" stroke-opacity="1"></use></g></g><g><g><use xlink:href="#a3YdPUdLBo" opacity="1" fill-opacity="0" stroke="#19b5fe" stroke-width="2" stroke-opacity="1"></use></g></g><g><use xlink:href="#f4awzuEok" opacity="1" fill="#fbfbfb" fill-opacity="0.04"></use><g><use xlink:href="#f4awzuEok" opacity="1" fill-opacity="0" stroke="#19b5fe" stroke-width="2" stroke-opacity="1"></use></g></g><g><g><use xlink:href="#aacIXilFl" opacity="1" fill-opacity="0" stroke="#19b5fe" stroke-width="2" stroke-opacity="1"></use></g></g><g><g><use xlink:href="#bL8Ao0rC9" opacity="1" fill-opacity="0" stroke="#19b5fe" stroke-width="2" stroke-opacity="1"></use></g></g><g><g><use xlink:href="#coceuYp1S" opacity="1" fill-opacity="0" stroke="#19b5fe" stroke-width="2" stroke-opacity="1"></use></g></g><g><use xlink:href="#e16zIupvLl" opacity="1" fill="#fbfbfb" fill-opacity="0.04"></use><g><use xlink:href="#e16zIupvLl" opacity="1" fill-opacity="0" stroke="#19b5fe" stroke-width="2" stroke-opacity="1"></use></g></g><g><use xlink:href="#c5PwvqUgk6" opacity="1" fill="#fbfbfb" fill-opacity="0.04"></use><g><use xlink:href="#c5PwvqUgk6" opacity="1" fill-opacity="0" stroke="#19b5fe" stroke-width="2" stroke-opacity="1"></use></g></g><g><use xlink:href="#b1oESTweb5" opacity="1" fill="#fbfbfb" fill-opacity="0.04"></use><g><use xlink:href="#b1oESTweb5" opacity="1" fill-opacity="0" stroke="#19b5fe" stroke-width="2" stroke-opacity="1"></use></g></g><g><use xlink:href="#b6mfyZJrZ" opacity="1" fill="#fbfbfb" fill-opacity="0.04"></use><g><use xlink:href="#b6mfyZJrZ" opacity="1" fill-opacity="0" stroke="#19b5fe" stroke-width="2" stroke-opacity="1"></use></g></g><g><use xlink:href="#h2lgqGAhTy" opacity="1" fill="#fbfbfb" fill-opacity="0.04"></use><g><use xlink:href="#h2lgqGAhTy" opacity="1" fill-opacity="0" stroke="#19b5fe" stroke-width="2" stroke-opacity="1"></use></g></g><g><use xlink:href="#dgEgrjxpD" opacity="1" fill="#fbfbfb" fill-opacity="0.04"></use><g><use xlink:href="#dgEgrjxpD" opacity="1" fill-opacity="0" stroke="#19b5fe" stroke-width="2" stroke-opacity="1"></use></g></g><g><g><use xlink:href="#hndLtuVeN" opacity="1" fill-opacity="0" stroke="#19b5fe" stroke-width="2" stroke-opacity="1"></use></g></g><g><g><use xlink:href="#b3SO7of0oH" opacity="1" fill-opacity="0" stroke="#19b5fe" stroke-width="2" stroke-opacity="1"></use></g></g><g><g><use xlink:href="#et03T8xbD" opacity="1" fill-opacity="0" stroke="#19b5fe" stroke-width="2" stroke-opacity="1"></use></g></g><g><g><use xlink:href="#bfvm9ywN" opacity="1" fill-opacity="0" stroke="#19b5fe" stroke-width="2" stroke-opacity="1"></use></g></g><g><g><use xlink:href="#eiHOZEVPu" opacity="1" fill-opacity="0" stroke="#19b5fe" stroke-width="2" stroke-opacity="1"></use></g></g><g><g><use xlink:href="#g4b7cUAo88" opacity="1" fill-opacity="0" stroke="#19b5fe" stroke-width="2" stroke-opacity="1"></use></g></g><g><g><use xlink:href="#chYdLuTk6" opacity="1" fill-opacity="0" stroke="#19b5fe" stroke-width="2" stroke-opacity="1"></use></g></g><g><g><g></g><use xlink:href="#g1vtYKCAhh" opacity="1" fill="#fbfbfb" fill-opacity="0.04"></use><g><use xlink:href="#g1vtYKCAhh" opacity="1" fill-opacity="0" stroke="#19b5fe" stroke-width="2" stroke-opacity="1"></use></g></g><g><g></g><use xlink:href="#a1DixBLOMM" opacity="1" fill="#fbfbfb" fill-opacity="0.04"></use><g><use xlink:href="#a1DixBLOMM" opacity="1" fill-opacity="0" stroke="#19b5fe" stroke-width="2" stroke-opacity="1"></use></g></g></g><g><g><g></g><use xlink:href="#a6owmz9vQR" opacity="1" fill="#fbfbfb" fill-opacity="0.04"></use><g><use xlink:href="#a6owmz9vQR" opacity="1" fill-opacity="0" stroke="#19b5fe" stroke-width="2" stroke-opacity="1"></use></g></g><g><g></g><use xlink:href="#b1Ia4MFhUw" opacity="1" fill="#fbfbfb" fill-opacity="0.04"></use><g><use xlink:href="#b1Ia4MFhUw" opacity="1" fill-opacity="0" stroke="#19b5fe" stroke-width="2" stroke-opacity="1"></use></g></g></g><g><g><g></g><use xlink:href="#a5RrCIQBUz" opacity="1" fill="#fbfbfb" fill-opacity="0.04"></use><g><use xlink:href="#a5RrCIQBUz" opacity="1" fill-opacity="0" stroke="#19b5fe" stroke-width="2" stroke-opacity="1"></use></g></g><g><g></g><use xlink:href="#l7DrIizTs" opacity="1" fill="#fbfbfb" fill-opacity="0.04"></use><g><use xlink:href="#l7DrIizTs" opacity="1" fill-opacity="0" stroke="#19b5fe" stroke-width="2" stroke-opacity="1"></use></g></g></g><g><g><g></g><use xlink:href="#ckbFM17fB" opacity="1" fill="#fbfbfb" fill-opacity="0.04"></use><g><use xlink:href="#ckbFM17fB" opacity="1" fill-opacity="0" stroke="#19b5fe" stroke-width="2" stroke-opacity="1"></use></g></g><g><g></g><use xlink:href="#f23Ulu5fi" opacity="1" fill="#fbfbfb" fill-opacity="0.04"></use><g><use xlink:href="#f23Ulu5fi" opacity="1" fill-opacity="0" stroke="#19b5fe" stroke-width="2" stroke-opacity="1"></use></g></g></g><g><g><g></g><use xlink:href="#a2Avt6fL3D" opacity="1" fill="#fbfbfb" fill-opacity="0.04"></use><g><use xlink:href="#a2Avt6fL3D" opacity="1" fill-opacity="0" stroke="#19b5fe" stroke-width="2" stroke-opacity="1"></use></g></g><g><g></g><use xlink:href="#c3i6OKYlqC" opacity="1" fill="#fbfbfb" fill-opacity="0.04"></use><g><use xlink:href="#c3i6OKYlqC" opacity="1" fill-opacity="0" stroke="#19b5fe" stroke-width="2" stroke-opacity="1"></use></g></g></g><g><g></g><use xlink:href="#ar5JGwKrz" opacity="1" fill="#fbfbfb" fill-opacity="0.04"></use><g><use xlink:href="#ar5JGwKrz" opacity="1" fill-opacity="0" stroke="#19b5fe" stroke-width="2" stroke-opacity="1"></use></g></g><g><use xlink:href="#dlPeUPOYr" opacity="1" fill="#fbfbfb" fill-opacity="0.04"></use><g><use xlink:href="#dlPeUPOYr" opacity="1" fill-opacity="0" stroke="#19b5fe" stroke-width="2" stroke-opacity="1"></use></g></g><g><g><use xlink:href="#i2mwKlQXL" opacity="1" fill-opacity="0" stroke="#19b5fe" stroke-width="2" stroke-opacity="1"></use></g></g><g><g><use xlink:href="#b3lydVNaGs" opacity="1" fill-opacity="0" stroke="#19b5fe" stroke-width="2" stroke-opacity="1"></use></g></g><g><g><use xlink:href="#i9FqWvn49" opacity="1" fill-opacity="0" stroke="#19b5fe" stroke-width="2" stroke-opacity="1"></use></g></g><g><use xlink:href="#d2e3yA0yHh" opacity="1" fill="#fbfbfb" fill-opacity="0.04"></use><g><use xlink:href="#d2e3yA0yHh" opacity="1" fill-opacity="0" stroke="#19b5fe" stroke-width="2" stroke-opacity="1"></use></g></g><g><g><use xlink:href="#c3pDxdqYLZ" opacity="1" fill-opacity="0" stroke="#19b5fe" stroke-width="2" stroke-opacity="1"></use></g></g><g><g><use xlink:href="#h1iyvIzfM4" opacity="1" fill-opacity="0" stroke="#19b5fe" stroke-width="2" stroke-opacity="1"></use></g></g><g><g><use xlink:href="#a17O3wFJqc" opacity="1" fill-opacity="0" stroke="#19b5fe" stroke-width="2" stroke-opacity="1"></use></g></g><g><use xlink:href="#b1i1JZTLkv" opacity="1" fill="#fbfbfb" fill-opacity="0.04"></use><g><use xlink:href="#b1i1JZTLkv" opacity="1" fill-opacity="0" stroke="#19b5fe" stroke-width="2" stroke-opacity="1"></use></g></g><g><use xlink:href="#hMX3enQZ5" opacity="1" fill="#fbfbfb" fill-opacity="0.04"></use><g><use xlink:href="#hMX3enQZ5" opacity="1" fill-opacity="0" stroke="#19b5fe" stroke-width="2" stroke-opacity="1"></use></g></g><g><use xlink:href="#a3N87Kze2" opacity="1" fill="#fbfbfb" fill-opacity="0.04"></use><g><use xlink:href="#a3N87Kze2" opacity="1" fill-opacity="0" stroke="#19b5fe" stroke-width="2" stroke-opacity="1"></use></g></g><g><g><use xlink:href="#kGZTv9gtC" opacity="1" fill="#fbfbfb" fill-opacity="0.04"></use><g><use xlink:href="#kGZTv9gtC" opacity="1" fill-opacity="0" stroke="#19b5fe" stroke-width="2" stroke-opacity="1"></use></g></g><g><use xlink:href="#b1nWWWfcdA" opacity="1" fill="#fbfbfb" fill-opacity="0.04"></use><g><use xlink:href="#b1nWWWfcdA" opacity="1" fill-opacity="0" stroke="#19b5fe" stroke-width="2" stroke-opacity="1"></use></g></g><g><use xlink:href="#gpnoChx5E" opacity="1" fill="#fbfbfb" fill-opacity="0.04"></use><g><use xlink:href="#gpnoChx5E" opacity="1" fill-opacity="0" stroke="#19b5fe" stroke-width="2" stroke-opacity="1"></use></g></g></g><g><g><use xlink:href="#bwaZKVjhg" opacity="1" fill="#fbfbfb" fill-opacity="0.04"></use><g><use xlink:href="#bwaZKVjhg" opacity="1" fill-opacity="0" stroke="#19b5fe" stroke-width="2" stroke-opacity="1"></use></g></g><g><use xlink:href="#g4lk84nQqu" opacity="1" fill="#fbfbfb" fill-opacity="0.04"></use><g><use xlink:href="#g4lk84nQqu" opacity="1" fill-opacity="0" stroke="#19b5fe" stroke-width="2" stroke-opacity="1"></use></g></g><g><use xlink:href="#ceeeMpcu4" opacity="1" fill="#fbfbfb" fill-opacity="0.04"></use><g><use xlink:href="#ceeeMpcu4" opacity="1" fill-opacity="0" stroke="#19b5fe" stroke-width="2" stroke-opacity="1"></use></g></g></g><g><g><use xlink:href="#b1WVZERi9T" opacity="1" fill-opacity="0" stroke="#19b5fe" stroke-width="2" stroke-opacity="1"></use></g></g><g><g><use xlink:href="#d1IfVLQXVM" opacity="1" fill-opacity="0" stroke="#19b5fe" stroke-width="2" stroke-opacity="1"></use></g></g><g><g><use xlink:href="#b3WXdQzKZg" opacity="1" fill-opacity="0" stroke="#19b5fe" stroke-width="2" stroke-opacity="1"></use></g></g><g><g><use xlink:href="#bqOeVpCiP" opacity="1" fill-opacity="0" stroke="#19b5fe" stroke-width="2" stroke-opacity="1"></use></g></g><g><g><use xlink:href="#a10gyPU82O" opacity="1" fill-opacity="0" stroke="#19b5fe" stroke-width="2" stroke-opacity="1"></use></g></g><g><g><use xlink:href="#h3eOMP7Kun" opacity="1" fill-opacity="0" stroke="#19b5fe" stroke-width="2" stroke-opacity="1"></use></g></g><g><g><use xlink:href="#a1IaQ0eVQl" opacity="1" fill-opacity="0" stroke="#19b5fe" stroke-width="2" stroke-opacity="1"></use></g></g><g><use xlink:href="#ajodAya4g" opacity="1" fill="#fbfbfb" fill-opacity="0.04"></use><g><use xlink:href="#ajodAya4g" opacity="1" fill-opacity="0" stroke="#19b5fe" stroke-width="2" stroke-opacity="1"></use></g></g><g><use xlink:href="#aaGTWzt9b" opacity="1" fill="#fbfbfb" fill-opacity="0.04"></use><g><use xlink:href="#aaGTWzt9b" opacity="1" fill-opacity="0" stroke="#19b5fe" stroke-width="2" stroke-opacity="1"></use></g></g><g><g><use xlink:href="#eMYLZp1TI" opacity="1" fill="#fbfbfb" fill-opacity="0.04"></use><g><use xlink:href="#eMYLZp1TI" opacity="1" fill-opacity="0" stroke="#19b5fe" stroke-width="2" stroke-opacity="1"></use></g></g><g><use xlink:href="#bhXQljUNu" opacity="1" fill="#fbfbfb" fill-opacity="0.04"></use><g><use xlink:href="#bhXQljUNu" opacity="1" fill-opacity="0" stroke="#19b5fe" stroke-width="2" stroke-opacity="1"></use></g></g></g><g><g><use xlink:href="#e2SdnQYvof" opacity="1" fill="#fbfbfb" fill-opacity="0.04"></use><g><use xlink:href="#e2SdnQYvof" opacity="1" fill-opacity="0" stroke="#19b5fe" stroke-width="2" stroke-opacity="1"></use></g></g><g><use xlink:href="#a3pmCEsi0Z" opacity="1" fill="#fbfbfb" fill-opacity="0.04"></use><g><use xlink:href="#a3pmCEsi0Z" opacity="1" fill-opacity="0" stroke="#19b5fe" stroke-width="2" stroke-opacity="1"></use></g></g></g><g><g><use xlink:href="#f2SMrGVwSp" opacity="1" fill="#fbfbfb" fill-opacity="0.04"></use><g><use xlink:href="#f2SMrGVwSp" opacity="1" fill-opacity="0" stroke="#19b5fe" stroke-width="2" stroke-opacity="1"></use></g></g><g><use xlink:href="#aoVOaiNJE" opacity="1" fill="#fbfbfb" fill-opacity="0.04"></use><g><use xlink:href="#aoVOaiNJE" opacity="1" fill-opacity="0" stroke="#19b5fe" stroke-width="2" stroke-opacity="1"></use></g></g></g><g><g><use xlink:href="#c2k6RC26Nj" opacity="1" fill="#fbfbfb" fill-opacity="0.04"></use><g><use xlink:href="#c2k6RC26Nj" opacity="1" fill-opacity="0" stroke="#19b5fe" stroke-width="2" stroke-opacity="1"></use></g></g><g><use xlink:href="#auongTFLb" opacity="1" fill="#fbfbfb" fill-opacity="0.04"></use><g><use xlink:href="#auongTFLb" opacity="1" fill-opacity="0" stroke="#19b5fe" stroke-width="2" stroke-opacity="1"></use></g></g></g><g><g><use xlink:href="#ajmH1MHvZ" opacity="1" fill="#fbfbfb" fill-opacity="0.04"></use><g><use xlink:href="#ajmH1MHvZ" opacity="1" fill-opacity="0" stroke="#19b5fe" stroke-width="2" stroke-opacity="1"></use></g></g><g><use xlink:href="#bGJYwcwVI" opacity="1" fill="#fbfbfb" fill-opacity="0.04"></use><g><use xlink:href="#bGJYwcwVI" opacity="1" fill-opacity="0" stroke="#19b5fe" stroke-width="2" stroke-opacity="1"></use></g></g></g><g><g><use xlink:href="#a4t2aMMLp" opacity="1" fill="#fbfbfb" fill-opacity="0.04"></use><g><use xlink:href="#a4t2aMMLp" opacity="1" fill-opacity="0" stroke="#19b5fe" stroke-width="2" stroke-opacity="1"></use></g></g><g><use xlink:href="#eG7lhvlrL" opacity="1" fill="#fbfbfb" fill-opacity="0.04"></use><g><use xlink:href="#eG7lhvlrL" opacity="1" fill-opacity="0" stroke="#19b5fe" stroke-width="2" stroke-opacity="1"></use></g></g></g><g><g><use xlink:href="#f2JOu0ObPW" opacity="1" fill="#fbfbfb" fill-opacity="0.04"></use><g><use xlink:href="#f2JOu0ObPW" opacity="1" fill-opacity="0" stroke="#19b5fe" stroke-width="2" stroke-opacity="1"></use></g></g><g><use xlink:href="#e1k7F8TfCX" opacity="1" fill="#fbfbfb" fill-opacity="0.04"></use><g><use xlink:href="#e1k7F8TfCX" opacity="1" fill-opacity="0" stroke="#19b5fe" stroke-width="2" stroke-opacity="1"></use></g></g></g><g><use xlink:href="#cTYw8ecoK" opacity="1" fill="#fbfbfb" fill-opacity="0.04"></use><g><use xlink:href="#cTYw8ecoK" opacity="1" fill-opacity="0" stroke="#19b5fe" stroke-width="2" stroke-opacity="1"></use></g></g><g><g><use xlink:href="#f124J0sKy3" opacity="1" fill-opacity="0" stroke="#19b5fe" stroke-width="2" stroke-opacity="1"></use></g></g><g><g><use xlink:href="#b18w2nuakg" opacity="1" fill-opacity="0" stroke="#19b5fe" stroke-width="2" stroke-opacity="1"></use></g></g><g><use xlink:href="#b2BGnynJLo" opacity="1" fill="#fbfbfb" fill-opacity="0.04"></use><g><use xlink:href="#b2BGnynJLo" opacity="1" fill-opacity="0" stroke="#19b5fe" stroke-width="2" stroke-opacity="1"></use></g></g><g><use xlink:href="#hq2ctm2tK" opacity="1" fill="#fbfbfb" fill-opacity="0.04"></use><g><use xlink:href="#hq2ctm2tK" opacity="1" fill-opacity="0" stroke="#19b5fe" stroke-width="2" stroke-opacity="1"></use></g></g><g><use xlink:href="#b3yp6YrWA" opacity="1" fill="#fbfbfb" fill-opacity="0.04"></use><g><use xlink:href="#b3yp6YrWA" opacity="1" fill-opacity="0" stroke="#19b5fe" stroke-width="2" stroke-opacity="1"></use></g></g><g><g><use xlink:href="#d17KbJHa2M" opacity="1" fill-opacity="0" stroke="#19b5fe" stroke-width="2" stroke-opacity="1"></use></g></g><g><use xlink:href="#h3GODWFhsR" opacity="1" fill="#fbfbfb" fill-opacity="0.04"></use><g><use xlink:href="#h3GODWFhsR" opacity="1" fill-opacity="0" stroke="#19b5fe" stroke-width="2" stroke-opacity="1"></use></g></g><g><use xlink:href="#fHcOlfiSt" opacity="1" fill="#fbfbfb" fill-opacity="0.04"></use><g><use xlink:href="#fHcOlfiSt" opacity="1" fill-opacity="0" stroke="#19b5fe" stroke-width="2" stroke-opacity="1"></use></g></g><g><g><use xlink:href="#h7yuAhD9s" opacity="1" fill-opacity="0" stroke="#19b5fe" stroke-width="2" stroke-opacity="1"></use></g></g><g><g><use xlink:href="#c1hZMLEC6I" opacity="1" fill-opacity="0" stroke="#19b5fe" stroke-width="2" stroke-opacity="1"></use></g></g><g><use xlink:href="#d1tx06MPf8" opacity="1" fill="#fbfbfb" fill-opacity="0"></use><g><use xlink:href="#d1tx06MPf8" opacity="1" fill-opacity="0" stroke="#19b5fe" stroke-width="2" stroke-opacity="1"></use></g></g><g><g><g><use xlink:href="#a1fAPthn0L" opacity="1" fill-opacity="0" stroke="#19b5fe" stroke-width="2" stroke-opacity="1"></use></g></g><g><g><use xlink:href="#a11ex0k6nR" opacity="1" fill-opacity="0" stroke="#19b5fe" stroke-width="2" stroke-opacity="1"></use></g></g><g><g><use xlink:href="#a8guv224n" opacity="1" fill-opacity="0" stroke="#19b5fe" stroke-width="2" stroke-opacity="1"></use></g></g></g><g><use xlink:href="#e33WqcjBy4" opacity="1" fill="#fbfbfb" fill-opacity="0"></use><g><use xlink:href="#e33WqcjBy4" opacity="1" fill-opacity="0" stroke="#19b5fe" stroke-width="2" stroke-opacity="1"></use></g></g><g><use xlink:href="#akxy4wcQq" opacity="1" fill="#fbfbfb" fill-opacity="0"></use><g><use xlink:href="#akxy4wcQq" opacity="1" fill-opacity="0" stroke="#19b5fe" stroke-width="2" stroke-opacity="1"></use></g></g><g><use xlink:href="#a1pnhaK0We" opacity="1" fill="#fbfbfb" fill-opacity="0"></use><g><use xlink:href="#a1pnhaK0We" opacity="1" fill-opacity="0" stroke="#19b5fe" stroke-width="2" stroke-opacity="1"></use></g></g><g><use xlink:href="#b2H7odRzUZ" opacity="1" fill="#fbfbfb" fill-opacity="0.06"></use><g><use xlink:href="#b2H7odRzUZ" opacity="1" fill-opacity="0" stroke="#19b5fe" stroke-width="2" stroke-opacity="1"></use></g></g><g><use xlink:href="#a48ZFlFzkv" opacity="1" fill="#fbfbfb" fill-opacity="0.04"></use><g><use xlink:href="#a48ZFlFzkv" opacity="1" fill-opacity="0" stroke="#19b5fe" stroke-width="2" stroke-opacity="1"></use></g></g><g><use xlink:href="#b2eBBRHqTw" opacity="1" fill="#fbfbfb" fill-opacity="0.04"></use><g><use xlink:href="#b2eBBRHqTw" opacity="1" fill-opacity="0" stroke="#19b5fe" stroke-width="2" stroke-opacity="1"></use></g></g><g><use xlink:href="#brbAQSYz" opacity="1" fill="#fbfbfb" fill-opacity="0.04"></use><g><use xlink:href="#brbAQSYz" opacity="1" fill-opacity="0" stroke="#19b5fe" stroke-width="2" stroke-opacity="1"></use></g></g><g><use xlink:href="#bCMPyXhjp" opacity="1" fill="#fbfbfb" fill-opacity="0.04"></use><g><use xlink:href="#bCMPyXhjp" opacity="1" fill-opacity="0" stroke="#19b5fe" stroke-width="2" stroke-opacity="1"></use></g></g><g><use xlink:href="#b18m5knkjl" opacity="1" fill="#fbfbfb" fill-opacity="0.04"></use><g><use xlink:href="#b18m5knkjl" opacity="1" fill-opacity="0" stroke="#19b5fe" stroke-width="2" stroke-opacity="1"></use></g></g></g></svg>