<?xml version="1.0" encoding="UTF-8" standalone="no"?>
<!DOCTYPE svg PUBLIC "-//W3C//DTD SVG 1.1//EN" "http://www.w3.org/Graphics/SVG/1.1/DTD/svg11.dtd">
<svg version="1.1" xmlns="http://www.w3.org/2000/svg" xmlns:xlink="http://www.w3.org/1999/xlink" preserveAspectRatio="xMidYMid meet" viewBox="55.452488865991405 6.080325911440497 585.5992035421964 538.190338758551" width="581.1" height="533.69"><defs><path d="M225.81 146.05C223.27 145.32 220.63 146.77 219.89 149.3C215.35 164.98 203.04 207.45 198.49 223.13C197.76 225.66 199.21 228.3 201.74 229.04C220.8 234.56 273.38 249.81 292.43 255.33C294.96 256.07 297.61 254.61 298.34 252.08C302.89 236.4 315.2 193.93 319.75 178.25C320.48 175.72 319.02 173.08 316.49 172.34C297.44 166.82 244.86 151.57 225.81 146.05Z" id="a5C9BG1yR"></path><path d="M323.3 181.18C321.16 180.56 318.92 181.8 318.3 183.94C314.45 197.22 304.03 233.17 300.18 246.45C299.55 248.59 300.79 250.83 302.93 251.45C320.8 256.63 370.53 271.05 388.4 276.23C390.54 276.85 392.78 275.62 393.4 273.48C397.25 260.2 407.68 224.25 411.53 210.97C412.15 208.83 410.91 206.59 408.77 205.96C390.9 200.78 341.17 186.37 323.3 181.18Z" id="aEJkVK7c2"></path><path d="M414.99 202.06C414.3 201.87 413.59 202.26 413.4 202.94C406.51 226.68 386.22 296.67 379.33 320.42C379.14 321.1 379.53 321.81 380.21 322.01C385.09 323.42 398.5 327.31 403.38 328.72C404.06 328.92 404.77 328.53 404.97 327.85C411.85 304.11 432.14 234.11 439.03 210.37C439.23 209.69 438.83 208.98 438.15 208.78C433.27 207.37 419.87 203.48 414.99 202.06Z" id="fnvJFJmy"></path><path d="M438.79 222.13C437.22 221.68 435.58 222.58 435.12 224.15C431.91 235.22 423.04 265.84 419.81 276.97C419.4 278.37 420.21 279.84 421.62 280.25C425.56 281.39 435.41 284.25 451.18 288.82C460.31 291.47 466.02 293.13 468.31 293.79C473.79 295.38 479.52 292.22 481.11 286.74C483.91 277.09 489.33 258.36 492.11 248.79C493.76 243.08 490.48 237.12 484.77 235.46C475.01 232.63 450.06 225.4 438.79 222.13Z" id="bC5Re30rj"></path><path d="M574.43 281.8L536.8 270.27L529.43 294.32L567.06 305.84L574.43 281.8Z" id="b5nuY0Izj"></path><path d="M495.47 246.93C494.25 246.58 492.97 247.28 492.61 248.5C490.11 257.13 483.2 280.97 480.69 289.64C480.37 290.73 481 291.87 482.09 292.19C485.16 293.08 492.84 295.31 505.11 298.87C512.23 300.93 516.68 302.22 518.45 302.73C522.72 303.97 527.18 301.52 528.42 297.25C530.6 289.73 534.83 275.15 536.99 267.69C538.28 263.25 535.72 258.6 531.28 257.31C523.67 255.11 504.24 249.47 495.47 246.93Z" id="ctq3eCTzZ"></path><path d="M576.07 278.36C575.8 278.28 575.51 278.44 575.43 278.71C573.63 284.91 568.38 303.01 566.59 309.2C566.51 309.48 566.67 309.77 566.94 309.85C568.92 310.42 574.35 311.99 576.32 312.57C576.6 312.65 576.88 312.49 576.96 312.21C578.76 306.01 584.01 287.92 585.81 281.72C585.89 281.45 585.73 281.16 585.45 281.08C583.48 280.5 578.05 278.93 576.07 278.36Z" id="d2ddkXaKqO"></path><path d="M551.14 231.07C551.25 230.72 551.05 230.35 550.7 230.24C539.49 226.81 506.49 216.71 495.28 213.28C494.93 213.17 494.56 213.37 494.45 213.72C493.68 216.24 491.56 223.17 490.79 225.69C490.68 226.04 490.88 226.42 491.23 226.52C502.44 229.96 535.43 240.06 546.64 243.49C546.99 243.59 547.37 243.4 547.47 243.04C548.25 240.52 550.37 233.59 551.14 231.07Z" id="h5waDvZeVZ"></path><path d="M520.95 237.88C521.01 237.67 520.89 237.45 520.68 237.39C519.4 236.99 515.91 235.93 514.62 235.53C514.41 235.47 514.19 235.58 514.13 235.79C513.21 238.78 510.59 247.35 509.68 250.33C509.61 250.54 509.73 250.76 509.94 250.82C511.23 251.22 514.72 252.28 516 252.68C516.21 252.74 516.43 252.62 516.5 252.42C517.41 249.43 520.03 240.86 520.95 237.88Z" id="a12CW9ITni"></path><path d="M351.98 265.39L373.19 195.98" id="bTV5Bkaa2"></path><path d="M331.88 260.42L352.94 190.08" id="gjydkd0g"></path><path d="" id="b1kQLKjLHW"></path><path d="M221.32 234.23L245.25 152.02" id="c1PGfc4sU6"></path><path d="M212.73 232.08L236.97 149.26" id="a1aVwQchR"></path><path d="" id="c7vL20YW5n"></path><path d="" id="dTl0e9a3S"></path><path d="M538.03 226.36C537.37 226.15 536.66 226.5 536.45 227.16C535.65 229.55 533.66 235.54 532.87 237.93C532.65 238.59 533 239.29 533.66 239.51C533.98 239.62 533.74 239.54 534.05 239.64C534.71 239.86 535.41 239.5 535.63 238.85C536.43 236.46 538.41 230.47 539.21 228.07C539.43 227.42 539.07 226.71 538.42 226.49C538.1 226.39 538.34 226.47 538.03 226.36Z" id="bsrSF0GeI"></path><path d="M504.9 216.2C504.24 215.99 503.53 216.34 503.32 216.99C502.52 219.39 500.53 225.38 499.74 227.77C499.52 228.42 499.88 229.13 500.53 229.35C500.85 229.45 500.61 229.37 500.92 229.48C501.58 229.7 502.28 229.34 502.5 228.69C503.3 226.29 505.29 220.3 506.08 217.91C506.3 217.26 505.94 216.55 505.29 216.33C504.97 216.23 505.21 216.31 504.9 216.2Z" id="a7BK8Bgd9"></path><path d="M381.64 348.04C378.88 348.04 376.64 350.28 376.64 353.04C376.64 354.95 376.64 355.69 376.64 357.6C376.64 360.36 378.88 362.6 381.64 362.6C401.43 362.6 455.81 362.6 475.6 362.6C478.37 362.6 480.6 360.36 480.6 357.6C480.6 355.69 480.6 354.95 480.6 353.04C480.6 350.28 478.37 348.04 475.6 348.04C455.81 348.04 401.43 348.04 381.64 348.04Z" id="i1JBfqjscB"></path><path d="M421.54 531.28C421.52 534.04 423.75 536.29 426.51 536.3C428.42 536.31 429.16 536.32 431.07 536.33C433.83 536.35 436.09 534.12 436.1 531.36C436.31 494.9 436.91 390.52 437.12 354.06C437.14 351.3 434.91 349.05 432.15 349.03C430.24 349.02 429.5 349.02 427.59 349.01C424.83 348.99 422.58 351.22 422.56 353.98C422.35 390.44 421.75 494.82 421.54 531.28Z" id="b368cMVcRF"></path><path d="M383.52 536.32L548.54 536.32" id="a7HyBLJ8K"></path><path d="M561.78 536.32L590.9 536.32" id="cf04ukva"></path><path d="M271.45 536.32L368.08 536.32" id="e5q5YsZ0R2"></path><path d="M234.83 536.32L259.12 536.32" id="a1j1oGU6mq"></path><path d="M633.7 536.32L599.73 536.32" id="e1nd0fOmSQ"></path><path d="M318.85 535.75C323.35 535.59 326.49 535.6 328.25 535.75C330.89 535.99 334.1 536.91 335.35 535.66C336.08 534.92 336.06 536.13 336.38 535.09C343.53 511.86 361.6 452.27 390.57 356.32C391.37 353.67 389.88 350.88 387.24 350.06C385.41 349.5 384.71 349.28 382.88 348.72C380.23 347.91 377.43 349.38 376.6 352.02C368.9 376.52 349.65 437.76 318.85 535.75Z" id="b1ujmqr6y5"></path><path d="M538.21 535.26C532.11 535.41 528.3 535.51 526.77 535.55C524.91 535.59 523.17 536.81 521.93 535.55C521.19 534.81 521.21 536.59 520.89 535.55C513.7 512.19 495.54 452.3 466.42 355.86C465.62 353.21 467.11 350.41 469.75 349.6C471.58 349.04 472.28 348.82 474.11 348.26C476.75 347.45 479.56 348.92 480.39 351.56C488.1 376.05 507.37 437.29 538.21 535.26Z" id="aJj7i3etZ"></path><path d="M436.83 338.76L429.38 338.78L424 338.79C407.93 338.84 397.89 338.87 393.87 338.88C392.75 338.89 391.85 339.8 391.86 340.91C391.86 342.19 391.86 343.55 391.87 344.71C391.87 346.16 393.04 347.32 394.48 347.32C408.83 347.27 448.89 347.15 463.14 347.11C464.84 347.1 466.21 345.72 466.21 344.03C466.2 342.95 466.2 342.1 466.2 340.84C466.19 339.64 465.21 338.67 464.01 338.67C460.38 338.68 451.32 338.71 436.83 338.76Z" id="e2GaGfgLLb"></path><path d="M428.63 305.88C420.24 305.88 413.44 312.69 413.44 321.08C413.44 323.42 413.44 329.29 413.44 338.67L444.62 338.67C444.62 329.5 444.62 323.77 444.62 321.48C444.62 312.87 437.64 305.88 429.02 305.88C425.91 305.88 431.83 305.88 428.63 305.88Z" id="d3coRApRp"></path><path d="M410.41 310.82L416.16 312.89" id="a3l9geZO0"></path><path d="M406.81 322.69L413.44 325.03" id="b5Q7px5qEg"></path><path d="M371.17 295.16C370.51 294.96 369.81 295.34 369.61 296C368.62 299.3 366.01 308 365.02 311.3C364.83 311.96 365.2 312.66 365.86 312.85C367.02 313.2 369.29 313.88 370.45 314.23C371.11 314.43 371.8 314.05 372 313.39C372.99 310.09 375.6 301.39 376.59 298.09C376.79 297.43 376.41 296.73 375.75 296.53C374.59 296.19 372.32 295.51 371.17 295.16Z" id="a2KK27iT"></path><path d="M382.96 307.43C383.52 306.81 383.88 306.42 384.02 306.27C384.43 305.82 384.24 305.09 383.66 304.9C381.85 304.32 377.36 302.85 375.48 302.24C375 302.09 374.49 302.35 374.33 302.82C373.94 304.04 373.04 306.81 372.64 308.02C372.49 308.49 372.75 309 373.23 309.15C375.08 309.71 380.05 311.22 381.97 311.8C382.23 311.88 382.5 311.7 382.53 311.43C382.59 310.9 382.73 309.56 382.96 307.43Z" id="bPJ2ahXR3"></path><path d="M421.75 325.96C421.75 330.06 425.01 333.39 429.03 333.39C433.05 333.39 436.31 330.06 436.31 325.96C436.31 321.86 433.05 318.53 429.03 318.53C425.01 318.53 421.75 321.86 421.75 325.96Z" id="a55j0lcYAF"></path><path d="M551.17 102.42C551.17 126.39 570.63 145.86 594.61 145.86C618.59 145.86 638.05 126.39 638.05 102.42C638.05 78.44 618.59 58.98 594.61 58.98C570.63 58.98 551.17 78.44 551.17 102.42Z" id="b2YD0cOQVr"></path><path d="M609.43 122.58C609.43 126.6 612.7 129.86 616.71 129.86C620.73 129.86 624 126.6 624 122.58C624 118.56 620.73 115.3 616.71 115.3C612.7 115.3 609.43 118.56 609.43 122.58Z" id="cZCzbIZSH"></path><path d="M570.78 106.42C570.78 108.43 572.42 110.06 574.43 110.06C576.44 110.06 578.07 108.43 578.07 106.42C578.07 104.41 576.44 102.78 574.43 102.78C572.42 102.78 570.78 104.41 570.78 106.42Z" id="aJR4iG81y"></path><path d="M240.79 365.07L226.97 367.19L236.97 377.43L234.61 391.91L246.97 385.07L259.33 391.91L256.97 377.43L266.97 367.19L253.15 365.07L246.97 351.91L240.79 365.07Z" id="c4lyS7Fgo2"></path><path d="M398.7 147.46L389.47 148.87L396.15 155.71L394.57 165.36L402.82 160.8L411.07 165.36L409.49 155.71L416.16 148.87L406.94 147.46L402.82 138.67L398.7 147.46Z" id="e10OgjAgog"></path><path d="M575.79 350.76L566.57 352.17L573.24 359.01L571.66 368.66L579.91 364.1L588.16 368.66L586.58 359.01L593.25 352.17L584.03 350.76L579.91 341.97L575.79 350.76Z" id="b20QL5ufh7"></path><path d="M466.36 135.75L452.54 137.86L462.54 148.11L460.18 162.58L472.54 155.75L484.9 162.58L482.54 148.11L492.54 137.86L478.72 135.75L472.54 122.58L466.36 135.75Z" id="h2yoPy81gt"></path><path d="M201.98 40.38C201.98 58.49 216.83 73.19 235.13 73.19C253.43 73.19 268.29 58.49 268.29 40.38C268.29 22.28 253.43 7.58 235.13 7.58C216.83 7.58 201.98 22.28 201.98 40.38Z" id="a5E2nt8tA9"></path><path d="M245.76 29.6C245.76 32.63 248.25 35.09 251.32 35.09C254.38 35.09 256.87 32.63 256.87 29.6C256.87 26.56 254.38 24.1 251.32 24.1C248.25 24.1 245.76 26.56 245.76 29.6Z" id="bDKmpylCE"></path><path d="M212.19 36.8C212.19 38.32 213.44 39.55 214.97 39.55C216.51 39.55 217.75 38.32 217.75 36.8C217.75 35.28 216.51 34.05 214.97 34.05C213.44 34.05 212.19 35.28 212.19 36.8Z" id="a4i4rmDZ2N"></path><path d="" id="a17djDjYk4"></path><path d="" id="e1YjYkc7NQ"></path><path d="M322.08 535.66L335.79 535.66" id="a1AWGXJ4GO"></path><path d="M108.21 149.64C93.13 139.63 72.66 143.87 62.54 159.12C52.41 174.36 56.44 194.87 71.52 204.89C86.6 214.9 107.06 210.66 117.19 195.41C127.31 180.17 123.29 159.66 108.21 149.64Z" id="a1lYYspQJe"></path><path d="M92.97 192.08C90.44 190.4 87.01 191.12 85.32 193.67C83.62 196.23 84.29 199.66 86.82 201.34C89.35 203.02 92.78 202.31 94.48 199.75C96.17 197.2 95.5 193.76 92.97 192.08Z" id="c1h5UKQDD4"></path><path d="M105.54 160.14C104.27 159.3 102.56 159.65 101.71 160.93C100.86 162.21 101.2 163.93 102.46 164.77C103.73 165.61 105.44 165.25 106.29 163.97C107.14 162.7 106.8 160.98 105.54 160.14Z" id="b3NHY1Ytw5"></path></defs><g><g><use xlink:href="#a5C9BG1yR" opacity="1" fill="#19b5fe" fill-opacity="1"></use><g><use xlink:href="#a5C9BG1yR" opacity="1" fill-opacity="0" stroke="#00496b" stroke-width="3" stroke-opacity="1"></use></g></g><g><use xlink:href="#aEJkVK7c2" opacity="1" fill="#19b5fe" fill-opacity="1"></use><g><use xlink:href="#aEJkVK7c2" opacity="1" fill-opacity="0" stroke="#00496b" stroke-width="3" stroke-opacity="1"></use></g></g><g><use xlink:href="#fnvJFJmy" opacity="1" fill="#19b5fe" fill-opacity="1"></use><g><use xlink:href="#fnvJFJmy" opacity="1" fill-opacity="0" stroke="#00496b" stroke-width="3" stroke-opacity="1"></use></g></g><g><use xlink:href="#bC5Re30rj" opacity="1" fill="#19b5fe" fill-opacity="1"></use><g><use xlink:href="#bC5Re30rj" opacity="1" fill-opacity="0" stroke="#00496b" stroke-width="3" stroke-opacity="1"></use></g></g><g><g></g><use xlink:href="#b5nuY0Izj" opacity="1" fill="#19b5fe" fill-opacity="1"></use><g><use xlink:href="#b5nuY0Izj" opacity="1" fill-opacity="0" stroke="#00496b" stroke-width="3" stroke-opacity="1"></use></g></g><g><use xlink:href="#ctq3eCTzZ" opacity="1" fill="#19b5fe" fill-opacity="1"></use><g><use xlink:href="#ctq3eCTzZ" opacity="1" fill-opacity="0" stroke="#00496b" stroke-width="3" stroke-opacity="1"></use></g></g><g><use xlink:href="#d2ddkXaKqO" opacity="1" fill="#19b5fe" fill-opacity="1"></use><g><use xlink:href="#d2ddkXaKqO" opacity="1" fill-opacity="0" stroke="#00496b" stroke-width="3" stroke-opacity="1"></use></g></g><g><use xlink:href="#h5waDvZeVZ" opacity="1" fill="#19b5fe" fill-opacity="1"></use><g><use xlink:href="#h5waDvZeVZ" opacity="1" fill-opacity="0" stroke="#00496b" stroke-width="3" stroke-opacity="1"></use></g></g><g><use xlink:href="#a12CW9ITni" opacity="1" fill="#19b5fe" fill-opacity="1"></use><g><use xlink:href="#a12CW9ITni" opacity="1" fill-opacity="0" stroke="#00496b" stroke-width="3" stroke-opacity="1"></use></g></g><g><use xlink:href="#bTV5Bkaa2" opacity="1" fill="#19b5fe" fill-opacity="1"></use><g><use xlink:href="#bTV5Bkaa2" opacity="1" fill-opacity="0" stroke="#00496b" stroke-width="3" stroke-opacity="1"></use></g></g><g><use xlink:href="#gjydkd0g" opacity="1" fill="#19b5fe" fill-opacity="1"></use><g><use xlink:href="#gjydkd0g" opacity="1" fill-opacity="0" stroke="#00496b" stroke-width="3" stroke-opacity="1"></use></g></g><g><use xlink:href="#b1kQLKjLHW" opacity="1" fill="#19b5fe" fill-opacity="1"></use><g><use xlink:href="#b1kQLKjLHW" opacity="1" fill-opacity="0" stroke="#00496b" stroke-width="3" stroke-opacity="1"></use></g></g><g><use xlink:href="#c1PGfc4sU6" opacity="1" fill="#19b5fe" fill-opacity="1"></use><g><use xlink:href="#c1PGfc4sU6" opacity="1" fill-opacity="0" stroke="#00496b" stroke-width="3" stroke-opacity="1"></use></g></g><g><use xlink:href="#a1aVwQchR" opacity="1" fill="#19b5fe" fill-opacity="1"></use><g><use xlink:href="#a1aVwQchR" opacity="1" fill-opacity="0" stroke="#00496b" stroke-width="3" stroke-opacity="1"></use></g></g><g><use xlink:href="#c7vL20YW5n" opacity="1" fill="#19b5fe" fill-opacity="1"></use><g><use xlink:href="#c7vL20YW5n" opacity="1" fill-opacity="0" stroke="#00496b" stroke-width="3" stroke-opacity="1"></use></g></g><g><use xlink:href="#dTl0e9a3S" opacity="1" fill="#19b5fe" fill-opacity="1"></use><g><use xlink:href="#dTl0e9a3S" opacity="1" fill-opacity="0" stroke="#00496b" stroke-width="3" stroke-opacity="1"></use></g></g><g><use xlink:href="#bsrSF0GeI" opacity="1" fill="#19b5fe" fill-opacity="1"></use><g><use xlink:href="#bsrSF0GeI" opacity="1" fill-opacity="0" stroke="#00496b" stroke-width="3" stroke-opacity="1"></use></g></g><g><use xlink:href="#a7BK8Bgd9" opacity="1" fill="#19b5fe" fill-opacity="1"></use><g><use xlink:href="#a7BK8Bgd9" opacity="1" fill-opacity="0" stroke="#00496b" stroke-width="3" stroke-opacity="1"></use></g></g><g><use xlink:href="#i1JBfqjscB" opacity="1" fill="#19b5fe" fill-opacity="1"></use><g><use xlink:href="#i1JBfqjscB" opacity="1" fill-opacity="0" stroke="#00496b" stroke-width="3" stroke-opacity="1"></use></g></g><g><use xlink:href="#b368cMVcRF" opacity="1" fill="#19b5fe" fill-opacity="1"></use><g><use xlink:href="#b368cMVcRF" opacity="1" fill-opacity="0" stroke="#00496b" stroke-width="3" stroke-opacity="1"></use></g></g><g><g></g><use xlink:href="#a7HyBLJ8K" opacity="1" fill="#19b5fe" fill-opacity="1"></use><g><use xlink:href="#a7HyBLJ8K" opacity="1" fill-opacity="0" stroke="#00496b" stroke-width="3" stroke-opacity="1"></use></g></g><g><use xlink:href="#cf04ukva" opacity="1" fill="#19b5fe" fill-opacity="1"></use><g><use xlink:href="#cf04ukva" opacity="1" fill-opacity="0" stroke="#00496b" stroke-width="3" stroke-opacity="1"></use></g></g><g><g></g><use xlink:href="#e5q5YsZ0R2" opacity="1" fill="#19b5fe" fill-opacity="1"></use><g><use xlink:href="#e5q5YsZ0R2" opacity="1" fill-opacity="0" stroke="#00496b" stroke-width="3" stroke-opacity="1"></use></g></g><g><use xlink:href="#a1j1oGU6mq" opacity="1" fill="#19b5fe" fill-opacity="1"></use><g><use xlink:href="#a1j1oGU6mq" opacity="1" fill-opacity="0" stroke="#00496b" stroke-width="3" stroke-opacity="1"></use></g></g><g><use xlink:href="#e1nd0fOmSQ" opacity="1" fill="#19b5fe" fill-opacity="1"></use><g><use xlink:href="#e1nd0fOmSQ" opacity="1" fill-opacity="0" stroke="#00496b" stroke-width="3" stroke-opacity="1"></use></g></g><g><use xlink:href="#b1ujmqr6y5" opacity="1" fill="#19b5fe" fill-opacity="1"></use><g><use xlink:href="#b1ujmqr6y5" opacity="1" fill-opacity="0" stroke="#00496b" stroke-width="3" stroke-opacity="1"></use></g></g><g><use xlink:href="#aJj7i3etZ" opacity="1" fill="#19b5fe" fill-opacity="1"></use><g><use xlink:href="#aJj7i3etZ" opacity="1" fill-opacity="0" stroke="#00496b" stroke-width="3" stroke-opacity="1"></use></g></g><g><use xlink:href="#e2GaGfgLLb" opacity="1" fill="#19b5fe" fill-opacity="1"></use><g><use xlink:href="#e2GaGfgLLb" opacity="1" fill-opacity="0" stroke="#00496b" stroke-width="3" stroke-opacity="1"></use></g></g><g><use xlink:href="#d3coRApRp" opacity="1" fill="#19b5fe" fill-opacity="1"></use><g><use xlink:href="#d3coRApRp" opacity="1" fill-opacity="0" stroke="#00496b" stroke-width="3" stroke-opacity="1"></use></g></g><g><use xlink:href="#a3l9geZO0" opacity="1" fill="#19b5fe" fill-opacity="1"></use><g><use xlink:href="#a3l9geZO0" opacity="1" fill-opacity="0" stroke="#00496b" stroke-width="3" stroke-opacity="1"></use></g></g><g><use xlink:href="#b5Q7px5qEg" opacity="1" fill="#19b5fe" fill-opacity="1"></use><g><use xlink:href="#b5Q7px5qEg" opacity="1" fill-opacity="0" stroke="#00496b" stroke-width="3" stroke-opacity="1"></use></g></g><g><use xlink:href="#a2KK27iT" opacity="1" fill="#19b5fe" fill-opacity="1"></use><g><use xlink:href="#a2KK27iT" opacity="1" fill-opacity="0" stroke="#00496b" stroke-width="3" stroke-opacity="1"></use></g></g><g><use xlink:href="#bPJ2ahXR3" opacity="1" fill="#19b5fe" fill-opacity="1"></use><g><use xlink:href="#bPJ2ahXR3" opacity="1" fill-opacity="0" stroke="#00496b" stroke-width="3" stroke-opacity="1"></use></g></g><g><use xlink:href="#a55j0lcYAF" opacity="1" fill="#19b5fe" fill-opacity="1"></use><g><use xlink:href="#a55j0lcYAF" opacity="1" fill-opacity="0" stroke="#00496b" stroke-width="3" stroke-opacity="1"></use></g></g><g><use xlink:href="#b2YD0cOQVr" opacity="1" fill="#d6e5ec" fill-opacity="1"></use><g><use xlink:href="#b2YD0cOQVr" opacity="1" fill-opacity="0" stroke="#c1c9cb" stroke-width="3" stroke-opacity="1"></use></g></g><g><g><filter id="shadow16038644" x="600.43" y="106.3" width="33.56" height="33.56" filterUnits="userSpaceOnUse" primitiveUnits="userSpaceOnUse"><feFlood></feFlood><feComposite in2="SourceAlpha" operator="in"></feComposite><feGaussianBlur stdDeviation="1"></feGaussianBlur><feOffset dx="1" dy="1" result="afterOffset"></feOffset><feFlood flood-color="#784d4d" flood-opacity="0.5"></feFlood><feComposite in2="afterOffset" operator="in"></feComposite><feMorphology operator="dilate" radius="1"></feMorphology><feComposite in2="SourceAlpha" operator="out"></feComposite></filter><path d="M609.43 122.58C609.43 126.6 612.7 129.86 616.71 129.86C620.73 129.86 624 126.6 624 122.58C624 118.56 620.73 115.3 616.71 115.3C612.7 115.3 609.43 118.56 609.43 122.58Z" id="d1CNgfD0Bw" fill="white" fill-opacity="1" filter="url(#shadow16038644)"></path></g><use xlink:href="#cZCzbIZSH" opacity="1" fill="#e1dfdf" fill-opacity="1"></use><g><use xlink:href="#cZCzbIZSH" opacity="1" fill-opacity="0" stroke="#b4b7b7" stroke-width="3" stroke-opacity="1"></use></g></g><g><g><filter id="shadow4550068" x="561.78" y="93.78" width="26.28" height="26.28" filterUnits="userSpaceOnUse" primitiveUnits="userSpaceOnUse"><feFlood></feFlood><feComposite in2="SourceAlpha" operator="in"></feComposite><feGaussianBlur stdDeviation="1"></feGaussianBlur><feOffset dx="1" dy="1" result="afterOffset"></feOffset><feFlood flood-color="#784d4d" flood-opacity="0.5"></feFlood><feComposite in2="afterOffset" operator="in"></feComposite><feMorphology operator="dilate" radius="1"></feMorphology><feComposite in2="SourceAlpha" operator="out"></feComposite></filter><path d="M570.78 106.42C570.78 108.43 572.42 110.06 574.43 110.06C576.44 110.06 578.07 108.43 578.07 106.42C578.07 104.41 576.44 102.78 574.43 102.78C572.42 102.78 570.78 104.41 570.78 106.42Z" id="b2j3E4dHNM" fill="white" fill-opacity="1" filter="url(#shadow4550068)"></path></g><use xlink:href="#aJR4iG81y" opacity="1" fill="#e1dfdf" fill-opacity="1"></use><g><use xlink:href="#aJR4iG81y" opacity="1" fill-opacity="0" stroke="#b4b7b7" stroke-width="3" stroke-opacity="1"></use></g></g><g><use xlink:href="#c4lyS7Fgo2" opacity="1" fill="#19b5fe" fill-opacity="1"></use><g><use xlink:href="#c4lyS7Fgo2" opacity="1" fill-opacity="0" stroke="#00496b" stroke-width="3" stroke-opacity="1"></use></g></g><g><use xlink:href="#e10OgjAgog" opacity="1" fill="#19b5fe" fill-opacity="1"></use><g><use xlink:href="#e10OgjAgog" opacity="1" fill-opacity="0" stroke="#00496b" stroke-width="3" stroke-opacity="1"></use></g></g><g><use xlink:href="#b20QL5ufh7" opacity="1" fill="#19b5fe" fill-opacity="1"></use><g><use xlink:href="#b20QL5ufh7" opacity="1" fill-opacity="0" stroke="#00496b" stroke-width="3" stroke-opacity="1"></use></g></g><g><use xlink:href="#h2yoPy81gt" opacity="1" fill="#19b5fe" fill-opacity="1"></use><g><use xlink:href="#h2yoPy81gt" opacity="1" fill-opacity="0" stroke="#00496b" stroke-width="3" stroke-opacity="1"></use></g></g><g><use xlink:href="#a5E2nt8tA9" opacity="1" fill="#d6e5ec" fill-opacity="1"></use><g><use xlink:href="#a5E2nt8tA9" opacity="1" fill-opacity="0" stroke="#c1c9cb" stroke-width="3" stroke-opacity="1"></use></g></g><g><g><filter id="shadow11029810" x="236.76" y="15.1" width="30.11" height="29.99" filterUnits="userSpaceOnUse" primitiveUnits="userSpaceOnUse"><feFlood></feFlood><feComposite in2="SourceAlpha" operator="in"></feComposite><feGaussianBlur stdDeviation="1"></feGaussianBlur><feOffset dx="1" dy="1" result="afterOffset"></feOffset><feFlood flood-color="#784d4d" flood-opacity="0.5"></feFlood><feComposite in2="afterOffset" operator="in"></feComposite><feMorphology operator="dilate" radius="1"></feMorphology><feComposite in2="SourceAlpha" operator="out"></feComposite></filter><path d="M245.76 29.6C245.76 32.63 248.25 35.09 251.32 35.09C254.38 35.09 256.87 32.63 256.87 29.6C256.87 26.56 254.38 24.1 251.32 24.1C248.25 24.1 245.76 26.56 245.76 29.6Z" id="bN48WJyTU" fill="white" fill-opacity="1" filter="url(#shadow11029810)"></path></g><use xlink:href="#bDKmpylCE" opacity="1" fill="#e1dfdf" fill-opacity="1"></use><g><use xlink:href="#bDKmpylCE" opacity="1" fill-opacity="0" stroke="#b4b7b7" stroke-width="3" stroke-opacity="1"></use></g></g><g><g><filter id="shadow94867" x="203.19" y="25.05" width="24.56" height="24.5" filterUnits="userSpaceOnUse" primitiveUnits="userSpaceOnUse"><feFlood></feFlood><feComposite in2="SourceAlpha" operator="in"></feComposite><feGaussianBlur stdDeviation="1"></feGaussianBlur><feOffset dx="1" dy="1" result="afterOffset"></feOffset><feFlood flood-color="#784d4d" flood-opacity="0.5"></feFlood><feComposite in2="afterOffset" operator="in"></feComposite><feMorphology operator="dilate" radius="1"></feMorphology><feComposite in2="SourceAlpha" operator="out"></feComposite></filter><path d="M212.19 36.8C212.19 38.32 213.44 39.55 214.97 39.55C216.51 39.55 217.75 38.32 217.75 36.8C217.75 35.28 216.51 34.05 214.97 34.05C213.44 34.05 212.19 35.28 212.19 36.8Z" id="a7tJIO280P" fill="white" fill-opacity="1" filter="url(#shadow94867)"></path></g><use xlink:href="#a4i4rmDZ2N" opacity="1" fill="#e1dfdf" fill-opacity="1"></use><g><use xlink:href="#a4i4rmDZ2N" opacity="1" fill-opacity="0" stroke="#b4b7b7" stroke-width="3" stroke-opacity="1"></use></g></g><g><g><use xlink:href="#a17djDjYk4" opacity="1" fill-opacity="0" stroke="#00496b" stroke-width="3" stroke-opacity="1"></use></g></g><g><g><use xlink:href="#e1YjYkc7NQ" opacity="1" fill-opacity="0" stroke="#00496b" stroke-width="3" stroke-opacity="1"></use></g></g><g><g><use xlink:href="#a1AWGXJ4GO" opacity="1" fill-opacity="0" stroke="#00496b" stroke-width="3" stroke-opacity="1"></use></g></g><g><use xlink:href="#a1lYYspQJe" opacity="1" fill="#d6e5ec" fill-opacity="1"></use><g><use xlink:href="#a1lYYspQJe" opacity="1" fill-opacity="0" stroke="#c1c9cb" stroke-width="3" stroke-opacity="1"></use></g></g><g><g><filter id="shadow5810738" x="75.38" y="182.17" width="30.03" height="30.08" filterUnits="userSpaceOnUse" primitiveUnits="userSpaceOnUse"><feFlood></feFlood><feComposite in2="SourceAlpha" operator="in"></feComposite><feGaussianBlur stdDeviation="1"></feGaussianBlur><feOffset dx="1" dy="1" result="afterOffset"></feOffset><feFlood flood-color="#784d4d" flood-opacity="0.5"></feFlood><feComposite in2="afterOffset" operator="in"></feComposite><feMorphology operator="dilate" radius="1"></feMorphology><feComposite in2="SourceAlpha" operator="out"></feComposite></filter><path d="M92.97 192.08C90.44 190.4 87.01 191.12 85.32 193.67C83.62 196.23 84.29 199.66 86.82 201.34C89.35 203.02 92.78 202.31 94.48 199.75C96.17 197.2 95.5 193.76 92.97 192.08Z" id="ebiGtAjsn" fill="white" fill-opacity="1" filter="url(#shadow5810738)"></path></g><use xlink:href="#c1h5UKQDD4" opacity="1" fill="#e1dfdf" fill-opacity="1"></use><g><use xlink:href="#c1h5UKQDD4" opacity="1" fill-opacity="0" stroke="#b4b7b7" stroke-width="3" stroke-opacity="1"></use></g></g><g><g><filter id="shadow10099744" x="92.24" y="150.68" width="24.52" height="24.54" filterUnits="userSpaceOnUse" primitiveUnits="userSpaceOnUse"><feFlood></feFlood><feComposite in2="SourceAlpha" operator="in"></feComposite><feGaussianBlur stdDeviation="1"></feGaussianBlur><feOffset dx="1" dy="1" result="afterOffset"></feOffset><feFlood flood-color="#784d4d" flood-opacity="0.5"></feFlood><feComposite in2="afterOffset" operator="in"></feComposite><feMorphology operator="dilate" radius="1"></feMorphology><feComposite in2="SourceAlpha" operator="out"></feComposite></filter><path d="M105.54 160.14C104.27 159.3 102.56 159.65 101.71 160.93C100.86 162.21 101.2 163.93 102.46 164.77C103.73 165.61 105.44 165.25 106.29 163.97C107.14 162.7 106.8 160.98 105.54 160.14Z" id="b9bFHUOBe3" fill="white" fill-opacity="1" filter="url(#shadow10099744)"></path></g><use xlink:href="#b3NHY1Ytw5" opacity="1" fill="#e1dfdf" fill-opacity="1"></use><g><use xlink:href="#b3NHY1Ytw5" opacity="1" fill-opacity="0" stroke="#b4b7b7" stroke-width="3" stroke-opacity="1"></use></g></g></g></svg>